G04 #@! TF.GenerationSoftware,KiCad,Pcbnew,5.1.9*
G04 #@! TF.CreationDate,2021-01-24T14:33:22-08:00*
G04 #@! TF.ProjectId,Lily58_prot_MX,4c696c79-3538-45f7-9072-6f745f4d582e,rev?*
G04 #@! TF.SameCoordinates,Original*
G04 #@! TF.FileFunction,Legend,Top*
G04 #@! TF.FilePolarity,Positive*
%FSLAX46Y46*%
G04 Gerber Fmt 4.6, Leading zero omitted, Abs format (unit mm)*
G04 Created by KiCad (PCBNEW 5.1.9) date 2021-01-24 14:33:22*
%MOMM*%
%LPD*%
G01*
G04 APERTURE LIST*
%ADD10C,0.150000*%
%ADD11C,0.010000*%
%ADD12C,0.300000*%
%ADD13C,0.120000*%
%ADD14C,0.100000*%
G04 APERTURE END LIST*
D10*
X96099380Y-62277047D02*
X96813666Y-62277047D01*
X96956523Y-62324666D01*
X97051761Y-62419904D01*
X97099380Y-62562761D01*
X97099380Y-62658000D01*
X97099380Y-61324666D02*
X97099380Y-61800857D01*
X96099380Y-61800857D01*
X97004142Y-60419904D02*
X97051761Y-60467523D01*
X97099380Y-60610380D01*
X97099380Y-60705619D01*
X97051761Y-60848476D01*
X96956523Y-60943714D01*
X96861285Y-60991333D01*
X96670809Y-61038952D01*
X96527952Y-61038952D01*
X96337476Y-60991333D01*
X96242238Y-60943714D01*
X96147000Y-60848476D01*
X96099380Y-60705619D01*
X96099380Y-60610380D01*
X96147000Y-60467523D01*
X96194619Y-60419904D01*
X96099380Y-59705619D02*
X96813666Y-59705619D01*
X96956523Y-59753238D01*
X97051761Y-59848476D01*
X97099380Y-59991333D01*
X97099380Y-60086571D01*
X97099380Y-58753238D02*
X97099380Y-59229428D01*
X96099380Y-59229428D01*
X97004142Y-57848476D02*
X97051761Y-57896095D01*
X97099380Y-58038952D01*
X97099380Y-58134190D01*
X97051761Y-58277047D01*
X96956523Y-58372285D01*
X96861285Y-58419904D01*
X96670809Y-58467523D01*
X96527952Y-58467523D01*
X96337476Y-58419904D01*
X96242238Y-58372285D01*
X96147000Y-58277047D01*
X96099380Y-58134190D01*
X96099380Y-58038952D01*
X96147000Y-57896095D01*
X96194619Y-57848476D01*
X96099380Y-57134190D02*
X96813666Y-57134190D01*
X96956523Y-57181809D01*
X97051761Y-57277047D01*
X97099380Y-57419904D01*
X97099380Y-57515142D01*
X97099380Y-56181809D02*
X97099380Y-56658000D01*
X96099380Y-56658000D01*
X97004142Y-55277047D02*
X97051761Y-55324666D01*
X97099380Y-55467523D01*
X97099380Y-55562761D01*
X97051761Y-55705619D01*
X96956523Y-55800857D01*
X96861285Y-55848476D01*
X96670809Y-55896095D01*
X96527952Y-55896095D01*
X96337476Y-55848476D01*
X96242238Y-55800857D01*
X96147000Y-55705619D01*
X96099380Y-55562761D01*
X96099380Y-55467523D01*
X96147000Y-55324666D01*
X96194619Y-55277047D01*
X96099380Y-54562761D02*
X96813666Y-54562761D01*
X96956523Y-54610380D01*
X97051761Y-54705619D01*
X97099380Y-54848476D01*
X97099380Y-54943714D01*
X97099380Y-53610380D02*
X97099380Y-54086571D01*
X96099380Y-54086571D01*
X97004142Y-52705619D02*
X97051761Y-52753238D01*
X97099380Y-52896095D01*
X97099380Y-52991333D01*
X97051761Y-53134190D01*
X96956523Y-53229428D01*
X96861285Y-53277047D01*
X96670809Y-53324666D01*
X96527952Y-53324666D01*
X96337476Y-53277047D01*
X96242238Y-53229428D01*
X96147000Y-53134190D01*
X96099380Y-52991333D01*
X96099380Y-52896095D01*
X96147000Y-52753238D01*
X96194619Y-52705619D01*
D11*
G36*
X94321404Y-79133254D02*
G01*
X94337339Y-79146799D01*
X94358785Y-79166725D01*
X94383602Y-79190864D01*
X94409650Y-79217048D01*
X94434791Y-79243110D01*
X94456884Y-79266883D01*
X94473791Y-79286197D01*
X94483371Y-79298887D01*
X94484747Y-79302146D01*
X94479835Y-79310635D01*
X94466518Y-79326893D01*
X94446931Y-79348742D01*
X94423204Y-79374004D01*
X94397471Y-79400500D01*
X94371862Y-79426052D01*
X94348512Y-79448481D01*
X94329552Y-79465610D01*
X94317114Y-79475260D01*
X94313978Y-79476600D01*
X94306688Y-79471697D01*
X94291080Y-79458118D01*
X94268989Y-79437562D01*
X94242250Y-79411725D01*
X94220150Y-79389803D01*
X94133579Y-79303006D01*
X94219877Y-79215632D01*
X94248768Y-79186777D01*
X94274383Y-79161940D01*
X94294905Y-79142824D01*
X94308516Y-79131131D01*
X94313118Y-79128257D01*
X94321404Y-79133254D01*
G37*
X94321404Y-79133254D02*
X94337339Y-79146799D01*
X94358785Y-79166725D01*
X94383602Y-79190864D01*
X94409650Y-79217048D01*
X94434791Y-79243110D01*
X94456884Y-79266883D01*
X94473791Y-79286197D01*
X94483371Y-79298887D01*
X94484747Y-79302146D01*
X94479835Y-79310635D01*
X94466518Y-79326893D01*
X94446931Y-79348742D01*
X94423204Y-79374004D01*
X94397471Y-79400500D01*
X94371862Y-79426052D01*
X94348512Y-79448481D01*
X94329552Y-79465610D01*
X94317114Y-79475260D01*
X94313978Y-79476600D01*
X94306688Y-79471697D01*
X94291080Y-79458118D01*
X94268989Y-79437562D01*
X94242250Y-79411725D01*
X94220150Y-79389803D01*
X94133579Y-79303006D01*
X94219877Y-79215632D01*
X94248768Y-79186777D01*
X94274383Y-79161940D01*
X94294905Y-79142824D01*
X94308516Y-79131131D01*
X94313118Y-79128257D01*
X94321404Y-79133254D01*
G36*
X94725178Y-79104154D02*
G01*
X94741295Y-79117669D01*
X94763597Y-79137884D01*
X94790165Y-79162910D01*
X94819080Y-79190854D01*
X94848423Y-79219829D01*
X94876276Y-79247943D01*
X94900718Y-79273306D01*
X94919832Y-79294028D01*
X94931699Y-79308219D01*
X94934690Y-79313499D01*
X94929751Y-79320816D01*
X94916199Y-79336244D01*
X94895933Y-79357888D01*
X94870855Y-79383850D01*
X94842863Y-79412234D01*
X94813857Y-79441144D01*
X94785736Y-79468684D01*
X94760401Y-79492957D01*
X94739751Y-79512067D01*
X94725685Y-79524117D01*
X94720420Y-79527400D01*
X94713304Y-79522482D01*
X94697670Y-79508761D01*
X94675176Y-79487787D01*
X94647476Y-79461110D01*
X94616225Y-79430279D01*
X94609839Y-79423895D01*
X94578375Y-79391855D01*
X94550772Y-79362754D01*
X94528587Y-79338315D01*
X94513376Y-79320260D01*
X94506696Y-79310313D01*
X94506519Y-79309498D01*
X94511519Y-79300843D01*
X94525217Y-79284274D01*
X94545662Y-79261741D01*
X94570903Y-79235190D01*
X94598988Y-79206570D01*
X94627965Y-79177830D01*
X94655883Y-79150916D01*
X94680791Y-79127778D01*
X94700737Y-79110362D01*
X94713769Y-79100618D01*
X94717164Y-79099229D01*
X94725178Y-79104154D01*
G37*
X94725178Y-79104154D02*
X94741295Y-79117669D01*
X94763597Y-79137884D01*
X94790165Y-79162910D01*
X94819080Y-79190854D01*
X94848423Y-79219829D01*
X94876276Y-79247943D01*
X94900718Y-79273306D01*
X94919832Y-79294028D01*
X94931699Y-79308219D01*
X94934690Y-79313499D01*
X94929751Y-79320816D01*
X94916199Y-79336244D01*
X94895933Y-79357888D01*
X94870855Y-79383850D01*
X94842863Y-79412234D01*
X94813857Y-79441144D01*
X94785736Y-79468684D01*
X94760401Y-79492957D01*
X94739751Y-79512067D01*
X94725685Y-79524117D01*
X94720420Y-79527400D01*
X94713304Y-79522482D01*
X94697670Y-79508761D01*
X94675176Y-79487787D01*
X94647476Y-79461110D01*
X94616225Y-79430279D01*
X94609839Y-79423895D01*
X94578375Y-79391855D01*
X94550772Y-79362754D01*
X94528587Y-79338315D01*
X94513376Y-79320260D01*
X94506696Y-79310313D01*
X94506519Y-79309498D01*
X94511519Y-79300843D01*
X94525217Y-79284274D01*
X94545662Y-79261741D01*
X94570903Y-79235190D01*
X94598988Y-79206570D01*
X94627965Y-79177830D01*
X94655883Y-79150916D01*
X94680791Y-79127778D01*
X94700737Y-79110362D01*
X94713769Y-79100618D01*
X94717164Y-79099229D01*
X94725178Y-79104154D01*
G36*
X95218949Y-79060682D02*
G01*
X95235460Y-79074495D01*
X95258394Y-79095368D01*
X95285994Y-79121539D01*
X95316502Y-79151249D01*
X95348161Y-79182739D01*
X95379213Y-79214248D01*
X95407902Y-79244017D01*
X95432468Y-79270287D01*
X95451155Y-79291297D01*
X95462205Y-79305288D01*
X95464462Y-79309844D01*
X95459466Y-79318174D01*
X95445652Y-79334684D01*
X95424780Y-79357618D01*
X95398609Y-79385218D01*
X95368898Y-79415726D01*
X95337409Y-79447385D01*
X95305899Y-79478438D01*
X95276130Y-79507126D01*
X95249861Y-79531692D01*
X95228851Y-79550379D01*
X95214860Y-79561430D01*
X95210304Y-79563686D01*
X95202295Y-79558739D01*
X95185693Y-79544853D01*
X95162060Y-79523462D01*
X95132954Y-79495999D01*
X95099936Y-79463900D01*
X95077939Y-79442051D01*
X95043707Y-79407332D01*
X95013209Y-79375551D01*
X94987877Y-79348272D01*
X94969143Y-79327055D01*
X94958438Y-79313463D01*
X94956462Y-79309528D01*
X94961457Y-79301198D01*
X94975271Y-79284688D01*
X94996144Y-79261754D01*
X95022315Y-79234154D01*
X95052025Y-79203646D01*
X95083515Y-79171987D01*
X95115024Y-79140934D01*
X95144793Y-79112246D01*
X95171062Y-79087680D01*
X95192072Y-79068993D01*
X95206063Y-79057942D01*
X95210620Y-79055686D01*
X95218949Y-79060682D01*
G37*
X95218949Y-79060682D02*
X95235460Y-79074495D01*
X95258394Y-79095368D01*
X95285994Y-79121539D01*
X95316502Y-79151249D01*
X95348161Y-79182739D01*
X95379213Y-79214248D01*
X95407902Y-79244017D01*
X95432468Y-79270287D01*
X95451155Y-79291297D01*
X95462205Y-79305288D01*
X95464462Y-79309844D01*
X95459466Y-79318174D01*
X95445652Y-79334684D01*
X95424780Y-79357618D01*
X95398609Y-79385218D01*
X95368898Y-79415726D01*
X95337409Y-79447385D01*
X95305899Y-79478438D01*
X95276130Y-79507126D01*
X95249861Y-79531692D01*
X95228851Y-79550379D01*
X95214860Y-79561430D01*
X95210304Y-79563686D01*
X95202295Y-79558739D01*
X95185693Y-79544853D01*
X95162060Y-79523462D01*
X95132954Y-79495999D01*
X95099936Y-79463900D01*
X95077939Y-79442051D01*
X95043707Y-79407332D01*
X95013209Y-79375551D01*
X94987877Y-79348272D01*
X94969143Y-79327055D01*
X94958438Y-79313463D01*
X94956462Y-79309528D01*
X94961457Y-79301198D01*
X94975271Y-79284688D01*
X94996144Y-79261754D01*
X95022315Y-79234154D01*
X95052025Y-79203646D01*
X95083515Y-79171987D01*
X95115024Y-79140934D01*
X95144793Y-79112246D01*
X95171062Y-79087680D01*
X95192072Y-79068993D01*
X95206063Y-79057942D01*
X95210620Y-79055686D01*
X95218949Y-79060682D01*
G36*
X94322005Y-79503372D02*
G01*
X94337792Y-79517093D01*
X94359679Y-79537618D01*
X94385780Y-79563027D01*
X94414209Y-79591404D01*
X94443079Y-79620829D01*
X94470504Y-79649385D01*
X94494599Y-79675153D01*
X94513476Y-79696215D01*
X94525251Y-79710654D01*
X94528290Y-79716086D01*
X94523373Y-79724019D01*
X94509881Y-79740073D01*
X94489698Y-79762331D01*
X94464712Y-79788875D01*
X94436809Y-79817785D01*
X94407874Y-79847145D01*
X94379794Y-79875035D01*
X94354455Y-79899538D01*
X94333744Y-79918735D01*
X94319546Y-79930709D01*
X94314205Y-79933800D01*
X94307413Y-79928913D01*
X94292026Y-79915277D01*
X94269685Y-79894431D01*
X94242033Y-79867912D01*
X94210713Y-79837258D01*
X94204095Y-79830710D01*
X94172440Y-79798774D01*
X94144668Y-79769705D01*
X94122344Y-79745227D01*
X94107033Y-79727066D01*
X94100299Y-79716946D01*
X94100119Y-79716086D01*
X94105036Y-79708153D01*
X94118528Y-79692098D01*
X94138711Y-79669840D01*
X94163697Y-79643297D01*
X94191600Y-79614387D01*
X94220535Y-79585027D01*
X94248615Y-79557137D01*
X94273954Y-79532634D01*
X94294665Y-79513436D01*
X94308863Y-79501463D01*
X94314205Y-79498372D01*
X94322005Y-79503372D01*
G37*
X94322005Y-79503372D02*
X94337792Y-79517093D01*
X94359679Y-79537618D01*
X94385780Y-79563027D01*
X94414209Y-79591404D01*
X94443079Y-79620829D01*
X94470504Y-79649385D01*
X94494599Y-79675153D01*
X94513476Y-79696215D01*
X94525251Y-79710654D01*
X94528290Y-79716086D01*
X94523373Y-79724019D01*
X94509881Y-79740073D01*
X94489698Y-79762331D01*
X94464712Y-79788875D01*
X94436809Y-79817785D01*
X94407874Y-79847145D01*
X94379794Y-79875035D01*
X94354455Y-79899538D01*
X94333744Y-79918735D01*
X94319546Y-79930709D01*
X94314205Y-79933800D01*
X94307413Y-79928913D01*
X94292026Y-79915277D01*
X94269685Y-79894431D01*
X94242033Y-79867912D01*
X94210713Y-79837258D01*
X94204095Y-79830710D01*
X94172440Y-79798774D01*
X94144668Y-79769705D01*
X94122344Y-79745227D01*
X94107033Y-79727066D01*
X94100299Y-79716946D01*
X94100119Y-79716086D01*
X94105036Y-79708153D01*
X94118528Y-79692098D01*
X94138711Y-79669840D01*
X94163697Y-79643297D01*
X94191600Y-79614387D01*
X94220535Y-79585027D01*
X94248615Y-79557137D01*
X94273954Y-79532634D01*
X94294665Y-79513436D01*
X94308863Y-79501463D01*
X94314205Y-79498372D01*
X94322005Y-79503372D01*
G36*
X95315658Y-79687025D02*
G01*
X95347459Y-79719289D01*
X95375404Y-79748635D01*
X95397948Y-79773358D01*
X95413545Y-79791752D01*
X95420649Y-79802111D01*
X95420919Y-79803175D01*
X95415919Y-79811868D01*
X95402222Y-79828473D01*
X95381778Y-79851042D01*
X95356539Y-79877625D01*
X95328455Y-79906273D01*
X95299478Y-79935036D01*
X95271559Y-79961965D01*
X95246650Y-79985110D01*
X95226700Y-80002522D01*
X95213662Y-80012252D01*
X95210274Y-80013629D01*
X95202056Y-80008691D01*
X95185408Y-79994907D01*
X95162030Y-79973823D01*
X95133626Y-79946984D01*
X95101898Y-79915936D01*
X95094315Y-79908368D01*
X94989242Y-79803107D01*
X95099820Y-79692530D01*
X95210397Y-79581952D01*
X95315658Y-79687025D01*
G37*
X95315658Y-79687025D02*
X95347459Y-79719289D01*
X95375404Y-79748635D01*
X95397948Y-79773358D01*
X95413545Y-79791752D01*
X95420649Y-79802111D01*
X95420919Y-79803175D01*
X95415919Y-79811868D01*
X95402222Y-79828473D01*
X95381778Y-79851042D01*
X95356539Y-79877625D01*
X95328455Y-79906273D01*
X95299478Y-79935036D01*
X95271559Y-79961965D01*
X95246650Y-79985110D01*
X95226700Y-80002522D01*
X95213662Y-80012252D01*
X95210274Y-80013629D01*
X95202056Y-80008691D01*
X95185408Y-79994907D01*
X95162030Y-79973823D01*
X95133626Y-79946984D01*
X95101898Y-79915936D01*
X95094315Y-79908368D01*
X94989242Y-79803107D01*
X95099820Y-79692530D01*
X95210397Y-79581952D01*
X95315658Y-79687025D01*
G36*
X95219029Y-80047567D02*
G01*
X95235148Y-80060874D01*
X95256875Y-80080447D01*
X95282037Y-80104154D01*
X95308458Y-80129861D01*
X95333964Y-80155437D01*
X95356380Y-80178750D01*
X95373532Y-80197668D01*
X95383244Y-80210058D01*
X95384633Y-80213205D01*
X95379793Y-80220111D01*
X95366649Y-80235048D01*
X95347265Y-80255911D01*
X95323706Y-80280591D01*
X95298035Y-80306982D01*
X95272316Y-80332977D01*
X95248613Y-80356469D01*
X95228991Y-80375350D01*
X95215514Y-80387515D01*
X95210462Y-80391000D01*
X95204312Y-80386119D01*
X95189737Y-80372611D01*
X95168510Y-80352175D01*
X95142403Y-80326511D01*
X95121448Y-80305620D01*
X95093075Y-80276755D01*
X95068708Y-80251170D01*
X95050055Y-80230722D01*
X95038823Y-80217270D01*
X95036290Y-80212973D01*
X95041309Y-80204773D01*
X95054912Y-80188965D01*
X95074922Y-80167676D01*
X95099158Y-80143033D01*
X95125441Y-80117166D01*
X95151594Y-80092202D01*
X95175436Y-80070268D01*
X95194789Y-80053493D01*
X95207473Y-80044005D01*
X95210694Y-80042657D01*
X95219029Y-80047567D01*
G37*
X95219029Y-80047567D02*
X95235148Y-80060874D01*
X95256875Y-80080447D01*
X95282037Y-80104154D01*
X95308458Y-80129861D01*
X95333964Y-80155437D01*
X95356380Y-80178750D01*
X95373532Y-80197668D01*
X95383244Y-80210058D01*
X95384633Y-80213205D01*
X95379793Y-80220111D01*
X95366649Y-80235048D01*
X95347265Y-80255911D01*
X95323706Y-80280591D01*
X95298035Y-80306982D01*
X95272316Y-80332977D01*
X95248613Y-80356469D01*
X95228991Y-80375350D01*
X95215514Y-80387515D01*
X95210462Y-80391000D01*
X95204312Y-80386119D01*
X95189737Y-80372611D01*
X95168510Y-80352175D01*
X95142403Y-80326511D01*
X95121448Y-80305620D01*
X95093075Y-80276755D01*
X95068708Y-80251170D01*
X95050055Y-80230722D01*
X95038823Y-80217270D01*
X95036290Y-80212973D01*
X95041309Y-80204773D01*
X95054912Y-80188965D01*
X95074922Y-80167676D01*
X95099158Y-80143033D01*
X95125441Y-80117166D01*
X95151594Y-80092202D01*
X95175436Y-80070268D01*
X95194789Y-80053493D01*
X95207473Y-80044005D01*
X95210694Y-80042657D01*
X95219029Y-80047567D01*
G36*
X94815806Y-79997775D02*
G01*
X94825477Y-80005344D01*
X94842648Y-80020996D01*
X94865412Y-80042796D01*
X94891859Y-80068806D01*
X94920080Y-80097093D01*
X94948167Y-80125719D01*
X94974211Y-80152750D01*
X94996303Y-80176250D01*
X95012533Y-80194283D01*
X95020994Y-80204913D01*
X95021776Y-80206639D01*
X95016767Y-80214418D01*
X95003021Y-80230166D01*
X94982460Y-80251998D01*
X94957009Y-80278033D01*
X94928589Y-80306386D01*
X94899123Y-80335176D01*
X94870534Y-80362518D01*
X94844745Y-80386531D01*
X94823679Y-80405332D01*
X94809258Y-80417036D01*
X94803874Y-80420029D01*
X94795574Y-80415094D01*
X94778907Y-80401350D01*
X94755630Y-80380383D01*
X94727501Y-80353783D01*
X94696279Y-80323136D01*
X94693293Y-80320149D01*
X94662411Y-80288670D01*
X94635421Y-80260130D01*
X94613907Y-80236290D01*
X94599454Y-80218911D01*
X94593649Y-80209754D01*
X94593605Y-80209384D01*
X94598542Y-80201152D01*
X94612318Y-80184500D01*
X94633381Y-80161140D01*
X94660177Y-80132784D01*
X94691154Y-80101145D01*
X94697878Y-80094411D01*
X94733809Y-80058787D01*
X94761098Y-80032447D01*
X94781171Y-80014222D01*
X94795454Y-80002943D01*
X94805374Y-79997440D01*
X94812358Y-79996546D01*
X94815806Y-79997775D01*
G37*
X94815806Y-79997775D02*
X94825477Y-80005344D01*
X94842648Y-80020996D01*
X94865412Y-80042796D01*
X94891859Y-80068806D01*
X94920080Y-80097093D01*
X94948167Y-80125719D01*
X94974211Y-80152750D01*
X94996303Y-80176250D01*
X95012533Y-80194283D01*
X95020994Y-80204913D01*
X95021776Y-80206639D01*
X95016767Y-80214418D01*
X95003021Y-80230166D01*
X94982460Y-80251998D01*
X94957009Y-80278033D01*
X94928589Y-80306386D01*
X94899123Y-80335176D01*
X94870534Y-80362518D01*
X94844745Y-80386531D01*
X94823679Y-80405332D01*
X94809258Y-80417036D01*
X94803874Y-80420029D01*
X94795574Y-80415094D01*
X94778907Y-80401350D01*
X94755630Y-80380383D01*
X94727501Y-80353783D01*
X94696279Y-80323136D01*
X94693293Y-80320149D01*
X94662411Y-80288670D01*
X94635421Y-80260130D01*
X94613907Y-80236290D01*
X94599454Y-80218911D01*
X94593649Y-80209754D01*
X94593605Y-80209384D01*
X94598542Y-80201152D01*
X94612318Y-80184500D01*
X94633381Y-80161140D01*
X94660177Y-80132784D01*
X94691154Y-80101145D01*
X94697878Y-80094411D01*
X94733809Y-80058787D01*
X94761098Y-80032447D01*
X94781171Y-80014222D01*
X94795454Y-80002943D01*
X94805374Y-79997440D01*
X94812358Y-79996546D01*
X94815806Y-79997775D01*
G36*
X94324038Y-79960629D02*
G01*
X94341853Y-79974599D01*
X94365849Y-79995676D01*
X94394222Y-80022055D01*
X94425169Y-80051931D01*
X94456885Y-80083500D01*
X94487567Y-80114956D01*
X94515411Y-80144495D01*
X94538614Y-80170312D01*
X94555371Y-80190601D01*
X94563880Y-80203558D01*
X94564576Y-80206103D01*
X94559599Y-80215099D01*
X94545834Y-80232274D01*
X94525033Y-80255851D01*
X94498947Y-80284052D01*
X94469326Y-80315099D01*
X94437923Y-80347215D01*
X94406486Y-80378620D01*
X94376769Y-80407538D01*
X94350521Y-80432191D01*
X94329494Y-80450801D01*
X94315438Y-80461590D01*
X94310995Y-80463572D01*
X94303093Y-80458649D01*
X94286580Y-80444845D01*
X94263040Y-80423610D01*
X94234060Y-80396392D01*
X94201225Y-80364640D01*
X94182265Y-80345936D01*
X94148118Y-80311613D01*
X94117438Y-80280008D01*
X94091755Y-80252761D01*
X94072601Y-80231510D01*
X94061504Y-80217896D01*
X94059421Y-80214361D01*
X94060082Y-80207635D01*
X94066008Y-80197045D01*
X94078186Y-80181450D01*
X94097604Y-80159708D01*
X94125249Y-80130674D01*
X94162109Y-80093208D01*
X94177264Y-80077997D01*
X94220439Y-80035399D01*
X94256348Y-80001297D01*
X94284365Y-79976252D01*
X94303864Y-79960824D01*
X94314207Y-79955572D01*
X94324038Y-79960629D01*
G37*
X94324038Y-79960629D02*
X94341853Y-79974599D01*
X94365849Y-79995676D01*
X94394222Y-80022055D01*
X94425169Y-80051931D01*
X94456885Y-80083500D01*
X94487567Y-80114956D01*
X94515411Y-80144495D01*
X94538614Y-80170312D01*
X94555371Y-80190601D01*
X94563880Y-80203558D01*
X94564576Y-80206103D01*
X94559599Y-80215099D01*
X94545834Y-80232274D01*
X94525033Y-80255851D01*
X94498947Y-80284052D01*
X94469326Y-80315099D01*
X94437923Y-80347215D01*
X94406486Y-80378620D01*
X94376769Y-80407538D01*
X94350521Y-80432191D01*
X94329494Y-80450801D01*
X94315438Y-80461590D01*
X94310995Y-80463572D01*
X94303093Y-80458649D01*
X94286580Y-80444845D01*
X94263040Y-80423610D01*
X94234060Y-80396392D01*
X94201225Y-80364640D01*
X94182265Y-80345936D01*
X94148118Y-80311613D01*
X94117438Y-80280008D01*
X94091755Y-80252761D01*
X94072601Y-80231510D01*
X94061504Y-80217896D01*
X94059421Y-80214361D01*
X94060082Y-80207635D01*
X94066008Y-80197045D01*
X94078186Y-80181450D01*
X94097604Y-80159708D01*
X94125249Y-80130674D01*
X94162109Y-80093208D01*
X94177264Y-80077997D01*
X94220439Y-80035399D01*
X94256348Y-80001297D01*
X94284365Y-79976252D01*
X94303864Y-79960824D01*
X94314207Y-79955572D01*
X94324038Y-79960629D01*
G36*
X92980782Y-78166737D02*
G01*
X93140143Y-78339566D01*
X93289117Y-78522516D01*
X93427638Y-78715510D01*
X93451179Y-78750886D01*
X93559414Y-78925990D01*
X93653332Y-79100431D01*
X93732920Y-79274143D01*
X93798165Y-79447061D01*
X93849053Y-79619120D01*
X93885570Y-79790255D01*
X93907703Y-79960400D01*
X93915438Y-80129491D01*
X93908762Y-80297461D01*
X93887660Y-80464247D01*
X93852121Y-80629782D01*
X93846683Y-80650307D01*
X93838375Y-80681015D01*
X93767006Y-80703187D01*
X93728511Y-80715605D01*
X93687386Y-80729604D01*
X93650592Y-80742792D01*
X93639247Y-80747074D01*
X93613013Y-80756593D01*
X93592291Y-80763019D01*
X93580475Y-80765342D01*
X93579089Y-80765018D01*
X93579364Y-80756867D01*
X93583251Y-80738177D01*
X93590008Y-80712250D01*
X93594208Y-80697681D01*
X93632478Y-80546041D01*
X93656932Y-80394808D01*
X93667523Y-80243558D01*
X93664202Y-80091867D01*
X93646920Y-79939312D01*
X93615630Y-79785470D01*
X93570283Y-79629917D01*
X93510831Y-79472230D01*
X93437225Y-79311984D01*
X93435648Y-79308830D01*
X93396423Y-79232413D01*
X93359071Y-79164153D01*
X93320478Y-79098686D01*
X93277530Y-79030649D01*
X93248628Y-78986743D01*
X93179486Y-78887108D01*
X93103696Y-78785248D01*
X93024833Y-78685757D01*
X92946467Y-78593225D01*
X92915499Y-78558572D01*
X92882498Y-78522286D01*
X92866393Y-78536800D01*
X92852241Y-78551124D01*
X92830838Y-78574789D01*
X92803912Y-78605733D01*
X92773194Y-78641896D01*
X92740412Y-78681216D01*
X92707298Y-78721632D01*
X92675580Y-78761084D01*
X92646988Y-78797509D01*
X92640168Y-78806376D01*
X92571237Y-78900384D01*
X92502451Y-79001549D01*
X92437469Y-79104297D01*
X92381184Y-79200829D01*
X92359157Y-79241703D01*
X92336084Y-79286650D01*
X92312792Y-79333830D01*
X92290110Y-79381404D01*
X92268864Y-79427533D01*
X92249882Y-79470378D01*
X92233993Y-79508098D01*
X92222023Y-79538856D01*
X92214800Y-79560811D01*
X92213153Y-79572125D01*
X92213684Y-79573057D01*
X92220645Y-79577963D01*
X92236896Y-79589245D01*
X92259771Y-79605055D01*
X92278576Y-79618019D01*
X92409974Y-79717253D01*
X92532241Y-79827682D01*
X92645397Y-79949335D01*
X92749461Y-80082238D01*
X92844452Y-80226419D01*
X92930389Y-80381904D01*
X93007291Y-80548722D01*
X93075178Y-80726899D01*
X93091531Y-80775629D01*
X93105590Y-80819294D01*
X93118703Y-80861148D01*
X93129914Y-80898056D01*
X93138268Y-80926882D01*
X93142299Y-80942215D01*
X93147185Y-80965207D01*
X93147889Y-80978318D01*
X93144117Y-80985652D01*
X93138922Y-80989387D01*
X93128258Y-80996046D01*
X93108138Y-81008846D01*
X93081291Y-81026041D01*
X93050448Y-81045887D01*
X93045313Y-81049200D01*
X93015167Y-81068100D01*
X92989459Y-81083176D01*
X92970554Y-81093117D01*
X92960817Y-81096614D01*
X92960124Y-81096371D01*
X92956461Y-81087480D01*
X92950315Y-81068057D01*
X92942777Y-81041641D01*
X92939542Y-81029629D01*
X92892394Y-80871769D01*
X92836327Y-80719840D01*
X92771998Y-80575033D01*
X92700066Y-80438537D01*
X92621190Y-80311544D01*
X92536027Y-80195243D01*
X92445238Y-80090824D01*
X92389532Y-80035490D01*
X92270616Y-79933720D01*
X92140841Y-79841255D01*
X92000163Y-79758079D01*
X91848536Y-79684174D01*
X91685915Y-79619526D01*
X91512254Y-79564117D01*
X91327510Y-79517930D01*
X91131635Y-79480951D01*
X90924586Y-79453161D01*
X90737284Y-79436582D01*
X90672821Y-79432144D01*
X90677861Y-79514243D01*
X90697443Y-79734541D01*
X90728632Y-79946254D01*
X90771469Y-80149564D01*
X90825997Y-80344656D01*
X90892257Y-80531713D01*
X90927222Y-80616349D01*
X90941514Y-80649383D01*
X91038545Y-80633053D01*
X91203528Y-80612264D01*
X91368841Y-80605430D01*
X91534711Y-80612599D01*
X91701366Y-80633820D01*
X91869036Y-80669143D01*
X92037947Y-80718616D01*
X92208329Y-80782288D01*
X92380410Y-80860208D01*
X92554417Y-80952425D01*
X92570081Y-80961371D01*
X92612378Y-80986205D01*
X92657043Y-81013365D01*
X92702027Y-81041511D01*
X92745280Y-81069303D01*
X92784753Y-81095401D01*
X92818397Y-81118466D01*
X92844163Y-81137157D01*
X92860003Y-81150137D01*
X92862185Y-81152347D01*
X92868486Y-81160277D01*
X92869852Y-81167678D01*
X92865031Y-81177659D01*
X92852772Y-81193327D01*
X92839380Y-81209013D01*
X92816471Y-81237060D01*
X92792894Y-81268182D01*
X92776072Y-81292214D01*
X92748880Y-81333457D01*
X92681697Y-81286941D01*
X92543698Y-81197626D01*
X92400664Y-81116950D01*
X92254368Y-81045626D01*
X92106581Y-80984369D01*
X91959077Y-80933895D01*
X91813626Y-80894917D01*
X91672000Y-80868150D01*
X91629062Y-80862433D01*
X91572837Y-80857587D01*
X91506893Y-80854904D01*
X91435855Y-80854340D01*
X91364352Y-80855854D01*
X91297007Y-80859403D01*
X91238449Y-80864944D01*
X91229469Y-80866112D01*
X91073864Y-80894299D01*
X90916228Y-80936459D01*
X90757180Y-80992298D01*
X90597341Y-81061520D01*
X90437330Y-81143828D01*
X90277766Y-81238927D01*
X90119270Y-81346522D01*
X89962461Y-81466315D01*
X89948447Y-81477689D01*
X89912977Y-81506936D01*
X89877132Y-81537043D01*
X89844395Y-81565051D01*
X89818247Y-81587998D01*
X89811147Y-81594423D01*
X89763976Y-81637648D01*
X89782119Y-81657465D01*
X89809677Y-81685038D01*
X89847458Y-81719115D01*
X89893565Y-81758214D01*
X89946103Y-81800854D01*
X90003174Y-81845552D01*
X90062882Y-81890827D01*
X90123331Y-81935196D01*
X90182623Y-81977179D01*
X90238863Y-82015293D01*
X90246576Y-82020361D01*
X90397092Y-82113671D01*
X90543880Y-82193990D01*
X90688369Y-82261897D01*
X90831984Y-82317970D01*
X90976154Y-82362787D01*
X91122305Y-82396926D01*
X91216818Y-82413329D01*
X91271383Y-82419546D01*
X91336241Y-82423662D01*
X91407324Y-82425683D01*
X91480565Y-82425612D01*
X91551897Y-82423454D01*
X91617250Y-82419211D01*
X91672559Y-82412888D01*
X91672605Y-82412881D01*
X91828442Y-82382633D01*
X91986581Y-82338613D01*
X92146088Y-82281201D01*
X92306029Y-82210775D01*
X92465470Y-82127711D01*
X92623477Y-82032390D01*
X92641185Y-82020874D01*
X92700879Y-81979120D01*
X92748571Y-81939568D01*
X92786200Y-81900387D01*
X92815708Y-81859748D01*
X92820458Y-81851880D01*
X92844998Y-81800384D01*
X92864017Y-81741070D01*
X92875627Y-81680176D01*
X92877217Y-81664629D01*
X92882679Y-81609267D01*
X92889533Y-81564535D01*
X92898682Y-81526557D01*
X92911027Y-81491455D01*
X92924492Y-81461429D01*
X92942190Y-81428783D01*
X92963189Y-81395720D01*
X92983380Y-81368634D01*
X92986278Y-81365263D01*
X93003455Y-81348328D01*
X93027596Y-81327859D01*
X93056438Y-81305413D01*
X93087715Y-81282553D01*
X93119164Y-81260837D01*
X93148519Y-81241826D01*
X93173516Y-81227080D01*
X93191891Y-81218158D01*
X93201379Y-81216622D01*
X93201685Y-81216864D01*
X93206037Y-81228442D01*
X93209323Y-81251330D01*
X93211484Y-81282359D01*
X93212464Y-81318362D01*
X93212205Y-81356169D01*
X93210649Y-81392612D01*
X93207741Y-81424522D01*
X93205694Y-81438164D01*
X93195548Y-81494727D01*
X93211924Y-81474449D01*
X93226484Y-81454532D01*
X93246571Y-81424395D01*
X93270680Y-81386517D01*
X93297304Y-81343374D01*
X93324933Y-81297441D01*
X93352062Y-81251195D01*
X93377184Y-81207114D01*
X93398790Y-81167672D01*
X93399805Y-81165765D01*
X93450605Y-81070132D01*
X93521777Y-81038360D01*
X93554062Y-81024333D01*
X93589999Y-81009345D01*
X93627098Y-80994359D01*
X93662867Y-80980340D01*
X93694814Y-80968250D01*
X93720449Y-80959053D01*
X93737279Y-80953712D01*
X93742786Y-80952905D01*
X93741683Y-80961182D01*
X93734600Y-80980445D01*
X93722421Y-81008894D01*
X93706032Y-81044728D01*
X93686318Y-81086146D01*
X93664163Y-81131347D01*
X93640454Y-81178530D01*
X93616074Y-81225894D01*
X93591910Y-81271638D01*
X93568846Y-81313961D01*
X93547768Y-81351062D01*
X93543714Y-81357959D01*
X93492296Y-81442633D01*
X93445128Y-81515219D01*
X93400936Y-81577048D01*
X93358447Y-81629455D01*
X93316387Y-81673773D01*
X93273482Y-81711334D01*
X93228460Y-81743472D01*
X93180046Y-81771520D01*
X93126967Y-81796812D01*
X93122773Y-81798630D01*
X93093313Y-81811572D01*
X93074212Y-81821355D01*
X93062466Y-81830493D01*
X93055075Y-81841497D01*
X93049035Y-81856881D01*
X93047374Y-81861735D01*
X93037770Y-81887667D01*
X93027589Y-81911745D01*
X93023680Y-81919846D01*
X93016640Y-81935570D01*
X93017671Y-81945470D01*
X93027596Y-81956297D01*
X93028191Y-81956846D01*
X93040074Y-81966165D01*
X93061414Y-81981361D01*
X93089429Y-82000507D01*
X93121336Y-82021677D01*
X93129350Y-82026900D01*
X93292161Y-82125700D01*
X93455636Y-82211137D01*
X93619252Y-82283002D01*
X93782486Y-82341086D01*
X93944817Y-82385177D01*
X94089233Y-82412651D01*
X94140128Y-82418557D01*
X94200996Y-82422783D01*
X94267858Y-82425292D01*
X94336736Y-82426045D01*
X94403649Y-82425007D01*
X94464619Y-82422139D01*
X94515667Y-82417404D01*
X94521033Y-82416695D01*
X94683591Y-82387295D01*
X94847137Y-82343745D01*
X95010933Y-82286306D01*
X95174242Y-82215241D01*
X95336327Y-82130810D01*
X95352786Y-82121444D01*
X95443768Y-82066715D01*
X95538719Y-82004946D01*
X95634619Y-81938346D01*
X95728449Y-81869125D01*
X95817191Y-81799494D01*
X95897825Y-81731662D01*
X95950690Y-81683745D01*
X95997862Y-81639318D01*
X95961576Y-81605483D01*
X95928883Y-81576038D01*
X95887722Y-81540547D01*
X95841265Y-81501629D01*
X95792687Y-81461905D01*
X95745162Y-81423994D01*
X95701865Y-81390516D01*
X95693062Y-81383885D01*
X95536523Y-81273308D01*
X95378383Y-81174646D01*
X95219503Y-81088320D01*
X95060745Y-81014750D01*
X94902972Y-80954355D01*
X94747045Y-80907555D01*
X94683818Y-80892388D01*
X94588025Y-80874798D01*
X94484868Y-80862409D01*
X94378705Y-80855429D01*
X94273893Y-80854062D01*
X94174790Y-80858516D01*
X94110757Y-80865260D01*
X94051045Y-80874594D01*
X93985828Y-80886900D01*
X93920026Y-80901113D01*
X93858554Y-80916168D01*
X93806331Y-80930997D01*
X93803687Y-80931829D01*
X93776907Y-80940002D01*
X93761339Y-80943651D01*
X93754484Y-80943016D01*
X93753844Y-80938336D01*
X93754365Y-80936553D01*
X93757939Y-80925954D01*
X93765370Y-80904110D01*
X93775809Y-80873503D01*
X93788410Y-80836620D01*
X93799976Y-80802807D01*
X93814221Y-80760218D01*
X93825187Y-80728370D01*
X93835125Y-80705345D01*
X93846286Y-80689222D01*
X93860918Y-80678082D01*
X93881274Y-80670005D01*
X93909602Y-80663071D01*
X93948152Y-80655361D01*
X93980376Y-80648897D01*
X94151556Y-80620773D01*
X94321691Y-80607068D01*
X94490628Y-80607784D01*
X94658211Y-80622921D01*
X94789547Y-80645077D01*
X94952587Y-80684969D01*
X95117866Y-80738418D01*
X95284359Y-80804837D01*
X95451041Y-80883640D01*
X95616887Y-80974240D01*
X95780872Y-81076051D01*
X95941970Y-81188487D01*
X96099157Y-81310962D01*
X96251407Y-81442889D01*
X96353410Y-81539481D01*
X96455062Y-81639304D01*
X96342337Y-81749938D01*
X96195587Y-81886378D01*
X96041995Y-82014677D01*
X95882937Y-82133966D01*
X95719791Y-82243373D01*
X95553933Y-82342029D01*
X95386739Y-82429064D01*
X95219587Y-82503608D01*
X95053852Y-82564790D01*
X95052231Y-82565324D01*
X94885707Y-82613512D01*
X94720740Y-82647965D01*
X94556754Y-82668642D01*
X94393173Y-82675499D01*
X94229424Y-82668496D01*
X94064930Y-82647592D01*
X93899116Y-82612743D01*
X93731407Y-82563908D01*
X93561228Y-82501047D01*
X93439719Y-82448397D01*
X93364526Y-82412224D01*
X93284883Y-82370922D01*
X93203839Y-82326261D01*
X93124440Y-82280010D01*
X93049735Y-82233940D01*
X92982770Y-82189820D01*
X92931966Y-82153490D01*
X92905304Y-82134055D01*
X92887144Y-82123023D01*
X92874808Y-82119543D01*
X92865616Y-82122766D01*
X92858302Y-82130104D01*
X92848820Y-82138386D01*
X92829741Y-82152761D01*
X92803618Y-82171377D01*
X92773003Y-82192384D01*
X92764885Y-82197834D01*
X92597637Y-82302951D01*
X92429639Y-82395397D01*
X92261422Y-82475012D01*
X92093514Y-82541638D01*
X91926445Y-82595115D01*
X91760742Y-82635284D01*
X91596936Y-82661985D01*
X91435555Y-82675058D01*
X91277128Y-82674346D01*
X91200890Y-82668930D01*
X91031436Y-82646003D01*
X90860454Y-82608861D01*
X90688380Y-82557671D01*
X90515647Y-82492598D01*
X90342689Y-82413810D01*
X90169940Y-82321472D01*
X89997834Y-82215751D01*
X89968915Y-82196622D01*
X89859715Y-82120483D01*
X89749083Y-82037392D01*
X89640276Y-81950018D01*
X89536552Y-81861026D01*
X89441169Y-81773084D01*
X89390233Y-81722881D01*
X89306776Y-81638271D01*
X89415855Y-81531707D01*
X89566888Y-81392002D01*
X89724962Y-81260800D01*
X89888681Y-81138998D01*
X90056647Y-81027496D01*
X90227466Y-80927191D01*
X90399739Y-80838982D01*
X90572071Y-80763768D01*
X90662231Y-80729738D01*
X90668627Y-80726139D01*
X90669843Y-80719480D01*
X90665313Y-80706558D01*
X90654472Y-80684172D01*
X90654012Y-80683257D01*
X90638844Y-80650825D01*
X90620416Y-80607751D01*
X90599955Y-80557198D01*
X90578689Y-80502328D01*
X90557847Y-80446302D01*
X90538654Y-80392283D01*
X90523633Y-80347457D01*
X90474258Y-80177126D01*
X90432730Y-79997622D01*
X90399565Y-79812299D01*
X90375282Y-79624512D01*
X90360399Y-79437617D01*
X90355433Y-79257832D01*
X90355433Y-79113743D01*
X90484247Y-79113773D01*
X90656183Y-79118330D01*
X90831385Y-79131620D01*
X91007555Y-79153190D01*
X91182396Y-79182584D01*
X91353610Y-79219349D01*
X91518899Y-79263030D01*
X91675966Y-79313173D01*
X91822513Y-79369323D01*
X91861409Y-79386087D01*
X91894693Y-79400690D01*
X91923592Y-79413138D01*
X91945305Y-79422243D01*
X91957031Y-79426813D01*
X91957813Y-79427049D01*
X91964740Y-79421583D01*
X91975081Y-79403420D01*
X91988181Y-79373798D01*
X91994880Y-79356857D01*
X92070032Y-79179470D01*
X92158843Y-79002556D01*
X92260479Y-78827376D01*
X92374105Y-78655195D01*
X92498887Y-78487274D01*
X92633992Y-78324876D01*
X92778584Y-78169265D01*
X92781119Y-78166686D01*
X92881073Y-78065086D01*
X92980782Y-78166737D01*
G37*
X92980782Y-78166737D02*
X93140143Y-78339566D01*
X93289117Y-78522516D01*
X93427638Y-78715510D01*
X93451179Y-78750886D01*
X93559414Y-78925990D01*
X93653332Y-79100431D01*
X93732920Y-79274143D01*
X93798165Y-79447061D01*
X93849053Y-79619120D01*
X93885570Y-79790255D01*
X93907703Y-79960400D01*
X93915438Y-80129491D01*
X93908762Y-80297461D01*
X93887660Y-80464247D01*
X93852121Y-80629782D01*
X93846683Y-80650307D01*
X93838375Y-80681015D01*
X93767006Y-80703187D01*
X93728511Y-80715605D01*
X93687386Y-80729604D01*
X93650592Y-80742792D01*
X93639247Y-80747074D01*
X93613013Y-80756593D01*
X93592291Y-80763019D01*
X93580475Y-80765342D01*
X93579089Y-80765018D01*
X93579364Y-80756867D01*
X93583251Y-80738177D01*
X93590008Y-80712250D01*
X93594208Y-80697681D01*
X93632478Y-80546041D01*
X93656932Y-80394808D01*
X93667523Y-80243558D01*
X93664202Y-80091867D01*
X93646920Y-79939312D01*
X93615630Y-79785470D01*
X93570283Y-79629917D01*
X93510831Y-79472230D01*
X93437225Y-79311984D01*
X93435648Y-79308830D01*
X93396423Y-79232413D01*
X93359071Y-79164153D01*
X93320478Y-79098686D01*
X93277530Y-79030649D01*
X93248628Y-78986743D01*
X93179486Y-78887108D01*
X93103696Y-78785248D01*
X93024833Y-78685757D01*
X92946467Y-78593225D01*
X92915499Y-78558572D01*
X92882498Y-78522286D01*
X92866393Y-78536800D01*
X92852241Y-78551124D01*
X92830838Y-78574789D01*
X92803912Y-78605733D01*
X92773194Y-78641896D01*
X92740412Y-78681216D01*
X92707298Y-78721632D01*
X92675580Y-78761084D01*
X92646988Y-78797509D01*
X92640168Y-78806376D01*
X92571237Y-78900384D01*
X92502451Y-79001549D01*
X92437469Y-79104297D01*
X92381184Y-79200829D01*
X92359157Y-79241703D01*
X92336084Y-79286650D01*
X92312792Y-79333830D01*
X92290110Y-79381404D01*
X92268864Y-79427533D01*
X92249882Y-79470378D01*
X92233993Y-79508098D01*
X92222023Y-79538856D01*
X92214800Y-79560811D01*
X92213153Y-79572125D01*
X92213684Y-79573057D01*
X92220645Y-79577963D01*
X92236896Y-79589245D01*
X92259771Y-79605055D01*
X92278576Y-79618019D01*
X92409974Y-79717253D01*
X92532241Y-79827682D01*
X92645397Y-79949335D01*
X92749461Y-80082238D01*
X92844452Y-80226419D01*
X92930389Y-80381904D01*
X93007291Y-80548722D01*
X93075178Y-80726899D01*
X93091531Y-80775629D01*
X93105590Y-80819294D01*
X93118703Y-80861148D01*
X93129914Y-80898056D01*
X93138268Y-80926882D01*
X93142299Y-80942215D01*
X93147185Y-80965207D01*
X93147889Y-80978318D01*
X93144117Y-80985652D01*
X93138922Y-80989387D01*
X93128258Y-80996046D01*
X93108138Y-81008846D01*
X93081291Y-81026041D01*
X93050448Y-81045887D01*
X93045313Y-81049200D01*
X93015167Y-81068100D01*
X92989459Y-81083176D01*
X92970554Y-81093117D01*
X92960817Y-81096614D01*
X92960124Y-81096371D01*
X92956461Y-81087480D01*
X92950315Y-81068057D01*
X92942777Y-81041641D01*
X92939542Y-81029629D01*
X92892394Y-80871769D01*
X92836327Y-80719840D01*
X92771998Y-80575033D01*
X92700066Y-80438537D01*
X92621190Y-80311544D01*
X92536027Y-80195243D01*
X92445238Y-80090824D01*
X92389532Y-80035490D01*
X92270616Y-79933720D01*
X92140841Y-79841255D01*
X92000163Y-79758079D01*
X91848536Y-79684174D01*
X91685915Y-79619526D01*
X91512254Y-79564117D01*
X91327510Y-79517930D01*
X91131635Y-79480951D01*
X90924586Y-79453161D01*
X90737284Y-79436582D01*
X90672821Y-79432144D01*
X90677861Y-79514243D01*
X90697443Y-79734541D01*
X90728632Y-79946254D01*
X90771469Y-80149564D01*
X90825997Y-80344656D01*
X90892257Y-80531713D01*
X90927222Y-80616349D01*
X90941514Y-80649383D01*
X91038545Y-80633053D01*
X91203528Y-80612264D01*
X91368841Y-80605430D01*
X91534711Y-80612599D01*
X91701366Y-80633820D01*
X91869036Y-80669143D01*
X92037947Y-80718616D01*
X92208329Y-80782288D01*
X92380410Y-80860208D01*
X92554417Y-80952425D01*
X92570081Y-80961371D01*
X92612378Y-80986205D01*
X92657043Y-81013365D01*
X92702027Y-81041511D01*
X92745280Y-81069303D01*
X92784753Y-81095401D01*
X92818397Y-81118466D01*
X92844163Y-81137157D01*
X92860003Y-81150137D01*
X92862185Y-81152347D01*
X92868486Y-81160277D01*
X92869852Y-81167678D01*
X92865031Y-81177659D01*
X92852772Y-81193327D01*
X92839380Y-81209013D01*
X92816471Y-81237060D01*
X92792894Y-81268182D01*
X92776072Y-81292214D01*
X92748880Y-81333457D01*
X92681697Y-81286941D01*
X92543698Y-81197626D01*
X92400664Y-81116950D01*
X92254368Y-81045626D01*
X92106581Y-80984369D01*
X91959077Y-80933895D01*
X91813626Y-80894917D01*
X91672000Y-80868150D01*
X91629062Y-80862433D01*
X91572837Y-80857587D01*
X91506893Y-80854904D01*
X91435855Y-80854340D01*
X91364352Y-80855854D01*
X91297007Y-80859403D01*
X91238449Y-80864944D01*
X91229469Y-80866112D01*
X91073864Y-80894299D01*
X90916228Y-80936459D01*
X90757180Y-80992298D01*
X90597341Y-81061520D01*
X90437330Y-81143828D01*
X90277766Y-81238927D01*
X90119270Y-81346522D01*
X89962461Y-81466315D01*
X89948447Y-81477689D01*
X89912977Y-81506936D01*
X89877132Y-81537043D01*
X89844395Y-81565051D01*
X89818247Y-81587998D01*
X89811147Y-81594423D01*
X89763976Y-81637648D01*
X89782119Y-81657465D01*
X89809677Y-81685038D01*
X89847458Y-81719115D01*
X89893565Y-81758214D01*
X89946103Y-81800854D01*
X90003174Y-81845552D01*
X90062882Y-81890827D01*
X90123331Y-81935196D01*
X90182623Y-81977179D01*
X90238863Y-82015293D01*
X90246576Y-82020361D01*
X90397092Y-82113671D01*
X90543880Y-82193990D01*
X90688369Y-82261897D01*
X90831984Y-82317970D01*
X90976154Y-82362787D01*
X91122305Y-82396926D01*
X91216818Y-82413329D01*
X91271383Y-82419546D01*
X91336241Y-82423662D01*
X91407324Y-82425683D01*
X91480565Y-82425612D01*
X91551897Y-82423454D01*
X91617250Y-82419211D01*
X91672559Y-82412888D01*
X91672605Y-82412881D01*
X91828442Y-82382633D01*
X91986581Y-82338613D01*
X92146088Y-82281201D01*
X92306029Y-82210775D01*
X92465470Y-82127711D01*
X92623477Y-82032390D01*
X92641185Y-82020874D01*
X92700879Y-81979120D01*
X92748571Y-81939568D01*
X92786200Y-81900387D01*
X92815708Y-81859748D01*
X92820458Y-81851880D01*
X92844998Y-81800384D01*
X92864017Y-81741070D01*
X92875627Y-81680176D01*
X92877217Y-81664629D01*
X92882679Y-81609267D01*
X92889533Y-81564535D01*
X92898682Y-81526557D01*
X92911027Y-81491455D01*
X92924492Y-81461429D01*
X92942190Y-81428783D01*
X92963189Y-81395720D01*
X92983380Y-81368634D01*
X92986278Y-81365263D01*
X93003455Y-81348328D01*
X93027596Y-81327859D01*
X93056438Y-81305413D01*
X93087715Y-81282553D01*
X93119164Y-81260837D01*
X93148519Y-81241826D01*
X93173516Y-81227080D01*
X93191891Y-81218158D01*
X93201379Y-81216622D01*
X93201685Y-81216864D01*
X93206037Y-81228442D01*
X93209323Y-81251330D01*
X93211484Y-81282359D01*
X93212464Y-81318362D01*
X93212205Y-81356169D01*
X93210649Y-81392612D01*
X93207741Y-81424522D01*
X93205694Y-81438164D01*
X93195548Y-81494727D01*
X93211924Y-81474449D01*
X93226484Y-81454532D01*
X93246571Y-81424395D01*
X93270680Y-81386517D01*
X93297304Y-81343374D01*
X93324933Y-81297441D01*
X93352062Y-81251195D01*
X93377184Y-81207114D01*
X93398790Y-81167672D01*
X93399805Y-81165765D01*
X93450605Y-81070132D01*
X93521777Y-81038360D01*
X93554062Y-81024333D01*
X93589999Y-81009345D01*
X93627098Y-80994359D01*
X93662867Y-80980340D01*
X93694814Y-80968250D01*
X93720449Y-80959053D01*
X93737279Y-80953712D01*
X93742786Y-80952905D01*
X93741683Y-80961182D01*
X93734600Y-80980445D01*
X93722421Y-81008894D01*
X93706032Y-81044728D01*
X93686318Y-81086146D01*
X93664163Y-81131347D01*
X93640454Y-81178530D01*
X93616074Y-81225894D01*
X93591910Y-81271638D01*
X93568846Y-81313961D01*
X93547768Y-81351062D01*
X93543714Y-81357959D01*
X93492296Y-81442633D01*
X93445128Y-81515219D01*
X93400936Y-81577048D01*
X93358447Y-81629455D01*
X93316387Y-81673773D01*
X93273482Y-81711334D01*
X93228460Y-81743472D01*
X93180046Y-81771520D01*
X93126967Y-81796812D01*
X93122773Y-81798630D01*
X93093313Y-81811572D01*
X93074212Y-81821355D01*
X93062466Y-81830493D01*
X93055075Y-81841497D01*
X93049035Y-81856881D01*
X93047374Y-81861735D01*
X93037770Y-81887667D01*
X93027589Y-81911745D01*
X93023680Y-81919846D01*
X93016640Y-81935570D01*
X93017671Y-81945470D01*
X93027596Y-81956297D01*
X93028191Y-81956846D01*
X93040074Y-81966165D01*
X93061414Y-81981361D01*
X93089429Y-82000507D01*
X93121336Y-82021677D01*
X93129350Y-82026900D01*
X93292161Y-82125700D01*
X93455636Y-82211137D01*
X93619252Y-82283002D01*
X93782486Y-82341086D01*
X93944817Y-82385177D01*
X94089233Y-82412651D01*
X94140128Y-82418557D01*
X94200996Y-82422783D01*
X94267858Y-82425292D01*
X94336736Y-82426045D01*
X94403649Y-82425007D01*
X94464619Y-82422139D01*
X94515667Y-82417404D01*
X94521033Y-82416695D01*
X94683591Y-82387295D01*
X94847137Y-82343745D01*
X95010933Y-82286306D01*
X95174242Y-82215241D01*
X95336327Y-82130810D01*
X95352786Y-82121444D01*
X95443768Y-82066715D01*
X95538719Y-82004946D01*
X95634619Y-81938346D01*
X95728449Y-81869125D01*
X95817191Y-81799494D01*
X95897825Y-81731662D01*
X95950690Y-81683745D01*
X95997862Y-81639318D01*
X95961576Y-81605483D01*
X95928883Y-81576038D01*
X95887722Y-81540547D01*
X95841265Y-81501629D01*
X95792687Y-81461905D01*
X95745162Y-81423994D01*
X95701865Y-81390516D01*
X95693062Y-81383885D01*
X95536523Y-81273308D01*
X95378383Y-81174646D01*
X95219503Y-81088320D01*
X95060745Y-81014750D01*
X94902972Y-80954355D01*
X94747045Y-80907555D01*
X94683818Y-80892388D01*
X94588025Y-80874798D01*
X94484868Y-80862409D01*
X94378705Y-80855429D01*
X94273893Y-80854062D01*
X94174790Y-80858516D01*
X94110757Y-80865260D01*
X94051045Y-80874594D01*
X93985828Y-80886900D01*
X93920026Y-80901113D01*
X93858554Y-80916168D01*
X93806331Y-80930997D01*
X93803687Y-80931829D01*
X93776907Y-80940002D01*
X93761339Y-80943651D01*
X93754484Y-80943016D01*
X93753844Y-80938336D01*
X93754365Y-80936553D01*
X93757939Y-80925954D01*
X93765370Y-80904110D01*
X93775809Y-80873503D01*
X93788410Y-80836620D01*
X93799976Y-80802807D01*
X93814221Y-80760218D01*
X93825187Y-80728370D01*
X93835125Y-80705345D01*
X93846286Y-80689222D01*
X93860918Y-80678082D01*
X93881274Y-80670005D01*
X93909602Y-80663071D01*
X93948152Y-80655361D01*
X93980376Y-80648897D01*
X94151556Y-80620773D01*
X94321691Y-80607068D01*
X94490628Y-80607784D01*
X94658211Y-80622921D01*
X94789547Y-80645077D01*
X94952587Y-80684969D01*
X95117866Y-80738418D01*
X95284359Y-80804837D01*
X95451041Y-80883640D01*
X95616887Y-80974240D01*
X95780872Y-81076051D01*
X95941970Y-81188487D01*
X96099157Y-81310962D01*
X96251407Y-81442889D01*
X96353410Y-81539481D01*
X96455062Y-81639304D01*
X96342337Y-81749938D01*
X96195587Y-81886378D01*
X96041995Y-82014677D01*
X95882937Y-82133966D01*
X95719791Y-82243373D01*
X95553933Y-82342029D01*
X95386739Y-82429064D01*
X95219587Y-82503608D01*
X95053852Y-82564790D01*
X95052231Y-82565324D01*
X94885707Y-82613512D01*
X94720740Y-82647965D01*
X94556754Y-82668642D01*
X94393173Y-82675499D01*
X94229424Y-82668496D01*
X94064930Y-82647592D01*
X93899116Y-82612743D01*
X93731407Y-82563908D01*
X93561228Y-82501047D01*
X93439719Y-82448397D01*
X93364526Y-82412224D01*
X93284883Y-82370922D01*
X93203839Y-82326261D01*
X93124440Y-82280010D01*
X93049735Y-82233940D01*
X92982770Y-82189820D01*
X92931966Y-82153490D01*
X92905304Y-82134055D01*
X92887144Y-82123023D01*
X92874808Y-82119543D01*
X92865616Y-82122766D01*
X92858302Y-82130104D01*
X92848820Y-82138386D01*
X92829741Y-82152761D01*
X92803618Y-82171377D01*
X92773003Y-82192384D01*
X92764885Y-82197834D01*
X92597637Y-82302951D01*
X92429639Y-82395397D01*
X92261422Y-82475012D01*
X92093514Y-82541638D01*
X91926445Y-82595115D01*
X91760742Y-82635284D01*
X91596936Y-82661985D01*
X91435555Y-82675058D01*
X91277128Y-82674346D01*
X91200890Y-82668930D01*
X91031436Y-82646003D01*
X90860454Y-82608861D01*
X90688380Y-82557671D01*
X90515647Y-82492598D01*
X90342689Y-82413810D01*
X90169940Y-82321472D01*
X89997834Y-82215751D01*
X89968915Y-82196622D01*
X89859715Y-82120483D01*
X89749083Y-82037392D01*
X89640276Y-81950018D01*
X89536552Y-81861026D01*
X89441169Y-81773084D01*
X89390233Y-81722881D01*
X89306776Y-81638271D01*
X89415855Y-81531707D01*
X89566888Y-81392002D01*
X89724962Y-81260800D01*
X89888681Y-81138998D01*
X90056647Y-81027496D01*
X90227466Y-80927191D01*
X90399739Y-80838982D01*
X90572071Y-80763768D01*
X90662231Y-80729738D01*
X90668627Y-80726139D01*
X90669843Y-80719480D01*
X90665313Y-80706558D01*
X90654472Y-80684172D01*
X90654012Y-80683257D01*
X90638844Y-80650825D01*
X90620416Y-80607751D01*
X90599955Y-80557198D01*
X90578689Y-80502328D01*
X90557847Y-80446302D01*
X90538654Y-80392283D01*
X90523633Y-80347457D01*
X90474258Y-80177126D01*
X90432730Y-79997622D01*
X90399565Y-79812299D01*
X90375282Y-79624512D01*
X90360399Y-79437617D01*
X90355433Y-79257832D01*
X90355433Y-79113743D01*
X90484247Y-79113773D01*
X90656183Y-79118330D01*
X90831385Y-79131620D01*
X91007555Y-79153190D01*
X91182396Y-79182584D01*
X91353610Y-79219349D01*
X91518899Y-79263030D01*
X91675966Y-79313173D01*
X91822513Y-79369323D01*
X91861409Y-79386087D01*
X91894693Y-79400690D01*
X91923592Y-79413138D01*
X91945305Y-79422243D01*
X91957031Y-79426813D01*
X91957813Y-79427049D01*
X91964740Y-79421583D01*
X91975081Y-79403420D01*
X91988181Y-79373798D01*
X91994880Y-79356857D01*
X92070032Y-79179470D01*
X92158843Y-79002556D01*
X92260479Y-78827376D01*
X92374105Y-78655195D01*
X92498887Y-78487274D01*
X92633992Y-78324876D01*
X92778584Y-78169265D01*
X92781119Y-78166686D01*
X92881073Y-78065086D01*
X92980782Y-78166737D01*
D10*
X152500000Y-66196000D02*
X156110000Y-66196000D01*
X152500000Y-70150000D02*
X152500000Y-66205000D01*
X163400000Y-72104000D02*
X154775000Y-72104000D01*
X163400000Y-68196000D02*
X163400000Y-72104000D01*
X163400000Y-68150000D02*
X158350000Y-68104000D01*
X156114999Y-66220001D02*
G75*
G03*
X158375000Y-68100000I2070000J190001D01*
G01*
X152511000Y-70220000D02*
G75*
G03*
X154775000Y-72104000I2074000J190000D01*
G01*
X114400000Y-69996000D02*
X118010000Y-69996000D01*
X114400000Y-73950000D02*
X114400000Y-70005000D01*
X125300000Y-75904000D02*
X116675000Y-75904000D01*
X125300000Y-71996000D02*
X125300000Y-75904000D01*
X125300000Y-71950000D02*
X120250000Y-71904000D01*
X118014999Y-70020001D02*
G75*
G03*
X120275000Y-71900000I2070000J190001D01*
G01*
X114411000Y-74020000D02*
G75*
G03*
X116675000Y-75904000I2074000J190000D01*
G01*
X144300000Y-50450000D02*
X139250000Y-50404000D01*
X144300000Y-50496000D02*
X144300000Y-54404000D01*
X144300000Y-54404000D02*
X135675000Y-54404000D01*
X133400000Y-52450000D02*
X133400000Y-48505000D01*
X133400000Y-48496000D02*
X137010000Y-48496000D01*
X133411000Y-52520000D02*
G75*
G03*
X135675000Y-54404000I2074000J190000D01*
G01*
X137014999Y-48520001D02*
G75*
G03*
X139275000Y-50400000I2070000J190001D01*
G01*
X171500000Y-48496000D02*
X175110000Y-48496000D01*
X171500000Y-52450000D02*
X171500000Y-48505000D01*
X182400000Y-54404000D02*
X173775000Y-54404000D01*
X182400000Y-50496000D02*
X182400000Y-54404000D01*
X182400000Y-50450000D02*
X177350000Y-50404000D01*
X175114999Y-48520001D02*
G75*
G03*
X177375000Y-50400000I2070000J190001D01*
G01*
X171511000Y-52520000D02*
G75*
G03*
X173775000Y-54404000I2074000J190000D01*
G01*
X114400000Y-50896000D02*
X118010000Y-50896000D01*
X114400000Y-54850000D02*
X114400000Y-50905000D01*
X125300000Y-56804000D02*
X116675000Y-56804000D01*
X125300000Y-52896000D02*
X125300000Y-56804000D01*
X125300000Y-52850000D02*
X120250000Y-52804000D01*
X118014999Y-50920001D02*
G75*
G03*
X120275000Y-52800000I2070000J190001D01*
G01*
X114411000Y-54920000D02*
G75*
G03*
X116675000Y-56804000I2074000J190000D01*
G01*
X220550000Y-113850000D02*
X215500000Y-113804000D01*
X220550000Y-113896000D02*
X220550000Y-117804000D01*
X220550000Y-117804000D02*
X211925000Y-117804000D01*
X209650000Y-115850000D02*
X209650000Y-111905000D01*
X209650000Y-111896000D02*
X213260000Y-111896000D01*
X209661000Y-115920000D02*
G75*
G03*
X211925000Y-117804000I2074000J190000D01*
G01*
X213264999Y-111920001D02*
G75*
G03*
X215525000Y-113800000I2070000J190001D01*
G01*
X133400000Y-105696000D02*
X137010000Y-105696000D01*
X133400000Y-109650000D02*
X133400000Y-105705000D01*
X144300000Y-111604000D02*
X135675000Y-111604000D01*
X144300000Y-107696000D02*
X144300000Y-111604000D01*
X144300000Y-107650000D02*
X139250000Y-107604000D01*
X137014999Y-105720001D02*
G75*
G03*
X139275000Y-107600000I2070000J190001D01*
G01*
X133411000Y-109720000D02*
G75*
G03*
X135675000Y-111604000I2074000J190000D01*
G01*
X125300000Y-109950000D02*
X120250000Y-109904000D01*
X125300000Y-109996000D02*
X125300000Y-113904000D01*
X125300000Y-113904000D02*
X116675000Y-113904000D01*
X114400000Y-111950000D02*
X114400000Y-108005000D01*
X114400000Y-107996000D02*
X118010000Y-107996000D01*
X114411000Y-112020000D02*
G75*
G03*
X116675000Y-113904000I2074000J190000D01*
G01*
X118014999Y-108020001D02*
G75*
G03*
X120275000Y-109900000I2070000J190001D01*
G01*
X152400000Y-77781000D02*
X151700000Y-78681000D01*
X151700000Y-78681000D02*
X153100000Y-78681000D01*
X153100000Y-78681000D02*
X152400000Y-77781000D01*
X151700000Y-77781000D02*
X153100000Y-77781000D01*
X154113000Y-77781000D02*
X155513000Y-77781000D01*
X155513000Y-78681000D02*
X154813000Y-77781000D01*
X154113000Y-78681000D02*
X155513000Y-78681000D01*
X154813000Y-77781000D02*
X154113000Y-78681000D01*
X157226000Y-77781000D02*
X156526000Y-78681000D01*
X156526000Y-78681000D02*
X157926000Y-78681000D01*
X157926000Y-78681000D02*
X157226000Y-77781000D01*
X156526000Y-77781000D02*
X157926000Y-77781000D01*
X158939000Y-77781000D02*
X160339000Y-77781000D01*
X160339000Y-78681000D02*
X159639000Y-77781000D01*
X158939000Y-78681000D02*
X160339000Y-78681000D01*
X159639000Y-77781000D02*
X158939000Y-78681000D01*
X162052000Y-77781000D02*
X161352000Y-78681000D01*
X161352000Y-78681000D02*
X162752000Y-78681000D01*
X162752000Y-78681000D02*
X162052000Y-77781000D01*
X161352000Y-77781000D02*
X162752000Y-77781000D01*
X163765000Y-77781000D02*
X165165000Y-77781000D01*
X165165000Y-78681000D02*
X164465000Y-77781000D01*
X163765000Y-78681000D02*
X165165000Y-78681000D01*
X164465000Y-77781000D02*
X163765000Y-78681000D01*
X152527000Y-96704000D02*
X151827000Y-97604000D01*
X151827000Y-97604000D02*
X153227000Y-97604000D01*
X153227000Y-97604000D02*
X152527000Y-96704000D01*
X151827000Y-96704000D02*
X153227000Y-96704000D01*
X154240000Y-96704000D02*
X155640000Y-96704000D01*
X155640000Y-97604000D02*
X154940000Y-96704000D01*
X154240000Y-97604000D02*
X155640000Y-97604000D01*
X154940000Y-96704000D02*
X154240000Y-97604000D01*
X157353000Y-96704000D02*
X156653000Y-97604000D01*
X156653000Y-97604000D02*
X158053000Y-97604000D01*
X158053000Y-97604000D02*
X157353000Y-96704000D01*
X156653000Y-96704000D02*
X158053000Y-96704000D01*
X159066000Y-96704000D02*
X160466000Y-96704000D01*
X160466000Y-97604000D02*
X159766000Y-96704000D01*
X159066000Y-97604000D02*
X160466000Y-97604000D01*
X159766000Y-96704000D02*
X159066000Y-97604000D01*
X162179000Y-96704000D02*
X161479000Y-97604000D01*
X161479000Y-97604000D02*
X162879000Y-97604000D01*
X162879000Y-97604000D02*
X162179000Y-96704000D01*
X161479000Y-96704000D02*
X162879000Y-96704000D01*
X164019000Y-96704000D02*
X165419000Y-96704000D01*
X165419000Y-97604000D02*
X164719000Y-96704000D01*
X164019000Y-97604000D02*
X165419000Y-97604000D01*
X164719000Y-96704000D02*
X164019000Y-97604000D01*
X171500000Y-105696000D02*
X175110000Y-105696000D01*
X171500000Y-109650000D02*
X171500000Y-105705000D01*
X182400000Y-111604000D02*
X173775000Y-111604000D01*
X182400000Y-107696000D02*
X182400000Y-111604000D01*
X182400000Y-107650000D02*
X177350000Y-107604000D01*
X175114999Y-105720001D02*
G75*
G03*
X177375000Y-107600000I2070000J190001D01*
G01*
X171511000Y-109720000D02*
G75*
G03*
X173775000Y-111604000I2074000J190000D01*
G01*
X151700000Y-57363000D02*
X153100000Y-57363000D01*
X153100000Y-58263000D02*
X152400000Y-57363000D01*
X151700000Y-58263000D02*
X153100000Y-58263000D01*
X152400000Y-57363000D02*
X151700000Y-58263000D01*
X154813000Y-57363000D02*
X154113000Y-58263000D01*
X154113000Y-58263000D02*
X155513000Y-58263000D01*
X155513000Y-58263000D02*
X154813000Y-57363000D01*
X154113000Y-57363000D02*
X155513000Y-57363000D01*
X156526000Y-57363000D02*
X157926000Y-57363000D01*
X157926000Y-58263000D02*
X157226000Y-57363000D01*
X156526000Y-58263000D02*
X157926000Y-58263000D01*
X157226000Y-57363000D02*
X156526000Y-58263000D01*
X159639000Y-57363000D02*
X158939000Y-58263000D01*
X158939000Y-58263000D02*
X160339000Y-58263000D01*
X160339000Y-58263000D02*
X159639000Y-57363000D01*
X158939000Y-57363000D02*
X160339000Y-57363000D01*
X161352000Y-57363000D02*
X162752000Y-57363000D01*
X162752000Y-58263000D02*
X162052000Y-57363000D01*
X161352000Y-58263000D02*
X162752000Y-58263000D01*
X162052000Y-57363000D02*
X161352000Y-58263000D01*
X164465000Y-57363000D02*
X163765000Y-58263000D01*
X163765000Y-58263000D02*
X165165000Y-58263000D01*
X165165000Y-58263000D02*
X164465000Y-57363000D01*
X163765000Y-57363000D02*
X165165000Y-57363000D01*
X220500000Y-75650000D02*
X215450000Y-75604000D01*
X220500000Y-75696000D02*
X220500000Y-79604000D01*
X220500000Y-79604000D02*
X211875000Y-79604000D01*
X209600000Y-77650000D02*
X209600000Y-73705000D01*
X209600000Y-73696000D02*
X213210000Y-73696000D01*
X209611000Y-77720000D02*
G75*
G03*
X211875000Y-79604000I2074000J190000D01*
G01*
X213214999Y-73720001D02*
G75*
G03*
X215475000Y-75600000I2070000J190001D01*
G01*
X182400000Y-69450000D02*
X177350000Y-69404000D01*
X182400000Y-69496000D02*
X182400000Y-73404000D01*
X182400000Y-73404000D02*
X173775000Y-73404000D01*
X171500000Y-71450000D02*
X171500000Y-67505000D01*
X171500000Y-67496000D02*
X175110000Y-67496000D01*
X171511000Y-71520000D02*
G75*
G03*
X173775000Y-73404000I2074000J190000D01*
G01*
X175114999Y-67520001D02*
G75*
G03*
X177375000Y-69400000I2070000J190001D01*
G01*
X201500000Y-55250000D02*
X196450000Y-55204000D01*
X201500000Y-55296000D02*
X201500000Y-59204000D01*
X201500000Y-59204000D02*
X192875000Y-59204000D01*
X190600000Y-57250000D02*
X190600000Y-53305000D01*
X190600000Y-53296000D02*
X194210000Y-53296000D01*
X190611000Y-57320000D02*
G75*
G03*
X192875000Y-59204000I2074000J190000D01*
G01*
X194214999Y-53320001D02*
G75*
G03*
X196475000Y-55200000I2070000J190001D01*
G01*
X107448815Y-71635745D02*
X109988815Y-71635745D01*
X94748815Y-41155745D02*
X92208815Y-41155745D01*
X92208815Y-41155745D02*
X92208815Y-71635745D01*
X92208815Y-38615745D02*
X92208815Y-71635745D01*
X109988815Y-38615745D02*
X92208815Y-38615745D01*
X92208815Y-71635745D02*
X94748815Y-71635745D01*
X109988815Y-41155745D02*
X107448815Y-41155745D01*
X109988815Y-71635745D02*
X109988815Y-38615745D01*
X107448815Y-41155745D02*
X107448815Y-71635745D01*
X94748815Y-71635745D02*
X94748815Y-41155745D01*
X109988815Y-71635745D02*
X109988815Y-41155745D01*
X151827000Y-40599000D02*
X153227000Y-40599000D01*
X153227000Y-41499000D02*
X152527000Y-40599000D01*
X151827000Y-41499000D02*
X153227000Y-41499000D01*
X152527000Y-40599000D02*
X151827000Y-41499000D01*
X154940000Y-40599000D02*
X154240000Y-41499000D01*
X154240000Y-41499000D02*
X155640000Y-41499000D01*
X155640000Y-41499000D02*
X154940000Y-40599000D01*
X154240000Y-40599000D02*
X155640000Y-40599000D01*
X159766000Y-40599000D02*
X159066000Y-41499000D01*
X159066000Y-41499000D02*
X160466000Y-41499000D01*
X160466000Y-41499000D02*
X159766000Y-40599000D01*
X159066000Y-40599000D02*
X160466000Y-40599000D01*
X161479000Y-40599000D02*
X162879000Y-40599000D01*
X162879000Y-41499000D02*
X162179000Y-40599000D01*
X161479000Y-41499000D02*
X162879000Y-41499000D01*
X162179000Y-40599000D02*
X161479000Y-41499000D01*
X164592000Y-40599000D02*
X163892000Y-41499000D01*
X163892000Y-41499000D02*
X165292000Y-41499000D01*
X165292000Y-41499000D02*
X164592000Y-40599000D01*
X163892000Y-40599000D02*
X165292000Y-40599000D01*
X156653000Y-40599000D02*
X158053000Y-40599000D01*
X158053000Y-41499000D02*
X157353000Y-40599000D01*
X156653000Y-41499000D02*
X158053000Y-41499000D01*
X157353000Y-40599000D02*
X156653000Y-41499000D01*
X163400000Y-49060000D02*
X158350000Y-49014000D01*
X163400000Y-49106000D02*
X163400000Y-53014000D01*
X163400000Y-53014000D02*
X154775000Y-53014000D01*
X152500000Y-51060000D02*
X152500000Y-47115000D01*
X152500000Y-47106000D02*
X156110000Y-47106000D01*
X152511000Y-51130000D02*
G75*
G03*
X154775000Y-53014000I2074000J190000D01*
G01*
X156114999Y-47130001D02*
G75*
G03*
X158375000Y-49010000I2070000J190001D01*
G01*
D12*
X87883800Y-80328500D02*
X86433800Y-80328500D01*
X87883800Y-77878500D02*
X87883800Y-80298500D01*
X86433800Y-77878500D02*
X87883800Y-77878500D01*
X86433800Y-80328500D02*
X86433800Y-77878500D01*
D10*
X172900000Y-126600000D02*
X167850000Y-126554000D01*
X172900000Y-126646000D02*
X172900000Y-130554000D01*
X172900000Y-130554000D02*
X164275000Y-130554000D01*
X162000000Y-128600000D02*
X162000000Y-124655000D01*
X162000000Y-124646000D02*
X165610000Y-124646000D01*
X162011000Y-128670000D02*
G75*
G03*
X164275000Y-130554000I2074000J190000D01*
G01*
X165614999Y-124670001D02*
G75*
G03*
X167875000Y-126550000I2070000J190001D01*
G01*
X106200000Y-100350000D02*
X101150000Y-100304000D01*
X106200000Y-100396000D02*
X106200000Y-104304000D01*
X106200000Y-104304000D02*
X97575000Y-104304000D01*
X95300000Y-102350000D02*
X95300000Y-98405000D01*
X95300000Y-98396000D02*
X98910000Y-98396000D01*
X95311000Y-102420000D02*
G75*
G03*
X97575000Y-104304000I2074000J190000D01*
G01*
X98914999Y-98420001D02*
G75*
G03*
X101175000Y-100300000I2070000J190001D01*
G01*
X220500000Y-56750000D02*
X215450000Y-56704000D01*
X220500000Y-56796000D02*
X220500000Y-60704000D01*
X220500000Y-60704000D02*
X211875000Y-60704000D01*
X209600000Y-58750000D02*
X209600000Y-54805000D01*
X209600000Y-54796000D02*
X213210000Y-54796000D01*
X209611000Y-58820000D02*
G75*
G03*
X211875000Y-60704000I2074000J190000D01*
G01*
X213214999Y-54820001D02*
G75*
G03*
X215475000Y-56700000I2070000J190001D01*
G01*
X114400000Y-88996000D02*
X118010000Y-88996000D01*
X114400000Y-92950000D02*
X114400000Y-89005000D01*
X125300000Y-94904000D02*
X116675000Y-94904000D01*
X125300000Y-90996000D02*
X125300000Y-94904000D01*
X125300000Y-90950000D02*
X120250000Y-90904000D01*
X118014999Y-89020001D02*
G75*
G03*
X120275000Y-90900000I2070000J190001D01*
G01*
X114411000Y-93020000D02*
G75*
G03*
X116675000Y-94904000I2074000J190000D01*
G01*
X144300000Y-69550000D02*
X139250000Y-69504000D01*
X144300000Y-69596000D02*
X144300000Y-73504000D01*
X144300000Y-73504000D02*
X135675000Y-73504000D01*
X133400000Y-71550000D02*
X133400000Y-67605000D01*
X133400000Y-67596000D02*
X137010000Y-67596000D01*
X133411000Y-71620000D02*
G75*
G03*
X135675000Y-73504000I2074000J190000D01*
G01*
X137014999Y-67620001D02*
G75*
G03*
X139275000Y-69500000I2070000J190001D01*
G01*
X190600000Y-72196000D02*
X194210000Y-72196000D01*
X190600000Y-76150000D02*
X190600000Y-72205000D01*
X201500000Y-78104000D02*
X192875000Y-78104000D01*
X201500000Y-74196000D02*
X201500000Y-78104000D01*
X201500000Y-74150000D02*
X196450000Y-74104000D01*
X194214999Y-72220001D02*
G75*
G03*
X196475000Y-74100000I2070000J190001D01*
G01*
X190611000Y-76220000D02*
G75*
G03*
X192875000Y-78104000I2074000J190000D01*
G01*
X104931828Y-132581922D02*
X102446665Y-128185494D01*
X104891990Y-132604922D02*
X101507563Y-134558922D01*
X101507563Y-134558922D02*
X97195063Y-127089453D01*
X97749777Y-124142245D02*
X101166247Y-122169745D01*
X101174041Y-122165245D02*
X102979041Y-125291597D01*
X97694655Y-124186771D02*
G75*
G03*
X97195063Y-127089453I1201545J-1701137D01*
G01*
X102960756Y-125307927D02*
G75*
G03*
X102462629Y-128205144I1199545J-1697672D01*
G01*
X123900000Y-126896000D02*
X127510000Y-126896000D01*
X123900000Y-130850000D02*
X123900000Y-126905000D01*
X134800000Y-132804000D02*
X126175000Y-132804000D01*
X134800000Y-128896000D02*
X134800000Y-132804000D01*
X134800000Y-128850000D02*
X129750000Y-128804000D01*
X127514999Y-126920001D02*
G75*
G03*
X129775000Y-128800000I2070000J190001D01*
G01*
X123911000Y-130920000D02*
G75*
G03*
X126175000Y-132804000I2074000J190000D01*
G01*
X171500000Y-86596000D02*
X175110000Y-86596000D01*
X171500000Y-90550000D02*
X171500000Y-86605000D01*
X182400000Y-92504000D02*
X173775000Y-92504000D01*
X182400000Y-88596000D02*
X182400000Y-92504000D01*
X182400000Y-88550000D02*
X177350000Y-88504000D01*
X175114999Y-86620001D02*
G75*
G03*
X177375000Y-88500000I2070000J190001D01*
G01*
X171511000Y-90620000D02*
G75*
G03*
X173775000Y-92504000I2074000J190000D01*
G01*
X163400000Y-87250000D02*
X158350000Y-87204000D01*
X163400000Y-87296000D02*
X163400000Y-91204000D01*
X163400000Y-91204000D02*
X154775000Y-91204000D01*
X152500000Y-89250000D02*
X152500000Y-85305000D01*
X152500000Y-85296000D02*
X156110000Y-85296000D01*
X152511000Y-89320000D02*
G75*
G03*
X154775000Y-91204000I2074000J190000D01*
G01*
X156114999Y-85320001D02*
G75*
G03*
X158375000Y-87200000I2070000J190001D01*
G01*
X201500000Y-93350000D02*
X196450000Y-93304000D01*
X201500000Y-93396000D02*
X201500000Y-97304000D01*
X201500000Y-97304000D02*
X192875000Y-97304000D01*
X190600000Y-95350000D02*
X190600000Y-91405000D01*
X190600000Y-91396000D02*
X194210000Y-91396000D01*
X190611000Y-95420000D02*
G75*
G03*
X192875000Y-97304000I2074000J190000D01*
G01*
X194214999Y-91420001D02*
G75*
G03*
X196475000Y-93300000I2070000J190001D01*
G01*
X209600000Y-92896000D02*
X213210000Y-92896000D01*
X209600000Y-96850000D02*
X209600000Y-92905000D01*
X220500000Y-98804000D02*
X211875000Y-98804000D01*
X220500000Y-94896000D02*
X220500000Y-98804000D01*
X220500000Y-94850000D02*
X215450000Y-94804000D01*
X213214999Y-92920001D02*
G75*
G03*
X215475000Y-94800000I2070000J190001D01*
G01*
X209611000Y-96920000D02*
G75*
G03*
X211875000Y-98804000I2074000J190000D01*
G01*
X112406000Y-78116000D02*
X110606000Y-78116000D01*
X112406000Y-83216000D02*
X110606000Y-83216000D01*
X110606000Y-83216000D02*
X110606000Y-81416000D01*
X110606000Y-81416000D02*
X112406000Y-81416000D01*
X112406000Y-81416000D02*
X112406000Y-83216000D01*
X112406000Y-80716000D02*
X110606000Y-80716000D01*
X110606000Y-78916000D02*
X112406000Y-78916000D01*
X110606000Y-80716000D02*
X110606000Y-78916000D01*
X112406000Y-80716000D02*
X112406000Y-78916000D01*
X110606000Y-78116000D02*
X110606000Y-76316000D01*
X110606000Y-76316000D02*
X112406000Y-76316000D01*
X112406000Y-78116000D02*
X112406000Y-76316000D01*
X85400000Y-37400000D02*
X90400000Y-37400000D01*
X90900000Y-39300000D02*
X90400000Y-39300000D01*
X85400000Y-39300000D02*
X85400000Y-37400000D01*
X90400000Y-39300000D02*
X90400000Y-37400000D01*
X84900000Y-39300000D02*
X85400000Y-39300000D01*
X90900000Y-39300000D02*
X90900000Y-51300000D01*
X90900000Y-51300000D02*
X84900000Y-51300000D01*
X84900000Y-51300000D02*
X84900000Y-39300000D01*
X95430000Y-75870000D02*
X105590000Y-75870000D01*
X95430000Y-73330000D02*
X105590000Y-73330000D01*
X105590000Y-73330000D02*
X105590000Y-75870000D01*
X95430000Y-75870000D02*
X95430000Y-73330000D01*
X105189000Y-70443000D02*
X103411000Y-70443000D01*
X105189000Y-68157000D02*
X105189000Y-70443000D01*
X103411000Y-68157000D02*
X105189000Y-68157000D01*
X103411000Y-70443000D02*
X103411000Y-68157000D01*
X102589000Y-70443000D02*
X100811000Y-70443000D01*
X102589000Y-68157000D02*
X102589000Y-70443000D01*
X100811000Y-68157000D02*
X102589000Y-68157000D01*
X100811000Y-70443000D02*
X100811000Y-68157000D01*
X100089000Y-70443000D02*
X98311000Y-70443000D01*
X100089000Y-68157000D02*
X100089000Y-70443000D01*
X98311000Y-68157000D02*
X100089000Y-68157000D01*
X98311000Y-70443000D02*
X98311000Y-68157000D01*
X97589000Y-70443000D02*
X95811000Y-70443000D01*
X97589000Y-68157000D02*
X97589000Y-70443000D01*
X95811000Y-68157000D02*
X97589000Y-68157000D01*
X95811000Y-70443000D02*
X95811000Y-68157000D01*
X85700000Y-61700000D02*
X85700000Y-59700000D01*
X85700000Y-59700000D02*
X83700000Y-59700000D01*
X83700000Y-59700000D02*
X83700000Y-61700000D01*
X83700000Y-61700000D02*
X85700000Y-61700000D01*
X85900000Y-61700000D02*
X87900000Y-61700000D01*
X85900000Y-59700000D02*
X85900000Y-61700000D01*
X87900000Y-59700000D02*
X85900000Y-59700000D01*
X87900000Y-61700000D02*
X87900000Y-59700000D01*
X85688795Y-57540412D02*
X85688795Y-54538132D01*
X83687275Y-57540412D02*
X85688795Y-57540412D01*
X83687275Y-54538132D02*
X83687275Y-57540412D01*
X85688795Y-54538132D02*
X83687275Y-54538132D01*
X87938795Y-54538132D02*
X85937275Y-54538132D01*
X85937275Y-54538132D02*
X85937275Y-57540412D01*
X85937275Y-57540412D02*
X87938795Y-57540412D01*
X87938795Y-57540412D02*
X87938795Y-54538132D01*
X83200000Y-64700000D02*
X83200000Y-70700000D01*
X86700000Y-70700000D02*
X86700000Y-64700000D01*
X83200000Y-64700000D02*
X83900000Y-64700000D01*
X86700000Y-64700000D02*
X86100000Y-64700000D01*
X86700000Y-70700000D02*
X86100000Y-70700000D01*
X83200000Y-70700000D02*
X83900000Y-70700000D01*
X133400000Y-86596000D02*
X137010000Y-86596000D01*
X133400000Y-90550000D02*
X133400000Y-86605000D01*
X144300000Y-92504000D02*
X135675000Y-92504000D01*
X144300000Y-88596000D02*
X144300000Y-92504000D01*
X144300000Y-88550000D02*
X139250000Y-88504000D01*
X137014999Y-86620001D02*
G75*
G03*
X139275000Y-88500000I2070000J190001D01*
G01*
X133411000Y-90620000D02*
G75*
G03*
X135675000Y-92504000I2074000J190000D01*
G01*
X163400000Y-106250000D02*
X158350000Y-106204000D01*
X163400000Y-106296000D02*
X163400000Y-110204000D01*
X163400000Y-110204000D02*
X154775000Y-110204000D01*
X152500000Y-108250000D02*
X152500000Y-104305000D01*
X152500000Y-104296000D02*
X156110000Y-104296000D01*
X152511000Y-108320000D02*
G75*
G03*
X154775000Y-110204000I2074000J190000D01*
G01*
X156114999Y-104320001D02*
G75*
G03*
X158375000Y-106200000I2070000J190001D01*
G01*
X201500000Y-112350000D02*
X196450000Y-112304000D01*
X201500000Y-112396000D02*
X201500000Y-116304000D01*
X201500000Y-116304000D02*
X192875000Y-116304000D01*
X190600000Y-114350000D02*
X190600000Y-110405000D01*
X190600000Y-110396000D02*
X194210000Y-110396000D01*
X190611000Y-114420000D02*
G75*
G03*
X192875000Y-116304000I2074000J190000D01*
G01*
X194214999Y-110420001D02*
G75*
G03*
X196475000Y-112300000I2070000J190001D01*
G01*
X153800000Y-126600000D02*
X148750000Y-126554000D01*
X153800000Y-126646000D02*
X153800000Y-130554000D01*
X153800000Y-130554000D02*
X145175000Y-130554000D01*
X142900000Y-128600000D02*
X142900000Y-124655000D01*
X142900000Y-124646000D02*
X146510000Y-124646000D01*
X142911000Y-128670000D02*
G75*
G03*
X145175000Y-130554000I2074000J190000D01*
G01*
X146514999Y-124670001D02*
G75*
G03*
X148775000Y-126550000I2070000J190001D01*
G01*
X89889000Y-61843000D02*
X88111000Y-61843000D01*
X89889000Y-59557000D02*
X89889000Y-61843000D01*
X88111000Y-59557000D02*
X89889000Y-59557000D01*
X88111000Y-61843000D02*
X88111000Y-59557000D01*
D13*
X104400000Y-98000000D02*
G75*
G03*
X104400000Y-98000000I-3000000J0D01*
G01*
X107300000Y-100000000D02*
X107300000Y-104100000D01*
X95500000Y-104100000D02*
X95500000Y-100000000D01*
X95500000Y-100000000D02*
X95500000Y-91900000D01*
X107300000Y-100000000D02*
X107300000Y-91900000D01*
X107300000Y-91900000D02*
X95500000Y-91900000D01*
X107300000Y-104100000D02*
X104900000Y-104100000D01*
X102700000Y-104100000D02*
X100100000Y-104100000D01*
X97900000Y-104100000D02*
X95500000Y-104100000D01*
X101900000Y-98000000D02*
X100900000Y-98000000D01*
X101400000Y-97500000D02*
X101400000Y-98500000D01*
D10*
X152843000Y-116135000D02*
X154243000Y-116135000D01*
X154243000Y-117035000D02*
X153543000Y-116135000D01*
X152843000Y-117035000D02*
X154243000Y-117035000D01*
X153543000Y-116135000D02*
X152843000Y-117035000D01*
X156083000Y-116164000D02*
X155383000Y-117064000D01*
X155383000Y-117064000D02*
X156783000Y-117064000D01*
X156783000Y-117064000D02*
X156083000Y-116164000D01*
X155383000Y-116164000D02*
X156783000Y-116164000D01*
X157796000Y-116164000D02*
X159196000Y-116164000D01*
X159196000Y-117064000D02*
X158496000Y-116164000D01*
X157796000Y-117064000D02*
X159196000Y-117064000D01*
X158496000Y-116164000D02*
X157796000Y-117064000D01*
X160909000Y-116164000D02*
X160209000Y-117064000D01*
X160209000Y-117064000D02*
X161609000Y-117064000D01*
X161609000Y-117064000D02*
X160909000Y-116164000D01*
X160209000Y-116164000D02*
X161609000Y-116164000D01*
X163322000Y-116164000D02*
X162622000Y-117064000D01*
X162622000Y-117064000D02*
X164022000Y-117064000D01*
X164022000Y-117064000D02*
X163322000Y-116164000D01*
X162622000Y-116164000D02*
X164022000Y-116164000D01*
D13*
X171100000Y-124250000D02*
G75*
G03*
X171100000Y-124250000I-3000000J0D01*
G01*
X174000000Y-126250000D02*
X174000000Y-130350000D01*
X162200000Y-130350000D02*
X162200000Y-126250000D01*
X162200000Y-126250000D02*
X162200000Y-118150000D01*
X174000000Y-126250000D02*
X174000000Y-118150000D01*
X174000000Y-118150000D02*
X162200000Y-118150000D01*
X174000000Y-130350000D02*
X171600000Y-130350000D01*
X169400000Y-130350000D02*
X166800000Y-130350000D01*
X164600000Y-130350000D02*
X162200000Y-130350000D01*
X168600000Y-124250000D02*
X167600000Y-124250000D01*
X168100000Y-123750000D02*
X168100000Y-124750000D01*
X218700000Y-54400000D02*
G75*
G03*
X218700000Y-54400000I-3000000J0D01*
G01*
X221600000Y-56400000D02*
X221600000Y-60500000D01*
X209800000Y-60500000D02*
X209800000Y-56400000D01*
X209800000Y-56400000D02*
X209800000Y-48300000D01*
X221600000Y-56400000D02*
X221600000Y-48300000D01*
X221600000Y-48300000D02*
X209800000Y-48300000D01*
X221600000Y-60500000D02*
X219200000Y-60500000D01*
X217000000Y-60500000D02*
X214400000Y-60500000D01*
X212200000Y-60500000D02*
X209800000Y-60500000D01*
X216200000Y-54400000D02*
X215200000Y-54400000D01*
X215700000Y-53900000D02*
X215700000Y-54900000D01*
D14*
X108132000Y-41230000D02*
G75*
G03*
X108132000Y-41230000I-712000J0D01*
G01*
X108132000Y-43770000D02*
G75*
G03*
X108132000Y-43770000I-712000J0D01*
G01*
X108132000Y-46310000D02*
G75*
G03*
X108132000Y-46310000I-712000J0D01*
G01*
X108132000Y-48850000D02*
G75*
G03*
X108132000Y-48850000I-712000J0D01*
G01*
X108132000Y-51390000D02*
G75*
G03*
X108132000Y-51390000I-712000J0D01*
G01*
X108132000Y-53930000D02*
G75*
G03*
X108132000Y-53930000I-712000J0D01*
G01*
X108132000Y-56470000D02*
G75*
G03*
X108132000Y-56470000I-712000J0D01*
G01*
X108132000Y-59010000D02*
G75*
G03*
X108132000Y-59010000I-712000J0D01*
G01*
X108132000Y-61550000D02*
G75*
G03*
X108132000Y-61550000I-712000J0D01*
G01*
X108132000Y-64090000D02*
G75*
G03*
X108132000Y-64090000I-712000J0D01*
G01*
X108132000Y-66630000D02*
G75*
G03*
X108132000Y-66630000I-712000J0D01*
G01*
X108132000Y-69170000D02*
G75*
G03*
X108132000Y-69170000I-712000J0D01*
G01*
X92892000Y-69170000D02*
G75*
G03*
X92892000Y-69170000I-712000J0D01*
G01*
X92892000Y-66630000D02*
G75*
G03*
X92892000Y-66630000I-712000J0D01*
G01*
X92892000Y-64090000D02*
G75*
G03*
X92892000Y-64090000I-712000J0D01*
G01*
X92892000Y-61550000D02*
G75*
G03*
X92892000Y-61550000I-712000J0D01*
G01*
X92892000Y-59010000D02*
G75*
G03*
X92892000Y-59010000I-712000J0D01*
G01*
X92892000Y-56470000D02*
G75*
G03*
X92892000Y-56470000I-712000J0D01*
G01*
X92892000Y-53930000D02*
G75*
G03*
X92892000Y-53930000I-712000J0D01*
G01*
X92892000Y-51390000D02*
G75*
G03*
X92892000Y-51390000I-712000J0D01*
G01*
X92892000Y-48850000D02*
G75*
G03*
X92892000Y-48850000I-712000J0D01*
G01*
X92892000Y-46310000D02*
G75*
G03*
X92892000Y-46310000I-712000J0D01*
G01*
X92892000Y-43770000D02*
G75*
G03*
X92892000Y-43770000I-712000J0D01*
G01*
X92892000Y-41230000D02*
G75*
G03*
X92892000Y-41230000I-712000J0D01*
G01*
X86700000Y-47800000D02*
G75*
G03*
X86700000Y-47800000I-550000J0D01*
G01*
X86700000Y-40800000D02*
G75*
G03*
X86700000Y-40800000I-550000J0D01*
G01*
X83600000Y-48600000D02*
X83600000Y-50600000D01*
X84500000Y-50600000D01*
X84500000Y-48600000D01*
X83600000Y-48600000D01*
X87800000Y-50100000D02*
X87800000Y-52100000D01*
X88700000Y-52100000D01*
X88700000Y-50100000D01*
X87800000Y-50100000D01*
X83600000Y-41600000D02*
X83600000Y-43600000D01*
X84500000Y-43600000D01*
X84500000Y-41600000D01*
X83600000Y-41600000D01*
X83600000Y-44600000D02*
X83600000Y-46600000D01*
X84500000Y-46600000D01*
X84500000Y-44600000D01*
X83600000Y-44600000D01*
X88450000Y-40800000D02*
G75*
G03*
X88450000Y-40800000I-550000J0D01*
G01*
X88450000Y-47800000D02*
G75*
G03*
X88450000Y-47800000I-550000J0D01*
G01*
X89550000Y-41600000D02*
X89550000Y-43600000D01*
X90450000Y-43600000D01*
X90450000Y-41600000D01*
X89550000Y-41600000D01*
X89550000Y-44600000D02*
X89550000Y-46600000D01*
X90450000Y-46600000D01*
X90450000Y-44600000D01*
X89550000Y-44600000D01*
X89550000Y-48600000D02*
X89550000Y-50600000D01*
X90450000Y-50600000D01*
X90450000Y-48600000D01*
X89550000Y-48600000D01*
X85350000Y-50100000D02*
X85350000Y-52100000D01*
X86250000Y-52100000D01*
X86250000Y-50100000D01*
X85350000Y-50100000D01*
X97348500Y-74600000D02*
G75*
G03*
X97348500Y-74600000I-648500J0D01*
G01*
X99888500Y-74600000D02*
G75*
G03*
X99888500Y-74600000I-648500J0D01*
G01*
X102428500Y-74600000D02*
G75*
G03*
X102428500Y-74600000I-648500J0D01*
G01*
X104968500Y-74600000D02*
G75*
G03*
X104968500Y-74600000I-648500J0D01*
G01*
X85348500Y-60700000D02*
G75*
G03*
X85348500Y-60700000I-648500J0D01*
G01*
X87548500Y-60700000D02*
G75*
G03*
X87548500Y-60700000I-648500J0D01*
G01*
X85336535Y-58579272D02*
G75*
G03*
X85336535Y-58579272I-648500J0D01*
G01*
X85336535Y-53499272D02*
G75*
G03*
X85336535Y-53499272I-648500J0D01*
G01*
X87586535Y-53499272D02*
G75*
G03*
X87586535Y-53499272I-648500J0D01*
G01*
X87586535Y-58579272D02*
G75*
G03*
X87586535Y-58579272I-648500J0D01*
G01*
X87050000Y-85000000D02*
G75*
G03*
X87050000Y-85000000I-1050000J0D01*
G01*
X109050000Y-85000000D02*
G75*
G03*
X109050000Y-85000000I-1050000J0D01*
G01*
X131900200Y-59600000D02*
G75*
G03*
X131900200Y-59600000I-2300200J0D01*
G01*
X208100200Y-61800000D02*
G75*
G03*
X208100200Y-61800000I-2300200J0D01*
G01*
X131900200Y-97600000D02*
G75*
G03*
X131900200Y-97600000I-2300200J0D01*
G01*
X208100200Y-100000000D02*
G75*
G03*
X208100200Y-100000000I-2300200J0D01*
G01*
X107300200Y-114800000D02*
G75*
G03*
X107300200Y-114800000I-2300200J0D01*
G01*
X91660922Y-85197904D02*
X91727589Y-84664571D01*
X91718065Y-84740761D02*
X91760922Y-84702666D01*
X91841875Y-84664571D01*
X91956160Y-84664571D01*
X92027589Y-84702666D01*
X92056160Y-84778857D01*
X92003779Y-85197904D01*
X92056160Y-84778857D02*
X92103779Y-84702666D01*
X92184732Y-84664571D01*
X92299017Y-84664571D01*
X92370446Y-84702666D01*
X92399017Y-84778857D01*
X92346636Y-85197904D01*
X92841875Y-85197904D02*
X92770446Y-85159809D01*
X92737113Y-85121714D01*
X92708541Y-85045523D01*
X92737113Y-84816952D01*
X92784732Y-84740761D01*
X92827589Y-84702666D01*
X92908541Y-84664571D01*
X93022827Y-84664571D01*
X93094255Y-84702666D01*
X93127589Y-84740761D01*
X93156160Y-84816952D01*
X93127589Y-85045523D01*
X93079970Y-85121714D01*
X93037113Y-85159809D01*
X92956160Y-85197904D01*
X92841875Y-85197904D01*
X93794255Y-85197904D02*
X93894255Y-84397904D01*
X93799017Y-85159809D02*
X93718065Y-85197904D01*
X93565684Y-85197904D01*
X93494255Y-85159809D01*
X93460922Y-85121714D01*
X93432351Y-85045523D01*
X93460922Y-84816952D01*
X93508541Y-84740761D01*
X93551398Y-84702666D01*
X93632351Y-84664571D01*
X93784732Y-84664571D01*
X93856160Y-84702666D01*
X94175208Y-85197904D02*
X94241875Y-84664571D01*
X94275208Y-84397904D02*
X94232351Y-84436000D01*
X94265684Y-84474095D01*
X94308541Y-84436000D01*
X94275208Y-84397904D01*
X94265684Y-84474095D01*
X94508541Y-84664571D02*
X94813303Y-84664571D01*
X94556160Y-85197904D02*
X94641875Y-84512190D01*
X94689494Y-84436000D01*
X94770446Y-84397904D01*
X94846636Y-84397904D01*
X95013303Y-85197904D02*
X95079970Y-84664571D01*
X95113303Y-84397904D02*
X95070446Y-84436000D01*
X95103779Y-84474095D01*
X95146636Y-84436000D01*
X95113303Y-84397904D01*
X95103779Y-84474095D01*
X95703779Y-85159809D02*
X95622827Y-85197904D01*
X95470446Y-85197904D01*
X95399017Y-85159809D01*
X95370446Y-85083619D01*
X95408541Y-84778857D01*
X95456160Y-84702666D01*
X95537113Y-84664571D01*
X95689494Y-84664571D01*
X95760922Y-84702666D01*
X95789494Y-84778857D01*
X95779970Y-84855047D01*
X95389494Y-84931238D01*
X96422827Y-85197904D02*
X96522827Y-84397904D01*
X96427589Y-85159809D02*
X96346636Y-85197904D01*
X96194255Y-85197904D01*
X96122827Y-85159809D01*
X96089494Y-85121714D01*
X96060922Y-85045523D01*
X96089494Y-84816952D01*
X96137113Y-84740761D01*
X96179970Y-84702666D01*
X96260922Y-84664571D01*
X96413303Y-84664571D01*
X96484732Y-84702666D01*
X97413303Y-85197904D02*
X97513303Y-84397904D01*
X97475208Y-84702666D02*
X97556160Y-84664571D01*
X97708541Y-84664571D01*
X97779970Y-84702666D01*
X97813303Y-84740761D01*
X97841875Y-84816952D01*
X97813303Y-85045523D01*
X97765684Y-85121714D01*
X97722827Y-85159809D01*
X97641875Y-85197904D01*
X97489494Y-85197904D01*
X97418065Y-85159809D01*
X98127589Y-84664571D02*
X98251398Y-85197904D01*
X98508541Y-84664571D02*
X98251398Y-85197904D01*
X98151398Y-85388380D01*
X98108541Y-85426476D01*
X98027589Y-85464571D01*
X99356160Y-85197904D02*
X99422827Y-84664571D01*
X99403779Y-84816952D02*
X99451398Y-84740761D01*
X99494255Y-84702666D01*
X99575208Y-84664571D01*
X99651398Y-84664571D01*
X100194255Y-85197904D02*
X100246636Y-84778857D01*
X100218065Y-84702666D01*
X100146636Y-84664571D01*
X99994255Y-84664571D01*
X99913303Y-84702666D01*
X100199017Y-85159809D02*
X100118065Y-85197904D01*
X99927589Y-85197904D01*
X99856160Y-85159809D01*
X99827589Y-85083619D01*
X99837113Y-85007428D01*
X99884732Y-84931238D01*
X99965684Y-84893142D01*
X100156160Y-84893142D01*
X100237113Y-84855047D01*
X100575208Y-85197904D02*
X100641875Y-84664571D01*
X100632351Y-84740761D02*
X100675208Y-84702666D01*
X100756160Y-84664571D01*
X100870446Y-84664571D01*
X100941875Y-84702666D01*
X100970446Y-84778857D01*
X100918065Y-85197904D01*
X100970446Y-84778857D02*
X101018065Y-84702666D01*
X101099017Y-84664571D01*
X101213303Y-84664571D01*
X101284732Y-84702666D01*
X101313303Y-84778857D01*
X101260922Y-85197904D01*
X101951398Y-85159809D02*
X101870446Y-85197904D01*
X101718065Y-85197904D01*
X101646636Y-85159809D01*
X101618065Y-85083619D01*
X101656160Y-84778857D01*
X101703779Y-84702666D01*
X101784732Y-84664571D01*
X101937113Y-84664571D01*
X102008541Y-84702666D01*
X102037113Y-84778857D01*
X102027589Y-84855047D01*
X101637113Y-84931238D01*
X102294255Y-85159809D02*
X102365684Y-85197904D01*
X102518065Y-85197904D01*
X102599017Y-85159809D01*
X102646636Y-85083619D01*
X102651398Y-85045523D01*
X102622827Y-84969333D01*
X102551398Y-84931238D01*
X102437113Y-84931238D01*
X102365684Y-84893142D01*
X102337113Y-84816952D01*
X102341875Y-84778857D01*
X102389494Y-84702666D01*
X102470446Y-84664571D01*
X102584732Y-84664571D01*
X102656160Y-84702666D01*
X103284732Y-85159809D02*
X103203779Y-85197904D01*
X103051398Y-85197904D01*
X102979970Y-85159809D01*
X102951398Y-85083619D01*
X102989494Y-84778857D01*
X103037113Y-84702666D01*
X103118065Y-84664571D01*
X103270446Y-84664571D01*
X103341875Y-84702666D01*
X103370446Y-84778857D01*
X103360922Y-84855047D01*
X102970446Y-84931238D01*
X103627589Y-85159809D02*
X103699017Y-85197904D01*
X103851398Y-85197904D01*
X103932351Y-85159809D01*
X103979970Y-85083619D01*
X103984732Y-85045523D01*
X103956160Y-84969333D01*
X103884732Y-84931238D01*
X103770446Y-84931238D01*
X103699017Y-84893142D01*
X103670446Y-84816952D01*
X103675208Y-84778857D01*
X103722827Y-84702666D01*
X103803779Y-84664571D01*
X103918065Y-84664571D01*
X103989494Y-84702666D01*
X104375208Y-84664571D02*
X104289494Y-85350285D01*
X104241875Y-85426476D01*
X104160922Y-85464571D01*
X104122827Y-85464571D01*
X104408541Y-84397904D02*
X104365684Y-84436000D01*
X104399017Y-84474095D01*
X104441875Y-84436000D01*
X104408541Y-84397904D01*
X104399017Y-84474095D01*
X105032351Y-85197904D02*
X105132351Y-84397904D01*
X105037113Y-85159809D02*
X104956160Y-85197904D01*
X104803779Y-85197904D01*
X104732351Y-85159809D01*
X104699017Y-85121714D01*
X104670446Y-85045523D01*
X104699017Y-84816952D01*
X104746636Y-84740761D01*
X104789494Y-84702666D01*
X104870446Y-84664571D01*
X105022827Y-84664571D01*
X105094255Y-84702666D01*
X89495494Y-83927904D02*
X89424065Y-83889809D01*
X89390732Y-83851714D01*
X89362160Y-83775523D01*
X89390732Y-83546952D01*
X89438351Y-83470761D01*
X89481208Y-83432666D01*
X89562160Y-83394571D01*
X89676446Y-83394571D01*
X89747875Y-83432666D01*
X89781208Y-83470761D01*
X89809779Y-83546952D01*
X89781208Y-83775523D01*
X89733589Y-83851714D01*
X89690732Y-83889809D01*
X89609779Y-83927904D01*
X89495494Y-83927904D01*
X90105017Y-83927904D02*
X90171684Y-83394571D01*
X90152636Y-83546952D02*
X90200255Y-83470761D01*
X90243113Y-83432666D01*
X90324065Y-83394571D01*
X90400255Y-83394571D01*
X90600255Y-83927904D02*
X90666922Y-83394571D01*
X90700255Y-83127904D02*
X90657398Y-83166000D01*
X90690732Y-83204095D01*
X90733589Y-83166000D01*
X90700255Y-83127904D01*
X90690732Y-83204095D01*
X91390732Y-83394571D02*
X91309779Y-84042190D01*
X91262160Y-84118380D01*
X91219303Y-84156476D01*
X91138351Y-84194571D01*
X91024065Y-84194571D01*
X90952636Y-84156476D01*
X91328827Y-83889809D02*
X91247875Y-83927904D01*
X91095494Y-83927904D01*
X91024065Y-83889809D01*
X90990732Y-83851714D01*
X90962160Y-83775523D01*
X90990732Y-83546952D01*
X91038351Y-83470761D01*
X91081208Y-83432666D01*
X91162160Y-83394571D01*
X91314541Y-83394571D01*
X91385970Y-83432666D01*
X91705017Y-83927904D02*
X91771684Y-83394571D01*
X91805017Y-83127904D02*
X91762160Y-83166000D01*
X91795494Y-83204095D01*
X91838351Y-83166000D01*
X91805017Y-83127904D01*
X91795494Y-83204095D01*
X92152636Y-83394571D02*
X92085970Y-83927904D01*
X92143113Y-83470761D02*
X92185970Y-83432666D01*
X92266922Y-83394571D01*
X92381208Y-83394571D01*
X92452636Y-83432666D01*
X92481208Y-83508857D01*
X92428827Y-83927904D01*
X93152636Y-83927904D02*
X93205017Y-83508857D01*
X93176446Y-83432666D01*
X93105017Y-83394571D01*
X92952636Y-83394571D01*
X92871684Y-83432666D01*
X93157398Y-83889809D02*
X93076446Y-83927904D01*
X92885970Y-83927904D01*
X92814541Y-83889809D01*
X92785970Y-83813619D01*
X92795494Y-83737428D01*
X92843113Y-83661238D01*
X92924065Y-83623142D01*
X93114541Y-83623142D01*
X93195494Y-83585047D01*
X93647875Y-83927904D02*
X93576446Y-83889809D01*
X93547875Y-83813619D01*
X93633589Y-83127904D01*
X94562160Y-83927904D02*
X94662160Y-83127904D01*
X94624065Y-83432666D02*
X94705017Y-83394571D01*
X94857398Y-83394571D01*
X94928827Y-83432666D01*
X94962160Y-83470761D01*
X94990732Y-83546952D01*
X94962160Y-83775523D01*
X94914541Y-83851714D01*
X94871684Y-83889809D01*
X94790732Y-83927904D01*
X94638351Y-83927904D01*
X94566922Y-83889809D01*
X95276446Y-83394571D02*
X95400255Y-83927904D01*
X95657398Y-83394571D02*
X95400255Y-83927904D01*
X95300255Y-84118380D01*
X95257398Y-84156476D01*
X95176446Y-84194571D01*
X96505017Y-83927904D02*
X96605017Y-83127904D01*
X96619303Y-83623142D02*
X96809779Y-83927904D01*
X96876446Y-83394571D02*
X96533589Y-83699333D01*
X97495494Y-83927904D02*
X97547875Y-83508857D01*
X97519303Y-83432666D01*
X97447875Y-83394571D01*
X97295494Y-83394571D01*
X97214541Y-83432666D01*
X97500255Y-83889809D02*
X97419303Y-83927904D01*
X97228827Y-83927904D01*
X97157398Y-83889809D01*
X97128827Y-83813619D01*
X97138351Y-83737428D01*
X97185970Y-83661238D01*
X97266922Y-83623142D01*
X97457398Y-83623142D01*
X97538351Y-83585047D01*
X97828827Y-83394571D02*
X98133589Y-83394571D01*
X97976446Y-83127904D02*
X97890732Y-83813619D01*
X97919303Y-83889809D01*
X97990732Y-83927904D01*
X98066922Y-83927904D01*
X98676446Y-83927904D02*
X98728827Y-83508857D01*
X98700255Y-83432666D01*
X98628827Y-83394571D01*
X98476446Y-83394571D01*
X98395494Y-83432666D01*
X98681208Y-83889809D02*
X98600255Y-83927904D01*
X98409779Y-83927904D01*
X98338351Y-83889809D01*
X98309779Y-83813619D01*
X98319303Y-83737428D01*
X98366922Y-83661238D01*
X98447875Y-83623142D01*
X98638351Y-83623142D01*
X98719303Y-83585047D01*
X99309779Y-83127904D02*
X99385970Y-83127904D01*
X99457398Y-83166000D01*
X99490732Y-83204095D01*
X99519303Y-83280285D01*
X99538351Y-83432666D01*
X99514541Y-83623142D01*
X99457398Y-83775523D01*
X99409779Y-83851714D01*
X99366922Y-83889809D01*
X99285970Y-83927904D01*
X99209779Y-83927904D01*
X99138351Y-83889809D01*
X99105017Y-83851714D01*
X99076446Y-83775523D01*
X99057398Y-83623142D01*
X99081208Y-83432666D01*
X99138351Y-83280285D01*
X99185970Y-83204095D01*
X99228827Y-83166000D01*
X99309779Y-83127904D01*
X100300255Y-83127904D02*
X99919303Y-83127904D01*
X99833589Y-83508857D01*
X99876446Y-83470761D01*
X99957398Y-83432666D01*
X100147875Y-83432666D01*
X100219303Y-83470761D01*
X100252636Y-83508857D01*
X100281208Y-83585047D01*
X100257398Y-83775523D01*
X100209779Y-83851714D01*
X100166922Y-83889809D01*
X100085970Y-83927904D01*
X99895494Y-83927904D01*
X99824065Y-83889809D01*
X99790732Y-83851714D01*
X101000255Y-83927904D02*
X100543113Y-83927904D01*
X100771684Y-83927904D02*
X100871684Y-83127904D01*
X100781208Y-83242190D01*
X100695494Y-83318380D01*
X100614541Y-83356476D01*
X101595494Y-83127904D02*
X101671684Y-83127904D01*
X101743113Y-83166000D01*
X101776446Y-83204095D01*
X101805017Y-83280285D01*
X101824065Y-83432666D01*
X101800255Y-83623142D01*
X101743113Y-83775523D01*
X101695494Y-83851714D01*
X101652636Y-83889809D01*
X101571684Y-83927904D01*
X101495494Y-83927904D01*
X101424065Y-83889809D01*
X101390732Y-83851714D01*
X101362160Y-83775523D01*
X101343113Y-83623142D01*
X101366922Y-83432666D01*
X101424065Y-83280285D01*
X101471684Y-83204095D01*
X101514541Y-83166000D01*
X101595494Y-83127904D01*
D10*
X96905559Y-82494380D02*
X96905559Y-81494380D01*
X97286511Y-81494380D01*
X97381750Y-81542000D01*
X97429369Y-81589619D01*
X97476988Y-81684857D01*
X97476988Y-81827714D01*
X97429369Y-81922952D01*
X97381750Y-81970571D01*
X97286511Y-82018190D01*
X96905559Y-82018190D01*
X97905559Y-82494380D02*
X97905559Y-81827714D01*
X97905559Y-82018190D02*
X97953178Y-81922952D01*
X98000797Y-81875333D01*
X98096035Y-81827714D01*
X98191273Y-81827714D01*
X98667464Y-82494380D02*
X98572226Y-82446761D01*
X98524607Y-82399142D01*
X98476988Y-82303904D01*
X98476988Y-82018190D01*
X98524607Y-81922952D01*
X98572226Y-81875333D01*
X98667464Y-81827714D01*
X98810321Y-81827714D01*
X98905559Y-81875333D01*
X98953178Y-81922952D01*
X99000797Y-82018190D01*
X99000797Y-82303904D01*
X98953178Y-82399142D01*
X98905559Y-82446761D01*
X98810321Y-82494380D01*
X98667464Y-82494380D01*
X99429369Y-82399142D02*
X99476988Y-82446761D01*
X99429369Y-82494380D01*
X99381750Y-82446761D01*
X99429369Y-82399142D01*
X99429369Y-82494380D01*
X99810321Y-81494380D02*
X100429369Y-81494380D01*
X100096035Y-81875333D01*
X100238892Y-81875333D01*
X100334130Y-81922952D01*
X100381750Y-81970571D01*
X100429369Y-82065809D01*
X100429369Y-82303904D01*
X100381750Y-82399142D01*
X100334130Y-82446761D01*
X100238892Y-82494380D01*
X99953178Y-82494380D01*
X99857940Y-82446761D01*
X99810321Y-82399142D01*
X101429369Y-82494380D02*
X101096035Y-82018190D01*
X100857940Y-82494380D02*
X100857940Y-81494380D01*
X101238892Y-81494380D01*
X101334130Y-81542000D01*
X101381750Y-81589619D01*
X101429369Y-81684857D01*
X101429369Y-81827714D01*
X101381750Y-81922952D01*
X101334130Y-81970571D01*
X101238892Y-82018190D01*
X100857940Y-82018190D01*
X101857940Y-81970571D02*
X102191273Y-81970571D01*
X102334130Y-82494380D02*
X101857940Y-82494380D01*
X101857940Y-81494380D01*
X102334130Y-81494380D01*
X102762702Y-82399142D02*
X102810321Y-82446761D01*
X102762702Y-82494380D01*
X102715083Y-82446761D01*
X102762702Y-82399142D01*
X102762702Y-82494380D01*
X103238892Y-82494380D02*
X103238892Y-81494380D01*
X103572226Y-82208666D01*
X103905559Y-81494380D01*
X103905559Y-82494380D01*
X104286511Y-81494380D02*
X104953178Y-82494380D01*
X104953178Y-81494380D02*
X104286511Y-82494380D01*
D12*
X97834130Y-80279761D02*
X96881750Y-80279761D01*
X96881750Y-78279761D01*
X98500797Y-80279761D02*
X98500797Y-78946428D01*
X98500797Y-78279761D02*
X98405559Y-78375000D01*
X98500797Y-78470238D01*
X98596035Y-78375000D01*
X98500797Y-78279761D01*
X98500797Y-78470238D01*
X99738892Y-80279761D02*
X99548416Y-80184523D01*
X99453178Y-79994047D01*
X99453178Y-78279761D01*
X100310321Y-78946428D02*
X100786511Y-80279761D01*
X101262702Y-78946428D02*
X100786511Y-80279761D01*
X100596035Y-80755952D01*
X100500797Y-80851190D01*
X100310321Y-80946428D01*
X102976988Y-78279761D02*
X102024607Y-78279761D01*
X101929369Y-79232142D01*
X102024607Y-79136904D01*
X102215083Y-79041666D01*
X102691273Y-79041666D01*
X102881750Y-79136904D01*
X102976988Y-79232142D01*
X103072226Y-79422619D01*
X103072226Y-79898809D01*
X102976988Y-80089285D01*
X102881750Y-80184523D01*
X102691273Y-80279761D01*
X102215083Y-80279761D01*
X102024607Y-80184523D01*
X101929369Y-80089285D01*
X104215083Y-79136904D02*
X104024607Y-79041666D01*
X103929369Y-78946428D01*
X103834130Y-78755952D01*
X103834130Y-78660714D01*
X103929369Y-78470238D01*
X104024607Y-78375000D01*
X104215083Y-78279761D01*
X104596035Y-78279761D01*
X104786511Y-78375000D01*
X104881750Y-78470238D01*
X104976988Y-78660714D01*
X104976988Y-78755952D01*
X104881750Y-78946428D01*
X104786511Y-79041666D01*
X104596035Y-79136904D01*
X104215083Y-79136904D01*
X104024607Y-79232142D01*
X103929369Y-79327380D01*
X103834130Y-79517857D01*
X103834130Y-79898809D01*
X103929369Y-80089285D01*
X104024607Y-80184523D01*
X104215083Y-80279761D01*
X104596035Y-80279761D01*
X104786511Y-80184523D01*
X104881750Y-80089285D01*
X104976988Y-79898809D01*
X104976988Y-79517857D01*
X104881750Y-79327380D01*
X104786511Y-79232142D01*
X104596035Y-79136904D01*
D10*
X112582191Y-81857904D02*
X112848858Y-82657904D01*
X113115524Y-81857904D01*
X113839334Y-82581714D02*
X113801238Y-82619809D01*
X113686953Y-82657904D01*
X113610762Y-82657904D01*
X113496477Y-82619809D01*
X113420286Y-82543619D01*
X113382191Y-82467428D01*
X113344096Y-82315047D01*
X113344096Y-82200761D01*
X113382191Y-82048380D01*
X113420286Y-81972190D01*
X113496477Y-81896000D01*
X113610762Y-81857904D01*
X113686953Y-81857904D01*
X113801238Y-81896000D01*
X113839334Y-81934095D01*
X114639334Y-82581714D02*
X114601238Y-82619809D01*
X114486953Y-82657904D01*
X114410762Y-82657904D01*
X114296477Y-82619809D01*
X114220286Y-82543619D01*
X114182191Y-82467428D01*
X114144096Y-82315047D01*
X114144096Y-82200761D01*
X114182191Y-82048380D01*
X114220286Y-81972190D01*
X114296477Y-81896000D01*
X114410762Y-81857904D01*
X114486953Y-81857904D01*
X114601238Y-81896000D01*
X114639334Y-81934095D01*
X113096476Y-77016000D02*
X113020285Y-76977904D01*
X112906000Y-76977904D01*
X112791714Y-77016000D01*
X112715523Y-77092190D01*
X112677428Y-77168380D01*
X112639333Y-77320761D01*
X112639333Y-77435047D01*
X112677428Y-77587428D01*
X112715523Y-77663619D01*
X112791714Y-77739809D01*
X112906000Y-77777904D01*
X112982190Y-77777904D01*
X113096476Y-77739809D01*
X113134571Y-77701714D01*
X113134571Y-77435047D01*
X112982190Y-77435047D01*
X113477428Y-77777904D02*
X113477428Y-76977904D01*
X113934571Y-77777904D01*
X113934571Y-76977904D01*
X114315523Y-77777904D02*
X114315523Y-76977904D01*
X114506000Y-76977904D01*
X114620285Y-77016000D01*
X114696476Y-77092190D01*
X114734571Y-77168380D01*
X114772666Y-77320761D01*
X114772666Y-77435047D01*
X114734571Y-77587428D01*
X114696476Y-77663619D01*
X114620285Y-77739809D01*
X114506000Y-77777904D01*
X114315523Y-77777904D01*
X113191714Y-80177904D02*
X112810761Y-80177904D01*
X112810761Y-79377904D01*
X113458380Y-79758857D02*
X113725047Y-79758857D01*
X113839333Y-80177904D02*
X113458380Y-80177904D01*
X113458380Y-79377904D01*
X113839333Y-79377904D01*
X114182190Y-80177904D02*
X114182190Y-79377904D01*
X114372666Y-79377904D01*
X114486952Y-79416000D01*
X114563142Y-79492190D01*
X114601238Y-79568380D01*
X114639333Y-79720761D01*
X114639333Y-79835047D01*
X114601238Y-79987428D01*
X114563142Y-80063619D01*
X114486952Y-80139809D01*
X114372666Y-80177904D01*
X114182190Y-80177904D01*
X84100076Y-62739639D02*
X84100076Y-61926839D01*
X84409714Y-61926839D01*
X84487123Y-61965544D01*
X84525828Y-62004248D01*
X84564533Y-62081658D01*
X84564533Y-62197772D01*
X84525828Y-62275182D01*
X84487123Y-62313886D01*
X84409714Y-62352591D01*
X84100076Y-62352591D01*
X85338628Y-62739639D02*
X84874171Y-62739639D01*
X85106400Y-62739639D02*
X85106400Y-61926839D01*
X85028990Y-62042953D01*
X84951580Y-62120363D01*
X84874171Y-62159067D01*
X86300076Y-62739639D02*
X86300076Y-61926839D01*
X86609714Y-61926839D01*
X86687123Y-61965544D01*
X86725828Y-62004248D01*
X86764533Y-62081658D01*
X86764533Y-62197772D01*
X86725828Y-62275182D01*
X86687123Y-62313886D01*
X86609714Y-62352591D01*
X86300076Y-62352591D01*
X87074171Y-62004248D02*
X87112876Y-61965544D01*
X87190285Y-61926839D01*
X87383809Y-61926839D01*
X87461219Y-61965544D01*
X87499923Y-62004248D01*
X87538628Y-62081658D01*
X87538628Y-62159067D01*
X87499923Y-62275182D01*
X87035466Y-62739639D01*
X87538628Y-62739639D01*
X85067695Y-56135466D02*
X84680647Y-56406400D01*
X85067695Y-56599923D02*
X84254895Y-56599923D01*
X84254895Y-56290285D01*
X84293600Y-56212876D01*
X84332304Y-56174171D01*
X84409714Y-56135466D01*
X84525828Y-56135466D01*
X84603238Y-56174171D01*
X84641942Y-56212876D01*
X84680647Y-56290285D01*
X84680647Y-56599923D01*
X85067695Y-55361371D02*
X85067695Y-55825828D01*
X85067695Y-55593600D02*
X84254895Y-55593600D01*
X84371009Y-55671009D01*
X84448419Y-55748419D01*
X84487123Y-55825828D01*
X87267695Y-56135466D02*
X86880647Y-56406400D01*
X87267695Y-56599923D02*
X86454895Y-56599923D01*
X86454895Y-56290285D01*
X86493600Y-56212876D01*
X86532304Y-56174171D01*
X86609714Y-56135466D01*
X86725828Y-56135466D01*
X86803238Y-56174171D01*
X86841942Y-56212876D01*
X86880647Y-56290285D01*
X86880647Y-56599923D01*
X86532304Y-55825828D02*
X86493600Y-55787123D01*
X86454895Y-55709714D01*
X86454895Y-55516190D01*
X86493600Y-55438780D01*
X86532304Y-55400076D01*
X86609714Y-55361371D01*
X86687123Y-55361371D01*
X86803238Y-55400076D01*
X87267695Y-55864533D01*
X87267695Y-55361371D01*
X84638095Y-66538095D02*
X85019047Y-66271428D01*
X84638095Y-66080952D02*
X85438095Y-66080952D01*
X85438095Y-66385714D01*
X85400000Y-66461904D01*
X85361904Y-66500000D01*
X85285714Y-66538095D01*
X85171428Y-66538095D01*
X85095238Y-66500000D01*
X85057142Y-66461904D01*
X85019047Y-66385714D01*
X85019047Y-66080952D01*
X85057142Y-66880952D02*
X85057142Y-67147619D01*
X84638095Y-67261904D02*
X84638095Y-66880952D01*
X85438095Y-66880952D01*
X85438095Y-67261904D01*
X84676190Y-67566666D02*
X84638095Y-67680952D01*
X84638095Y-67871428D01*
X84676190Y-67947619D01*
X84714285Y-67985714D01*
X84790476Y-68023809D01*
X84866666Y-68023809D01*
X84942857Y-67985714D01*
X84980952Y-67947619D01*
X85019047Y-67871428D01*
X85057142Y-67719047D01*
X85095238Y-67642857D01*
X85133333Y-67604761D01*
X85209523Y-67566666D01*
X85285714Y-67566666D01*
X85361904Y-67604761D01*
X85400000Y-67642857D01*
X85438095Y-67719047D01*
X85438095Y-67909523D01*
X85400000Y-68023809D01*
X85057142Y-68366666D02*
X85057142Y-68633333D01*
X84638095Y-68747619D02*
X84638095Y-68366666D01*
X85438095Y-68366666D01*
X85438095Y-68747619D01*
X85438095Y-68976190D02*
X85438095Y-69433333D01*
X84638095Y-69204761D02*
X85438095Y-69204761D01*
M02*
