G04 #@! TF.GenerationSoftware,KiCad,Pcbnew,5.1.9*
G04 #@! TF.CreationDate,2021-01-24T14:33:22-08:00*
G04 #@! TF.ProjectId,Lily58_prot_MX,4c696c79-3538-45f7-9072-6f745f4d582e,rev?*
G04 #@! TF.SameCoordinates,Original*
G04 #@! TF.FileFunction,Legend,Bot*
G04 #@! TF.FilePolarity,Positive*
%FSLAX46Y46*%
G04 Gerber Fmt 4.6, Leading zero omitted, Abs format (unit mm)*
G04 Created by KiCad (PCBNEW 5.1.9) date 2021-01-24 14:33:22*
%MOMM*%
%LPD*%
G01*
G04 APERTURE LIST*
%ADD10C,0.010000*%
%ADD11C,0.150000*%
%ADD12C,0.300000*%
%ADD13C,0.120000*%
%ADD14C,0.100000*%
G04 APERTURE END LIST*
D10*
G36*
X100241995Y-79376372D02*
G01*
X100226208Y-79390093D01*
X100204321Y-79410618D01*
X100178220Y-79436027D01*
X100149791Y-79464404D01*
X100120921Y-79493829D01*
X100093496Y-79522385D01*
X100069401Y-79548153D01*
X100050524Y-79569215D01*
X100038749Y-79583654D01*
X100035710Y-79589086D01*
X100040627Y-79597019D01*
X100054119Y-79613073D01*
X100074302Y-79635331D01*
X100099288Y-79661875D01*
X100127191Y-79690785D01*
X100156126Y-79720145D01*
X100184206Y-79748035D01*
X100209545Y-79772538D01*
X100230256Y-79791735D01*
X100244454Y-79803709D01*
X100249795Y-79806800D01*
X100256587Y-79801913D01*
X100271974Y-79788277D01*
X100294315Y-79767431D01*
X100321967Y-79740912D01*
X100353287Y-79710258D01*
X100359905Y-79703710D01*
X100391560Y-79671774D01*
X100419332Y-79642705D01*
X100441656Y-79618227D01*
X100456967Y-79600066D01*
X100463701Y-79589946D01*
X100463881Y-79589086D01*
X100458964Y-79581153D01*
X100445472Y-79565098D01*
X100425289Y-79542840D01*
X100400303Y-79516297D01*
X100372400Y-79487387D01*
X100343465Y-79458027D01*
X100315385Y-79430137D01*
X100290046Y-79405634D01*
X100269335Y-79386436D01*
X100255137Y-79374463D01*
X100249795Y-79371372D01*
X100241995Y-79376372D01*
G37*
X100241995Y-79376372D02*
X100226208Y-79390093D01*
X100204321Y-79410618D01*
X100178220Y-79436027D01*
X100149791Y-79464404D01*
X100120921Y-79493829D01*
X100093496Y-79522385D01*
X100069401Y-79548153D01*
X100050524Y-79569215D01*
X100038749Y-79583654D01*
X100035710Y-79589086D01*
X100040627Y-79597019D01*
X100054119Y-79613073D01*
X100074302Y-79635331D01*
X100099288Y-79661875D01*
X100127191Y-79690785D01*
X100156126Y-79720145D01*
X100184206Y-79748035D01*
X100209545Y-79772538D01*
X100230256Y-79791735D01*
X100244454Y-79803709D01*
X100249795Y-79806800D01*
X100256587Y-79801913D01*
X100271974Y-79788277D01*
X100294315Y-79767431D01*
X100321967Y-79740912D01*
X100353287Y-79710258D01*
X100359905Y-79703710D01*
X100391560Y-79671774D01*
X100419332Y-79642705D01*
X100441656Y-79618227D01*
X100456967Y-79600066D01*
X100463701Y-79589946D01*
X100463881Y-79589086D01*
X100458964Y-79581153D01*
X100445472Y-79565098D01*
X100425289Y-79542840D01*
X100400303Y-79516297D01*
X100372400Y-79487387D01*
X100343465Y-79458027D01*
X100315385Y-79430137D01*
X100290046Y-79405634D01*
X100269335Y-79386436D01*
X100255137Y-79374463D01*
X100249795Y-79371372D01*
X100241995Y-79376372D01*
G36*
X101583218Y-78039737D02*
G01*
X101423857Y-78212566D01*
X101274883Y-78395516D01*
X101136362Y-78588510D01*
X101112821Y-78623886D01*
X101004586Y-78798990D01*
X100910668Y-78973431D01*
X100831080Y-79147143D01*
X100765835Y-79320061D01*
X100714947Y-79492120D01*
X100678430Y-79663255D01*
X100656297Y-79833400D01*
X100648562Y-80002491D01*
X100655238Y-80170461D01*
X100676340Y-80337247D01*
X100711879Y-80502782D01*
X100717317Y-80523307D01*
X100725625Y-80554015D01*
X100796994Y-80576187D01*
X100835489Y-80588605D01*
X100876614Y-80602604D01*
X100913408Y-80615792D01*
X100924753Y-80620074D01*
X100950987Y-80629593D01*
X100971709Y-80636019D01*
X100983525Y-80638342D01*
X100984911Y-80638018D01*
X100984636Y-80629867D01*
X100980749Y-80611177D01*
X100973992Y-80585250D01*
X100969792Y-80570681D01*
X100931522Y-80419041D01*
X100907068Y-80267808D01*
X100896477Y-80116558D01*
X100899798Y-79964867D01*
X100917080Y-79812312D01*
X100948370Y-79658470D01*
X100993717Y-79502917D01*
X101053169Y-79345230D01*
X101126775Y-79184984D01*
X101128352Y-79181830D01*
X101167577Y-79105413D01*
X101204929Y-79037153D01*
X101243522Y-78971686D01*
X101286470Y-78903649D01*
X101315372Y-78859743D01*
X101384514Y-78760108D01*
X101460304Y-78658248D01*
X101539167Y-78558757D01*
X101617533Y-78466225D01*
X101648501Y-78431572D01*
X101681502Y-78395286D01*
X101697607Y-78409800D01*
X101711759Y-78424124D01*
X101733162Y-78447789D01*
X101760088Y-78478733D01*
X101790806Y-78514896D01*
X101823588Y-78554216D01*
X101856702Y-78594632D01*
X101888420Y-78634084D01*
X101917012Y-78670509D01*
X101923832Y-78679376D01*
X101992763Y-78773384D01*
X102061549Y-78874549D01*
X102126531Y-78977297D01*
X102182816Y-79073829D01*
X102204843Y-79114703D01*
X102227916Y-79159650D01*
X102251208Y-79206830D01*
X102273890Y-79254404D01*
X102295136Y-79300533D01*
X102314118Y-79343378D01*
X102330007Y-79381098D01*
X102341977Y-79411856D01*
X102349200Y-79433811D01*
X102350847Y-79445125D01*
X102350316Y-79446057D01*
X102343355Y-79450963D01*
X102327104Y-79462245D01*
X102304229Y-79478055D01*
X102285424Y-79491019D01*
X102154026Y-79590253D01*
X102031759Y-79700682D01*
X101918603Y-79822335D01*
X101814539Y-79955238D01*
X101719548Y-80099419D01*
X101633611Y-80254904D01*
X101556709Y-80421722D01*
X101488822Y-80599899D01*
X101472469Y-80648629D01*
X101458410Y-80692294D01*
X101445297Y-80734148D01*
X101434086Y-80771056D01*
X101425732Y-80799882D01*
X101421701Y-80815215D01*
X101416815Y-80838207D01*
X101416111Y-80851318D01*
X101419883Y-80858652D01*
X101425078Y-80862387D01*
X101435742Y-80869046D01*
X101455862Y-80881846D01*
X101482709Y-80899041D01*
X101513552Y-80918887D01*
X101518687Y-80922200D01*
X101548833Y-80941100D01*
X101574541Y-80956176D01*
X101593446Y-80966117D01*
X101603183Y-80969614D01*
X101603876Y-80969371D01*
X101607539Y-80960480D01*
X101613685Y-80941057D01*
X101621223Y-80914641D01*
X101624458Y-80902629D01*
X101671606Y-80744769D01*
X101727673Y-80592840D01*
X101792002Y-80448033D01*
X101863934Y-80311537D01*
X101942810Y-80184544D01*
X102027973Y-80068243D01*
X102118762Y-79963824D01*
X102174468Y-79908490D01*
X102293384Y-79806720D01*
X102423159Y-79714255D01*
X102563837Y-79631079D01*
X102715464Y-79557174D01*
X102878085Y-79492526D01*
X103051746Y-79437117D01*
X103236490Y-79390930D01*
X103432365Y-79353951D01*
X103639414Y-79326161D01*
X103826716Y-79309582D01*
X103891179Y-79305144D01*
X103886139Y-79387243D01*
X103866557Y-79607541D01*
X103835368Y-79819254D01*
X103792531Y-80022564D01*
X103738003Y-80217656D01*
X103671743Y-80404713D01*
X103636778Y-80489349D01*
X103622486Y-80522383D01*
X103525455Y-80506053D01*
X103360472Y-80485264D01*
X103195159Y-80478430D01*
X103029289Y-80485599D01*
X102862634Y-80506820D01*
X102694964Y-80542143D01*
X102526053Y-80591616D01*
X102355671Y-80655288D01*
X102183590Y-80733208D01*
X102009583Y-80825425D01*
X101993919Y-80834371D01*
X101951622Y-80859205D01*
X101906957Y-80886365D01*
X101861973Y-80914511D01*
X101818720Y-80942303D01*
X101779247Y-80968401D01*
X101745603Y-80991466D01*
X101719837Y-81010157D01*
X101703997Y-81023137D01*
X101701815Y-81025347D01*
X101695514Y-81033277D01*
X101694148Y-81040678D01*
X101698969Y-81050659D01*
X101711228Y-81066327D01*
X101724620Y-81082013D01*
X101747529Y-81110060D01*
X101771106Y-81141182D01*
X101787928Y-81165214D01*
X101815120Y-81206457D01*
X101882303Y-81159941D01*
X102020302Y-81070626D01*
X102163336Y-80989950D01*
X102309632Y-80918626D01*
X102457419Y-80857369D01*
X102604923Y-80806895D01*
X102750374Y-80767917D01*
X102892000Y-80741150D01*
X102934938Y-80735433D01*
X102991163Y-80730587D01*
X103057107Y-80727904D01*
X103128145Y-80727340D01*
X103199648Y-80728854D01*
X103266993Y-80732403D01*
X103325551Y-80737944D01*
X103334531Y-80739112D01*
X103490136Y-80767299D01*
X103647772Y-80809459D01*
X103806820Y-80865298D01*
X103966659Y-80934520D01*
X104126670Y-81016828D01*
X104286234Y-81111927D01*
X104444730Y-81219522D01*
X104601539Y-81339315D01*
X104615553Y-81350689D01*
X104651023Y-81379936D01*
X104686868Y-81410043D01*
X104719605Y-81438051D01*
X104745753Y-81460998D01*
X104752853Y-81467423D01*
X104800024Y-81510648D01*
X104781881Y-81530465D01*
X104754323Y-81558038D01*
X104716542Y-81592115D01*
X104670435Y-81631214D01*
X104617897Y-81673854D01*
X104560826Y-81718552D01*
X104501118Y-81763827D01*
X104440669Y-81808196D01*
X104381377Y-81850179D01*
X104325137Y-81888293D01*
X104317424Y-81893361D01*
X104166908Y-81986671D01*
X104020120Y-82066990D01*
X103875631Y-82134897D01*
X103732016Y-82190970D01*
X103587846Y-82235787D01*
X103441695Y-82269926D01*
X103347182Y-82286329D01*
X103292617Y-82292546D01*
X103227759Y-82296662D01*
X103156676Y-82298683D01*
X103083435Y-82298612D01*
X103012103Y-82296454D01*
X102946750Y-82292211D01*
X102891441Y-82285888D01*
X102891395Y-82285881D01*
X102735558Y-82255633D01*
X102577419Y-82211613D01*
X102417912Y-82154201D01*
X102257971Y-82083775D01*
X102098530Y-82000711D01*
X101940523Y-81905390D01*
X101922815Y-81893874D01*
X101863121Y-81852120D01*
X101815429Y-81812568D01*
X101777800Y-81773387D01*
X101748292Y-81732748D01*
X101743542Y-81724880D01*
X101719002Y-81673384D01*
X101699983Y-81614070D01*
X101688373Y-81553176D01*
X101686783Y-81537629D01*
X101681321Y-81482267D01*
X101674467Y-81437535D01*
X101665318Y-81399557D01*
X101652973Y-81364455D01*
X101639508Y-81334429D01*
X101621810Y-81301783D01*
X101600811Y-81268720D01*
X101580620Y-81241634D01*
X101577722Y-81238263D01*
X101560545Y-81221328D01*
X101536404Y-81200859D01*
X101507562Y-81178413D01*
X101476285Y-81155553D01*
X101444836Y-81133837D01*
X101415481Y-81114826D01*
X101390484Y-81100080D01*
X101372109Y-81091158D01*
X101362621Y-81089622D01*
X101362315Y-81089864D01*
X101357963Y-81101442D01*
X101354677Y-81124330D01*
X101352516Y-81155359D01*
X101351536Y-81191362D01*
X101351795Y-81229169D01*
X101353351Y-81265612D01*
X101356259Y-81297522D01*
X101358306Y-81311164D01*
X101368452Y-81367727D01*
X101352076Y-81347449D01*
X101337516Y-81327532D01*
X101317429Y-81297395D01*
X101293320Y-81259517D01*
X101266696Y-81216374D01*
X101239067Y-81170441D01*
X101211938Y-81124195D01*
X101186816Y-81080114D01*
X101165210Y-81040672D01*
X101164195Y-81038765D01*
X101113395Y-80943132D01*
X101042223Y-80911360D01*
X101009938Y-80897333D01*
X100974001Y-80882345D01*
X100936902Y-80867359D01*
X100901133Y-80853340D01*
X100869186Y-80841250D01*
X100843551Y-80832053D01*
X100826721Y-80826712D01*
X100821214Y-80825905D01*
X100822317Y-80834182D01*
X100829400Y-80853445D01*
X100841579Y-80881894D01*
X100857968Y-80917728D01*
X100877682Y-80959146D01*
X100899837Y-81004347D01*
X100923546Y-81051530D01*
X100947926Y-81098894D01*
X100972090Y-81144638D01*
X100995154Y-81186961D01*
X101016232Y-81224062D01*
X101020286Y-81230959D01*
X101071704Y-81315633D01*
X101118872Y-81388219D01*
X101163064Y-81450048D01*
X101205553Y-81502455D01*
X101247613Y-81546773D01*
X101290518Y-81584334D01*
X101335540Y-81616472D01*
X101383954Y-81644520D01*
X101437033Y-81669812D01*
X101441227Y-81671630D01*
X101470687Y-81684572D01*
X101489788Y-81694355D01*
X101501534Y-81703493D01*
X101508925Y-81714497D01*
X101514965Y-81729881D01*
X101516626Y-81734735D01*
X101526230Y-81760667D01*
X101536411Y-81784745D01*
X101540320Y-81792846D01*
X101547360Y-81808570D01*
X101546329Y-81818470D01*
X101536404Y-81829297D01*
X101535809Y-81829846D01*
X101523926Y-81839165D01*
X101502586Y-81854361D01*
X101474571Y-81873507D01*
X101442664Y-81894677D01*
X101434650Y-81899900D01*
X101271839Y-81998700D01*
X101108364Y-82084137D01*
X100944748Y-82156002D01*
X100781514Y-82214086D01*
X100619183Y-82258177D01*
X100474767Y-82285651D01*
X100423872Y-82291557D01*
X100363004Y-82295783D01*
X100296142Y-82298292D01*
X100227264Y-82299045D01*
X100160351Y-82298007D01*
X100099381Y-82295139D01*
X100048333Y-82290404D01*
X100042967Y-82289695D01*
X99880409Y-82260295D01*
X99716863Y-82216745D01*
X99553067Y-82159306D01*
X99389758Y-82088241D01*
X99227673Y-82003810D01*
X99211214Y-81994444D01*
X99120232Y-81939715D01*
X99025281Y-81877946D01*
X98929381Y-81811346D01*
X98835551Y-81742125D01*
X98746809Y-81672494D01*
X98666175Y-81604662D01*
X98613310Y-81556745D01*
X98566138Y-81512318D01*
X98602424Y-81478483D01*
X98635117Y-81449038D01*
X98676278Y-81413547D01*
X98722735Y-81374629D01*
X98771313Y-81334905D01*
X98818838Y-81296994D01*
X98862135Y-81263516D01*
X98870938Y-81256885D01*
X99027477Y-81146308D01*
X99185617Y-81047646D01*
X99344497Y-80961320D01*
X99503255Y-80887750D01*
X99661028Y-80827355D01*
X99816955Y-80780555D01*
X99880182Y-80765388D01*
X99975975Y-80747798D01*
X100079132Y-80735409D01*
X100185295Y-80728429D01*
X100290107Y-80727062D01*
X100389210Y-80731516D01*
X100453243Y-80738260D01*
X100512955Y-80747594D01*
X100578172Y-80759900D01*
X100643974Y-80774113D01*
X100705446Y-80789168D01*
X100757669Y-80803997D01*
X100760313Y-80804829D01*
X100787093Y-80813002D01*
X100802661Y-80816651D01*
X100809516Y-80816016D01*
X100810156Y-80811336D01*
X100809635Y-80809553D01*
X100806061Y-80798954D01*
X100798630Y-80777110D01*
X100788191Y-80746503D01*
X100775590Y-80709620D01*
X100764024Y-80675807D01*
X100749779Y-80633218D01*
X100738813Y-80601370D01*
X100728875Y-80578345D01*
X100717714Y-80562222D01*
X100703082Y-80551082D01*
X100682726Y-80543005D01*
X100654398Y-80536071D01*
X100615848Y-80528361D01*
X100583624Y-80521897D01*
X100412444Y-80493773D01*
X100242309Y-80480068D01*
X100073372Y-80480784D01*
X99905789Y-80495921D01*
X99774453Y-80518077D01*
X99611413Y-80557969D01*
X99446134Y-80611418D01*
X99279641Y-80677837D01*
X99112959Y-80756640D01*
X98947113Y-80847240D01*
X98783128Y-80949051D01*
X98622030Y-81061487D01*
X98464843Y-81183962D01*
X98312593Y-81315889D01*
X98210590Y-81412481D01*
X98108938Y-81512304D01*
X98221663Y-81622938D01*
X98368413Y-81759378D01*
X98522005Y-81887677D01*
X98681063Y-82006966D01*
X98844209Y-82116373D01*
X99010067Y-82215029D01*
X99177261Y-82302064D01*
X99344413Y-82376608D01*
X99510148Y-82437790D01*
X99511769Y-82438324D01*
X99678293Y-82486512D01*
X99843260Y-82520965D01*
X100007246Y-82541642D01*
X100170827Y-82548499D01*
X100334576Y-82541496D01*
X100499070Y-82520592D01*
X100664884Y-82485743D01*
X100832593Y-82436908D01*
X101002772Y-82374047D01*
X101124281Y-82321397D01*
X101199474Y-82285224D01*
X101279117Y-82243922D01*
X101360161Y-82199261D01*
X101439560Y-82153010D01*
X101514265Y-82106940D01*
X101581230Y-82062820D01*
X101632034Y-82026490D01*
X101658696Y-82007055D01*
X101676856Y-81996023D01*
X101689192Y-81992543D01*
X101698384Y-81995766D01*
X101705698Y-82003104D01*
X101715180Y-82011386D01*
X101734259Y-82025761D01*
X101760382Y-82044377D01*
X101790997Y-82065384D01*
X101799115Y-82070834D01*
X101966363Y-82175951D01*
X102134361Y-82268397D01*
X102302578Y-82348012D01*
X102470486Y-82414638D01*
X102637555Y-82468115D01*
X102803258Y-82508284D01*
X102967064Y-82534985D01*
X103128445Y-82548058D01*
X103286872Y-82547346D01*
X103363110Y-82541930D01*
X103532564Y-82519003D01*
X103703546Y-82481861D01*
X103875620Y-82430671D01*
X104048353Y-82365598D01*
X104221311Y-82286810D01*
X104394060Y-82194472D01*
X104566166Y-82088751D01*
X104595085Y-82069622D01*
X104704285Y-81993483D01*
X104814917Y-81910392D01*
X104923724Y-81823018D01*
X105027448Y-81734026D01*
X105122831Y-81646084D01*
X105173767Y-81595881D01*
X105257224Y-81511271D01*
X105148145Y-81404707D01*
X104997112Y-81265002D01*
X104839038Y-81133800D01*
X104675319Y-81011998D01*
X104507353Y-80900496D01*
X104336534Y-80800191D01*
X104164261Y-80711982D01*
X103991929Y-80636768D01*
X103901769Y-80602738D01*
X103895373Y-80599139D01*
X103894157Y-80592480D01*
X103898687Y-80579558D01*
X103909528Y-80557172D01*
X103909988Y-80556257D01*
X103925156Y-80523825D01*
X103943584Y-80480751D01*
X103964045Y-80430198D01*
X103985311Y-80375328D01*
X104006153Y-80319302D01*
X104025346Y-80265283D01*
X104040367Y-80220457D01*
X104089742Y-80050126D01*
X104131270Y-79870622D01*
X104164435Y-79685299D01*
X104188718Y-79497512D01*
X104203601Y-79310617D01*
X104208567Y-79130832D01*
X104208567Y-78986743D01*
X104079753Y-78986773D01*
X103907817Y-78991330D01*
X103732615Y-79004620D01*
X103556445Y-79026190D01*
X103381604Y-79055584D01*
X103210390Y-79092349D01*
X103045101Y-79136030D01*
X102888034Y-79186173D01*
X102741487Y-79242323D01*
X102702591Y-79259087D01*
X102669307Y-79273690D01*
X102640408Y-79286138D01*
X102618695Y-79295243D01*
X102606969Y-79299813D01*
X102606187Y-79300049D01*
X102599260Y-79294583D01*
X102588919Y-79276420D01*
X102575819Y-79246798D01*
X102569120Y-79229857D01*
X102493968Y-79052470D01*
X102405157Y-78875556D01*
X102303521Y-78700376D01*
X102189895Y-78528195D01*
X102065113Y-78360274D01*
X101930008Y-78197876D01*
X101785416Y-78042265D01*
X101782881Y-78039686D01*
X101682927Y-77938086D01*
X101583218Y-78039737D01*
G37*
X101583218Y-78039737D02*
X101423857Y-78212566D01*
X101274883Y-78395516D01*
X101136362Y-78588510D01*
X101112821Y-78623886D01*
X101004586Y-78798990D01*
X100910668Y-78973431D01*
X100831080Y-79147143D01*
X100765835Y-79320061D01*
X100714947Y-79492120D01*
X100678430Y-79663255D01*
X100656297Y-79833400D01*
X100648562Y-80002491D01*
X100655238Y-80170461D01*
X100676340Y-80337247D01*
X100711879Y-80502782D01*
X100717317Y-80523307D01*
X100725625Y-80554015D01*
X100796994Y-80576187D01*
X100835489Y-80588605D01*
X100876614Y-80602604D01*
X100913408Y-80615792D01*
X100924753Y-80620074D01*
X100950987Y-80629593D01*
X100971709Y-80636019D01*
X100983525Y-80638342D01*
X100984911Y-80638018D01*
X100984636Y-80629867D01*
X100980749Y-80611177D01*
X100973992Y-80585250D01*
X100969792Y-80570681D01*
X100931522Y-80419041D01*
X100907068Y-80267808D01*
X100896477Y-80116558D01*
X100899798Y-79964867D01*
X100917080Y-79812312D01*
X100948370Y-79658470D01*
X100993717Y-79502917D01*
X101053169Y-79345230D01*
X101126775Y-79184984D01*
X101128352Y-79181830D01*
X101167577Y-79105413D01*
X101204929Y-79037153D01*
X101243522Y-78971686D01*
X101286470Y-78903649D01*
X101315372Y-78859743D01*
X101384514Y-78760108D01*
X101460304Y-78658248D01*
X101539167Y-78558757D01*
X101617533Y-78466225D01*
X101648501Y-78431572D01*
X101681502Y-78395286D01*
X101697607Y-78409800D01*
X101711759Y-78424124D01*
X101733162Y-78447789D01*
X101760088Y-78478733D01*
X101790806Y-78514896D01*
X101823588Y-78554216D01*
X101856702Y-78594632D01*
X101888420Y-78634084D01*
X101917012Y-78670509D01*
X101923832Y-78679376D01*
X101992763Y-78773384D01*
X102061549Y-78874549D01*
X102126531Y-78977297D01*
X102182816Y-79073829D01*
X102204843Y-79114703D01*
X102227916Y-79159650D01*
X102251208Y-79206830D01*
X102273890Y-79254404D01*
X102295136Y-79300533D01*
X102314118Y-79343378D01*
X102330007Y-79381098D01*
X102341977Y-79411856D01*
X102349200Y-79433811D01*
X102350847Y-79445125D01*
X102350316Y-79446057D01*
X102343355Y-79450963D01*
X102327104Y-79462245D01*
X102304229Y-79478055D01*
X102285424Y-79491019D01*
X102154026Y-79590253D01*
X102031759Y-79700682D01*
X101918603Y-79822335D01*
X101814539Y-79955238D01*
X101719548Y-80099419D01*
X101633611Y-80254904D01*
X101556709Y-80421722D01*
X101488822Y-80599899D01*
X101472469Y-80648629D01*
X101458410Y-80692294D01*
X101445297Y-80734148D01*
X101434086Y-80771056D01*
X101425732Y-80799882D01*
X101421701Y-80815215D01*
X101416815Y-80838207D01*
X101416111Y-80851318D01*
X101419883Y-80858652D01*
X101425078Y-80862387D01*
X101435742Y-80869046D01*
X101455862Y-80881846D01*
X101482709Y-80899041D01*
X101513552Y-80918887D01*
X101518687Y-80922200D01*
X101548833Y-80941100D01*
X101574541Y-80956176D01*
X101593446Y-80966117D01*
X101603183Y-80969614D01*
X101603876Y-80969371D01*
X101607539Y-80960480D01*
X101613685Y-80941057D01*
X101621223Y-80914641D01*
X101624458Y-80902629D01*
X101671606Y-80744769D01*
X101727673Y-80592840D01*
X101792002Y-80448033D01*
X101863934Y-80311537D01*
X101942810Y-80184544D01*
X102027973Y-80068243D01*
X102118762Y-79963824D01*
X102174468Y-79908490D01*
X102293384Y-79806720D01*
X102423159Y-79714255D01*
X102563837Y-79631079D01*
X102715464Y-79557174D01*
X102878085Y-79492526D01*
X103051746Y-79437117D01*
X103236490Y-79390930D01*
X103432365Y-79353951D01*
X103639414Y-79326161D01*
X103826716Y-79309582D01*
X103891179Y-79305144D01*
X103886139Y-79387243D01*
X103866557Y-79607541D01*
X103835368Y-79819254D01*
X103792531Y-80022564D01*
X103738003Y-80217656D01*
X103671743Y-80404713D01*
X103636778Y-80489349D01*
X103622486Y-80522383D01*
X103525455Y-80506053D01*
X103360472Y-80485264D01*
X103195159Y-80478430D01*
X103029289Y-80485599D01*
X102862634Y-80506820D01*
X102694964Y-80542143D01*
X102526053Y-80591616D01*
X102355671Y-80655288D01*
X102183590Y-80733208D01*
X102009583Y-80825425D01*
X101993919Y-80834371D01*
X101951622Y-80859205D01*
X101906957Y-80886365D01*
X101861973Y-80914511D01*
X101818720Y-80942303D01*
X101779247Y-80968401D01*
X101745603Y-80991466D01*
X101719837Y-81010157D01*
X101703997Y-81023137D01*
X101701815Y-81025347D01*
X101695514Y-81033277D01*
X101694148Y-81040678D01*
X101698969Y-81050659D01*
X101711228Y-81066327D01*
X101724620Y-81082013D01*
X101747529Y-81110060D01*
X101771106Y-81141182D01*
X101787928Y-81165214D01*
X101815120Y-81206457D01*
X101882303Y-81159941D01*
X102020302Y-81070626D01*
X102163336Y-80989950D01*
X102309632Y-80918626D01*
X102457419Y-80857369D01*
X102604923Y-80806895D01*
X102750374Y-80767917D01*
X102892000Y-80741150D01*
X102934938Y-80735433D01*
X102991163Y-80730587D01*
X103057107Y-80727904D01*
X103128145Y-80727340D01*
X103199648Y-80728854D01*
X103266993Y-80732403D01*
X103325551Y-80737944D01*
X103334531Y-80739112D01*
X103490136Y-80767299D01*
X103647772Y-80809459D01*
X103806820Y-80865298D01*
X103966659Y-80934520D01*
X104126670Y-81016828D01*
X104286234Y-81111927D01*
X104444730Y-81219522D01*
X104601539Y-81339315D01*
X104615553Y-81350689D01*
X104651023Y-81379936D01*
X104686868Y-81410043D01*
X104719605Y-81438051D01*
X104745753Y-81460998D01*
X104752853Y-81467423D01*
X104800024Y-81510648D01*
X104781881Y-81530465D01*
X104754323Y-81558038D01*
X104716542Y-81592115D01*
X104670435Y-81631214D01*
X104617897Y-81673854D01*
X104560826Y-81718552D01*
X104501118Y-81763827D01*
X104440669Y-81808196D01*
X104381377Y-81850179D01*
X104325137Y-81888293D01*
X104317424Y-81893361D01*
X104166908Y-81986671D01*
X104020120Y-82066990D01*
X103875631Y-82134897D01*
X103732016Y-82190970D01*
X103587846Y-82235787D01*
X103441695Y-82269926D01*
X103347182Y-82286329D01*
X103292617Y-82292546D01*
X103227759Y-82296662D01*
X103156676Y-82298683D01*
X103083435Y-82298612D01*
X103012103Y-82296454D01*
X102946750Y-82292211D01*
X102891441Y-82285888D01*
X102891395Y-82285881D01*
X102735558Y-82255633D01*
X102577419Y-82211613D01*
X102417912Y-82154201D01*
X102257971Y-82083775D01*
X102098530Y-82000711D01*
X101940523Y-81905390D01*
X101922815Y-81893874D01*
X101863121Y-81852120D01*
X101815429Y-81812568D01*
X101777800Y-81773387D01*
X101748292Y-81732748D01*
X101743542Y-81724880D01*
X101719002Y-81673384D01*
X101699983Y-81614070D01*
X101688373Y-81553176D01*
X101686783Y-81537629D01*
X101681321Y-81482267D01*
X101674467Y-81437535D01*
X101665318Y-81399557D01*
X101652973Y-81364455D01*
X101639508Y-81334429D01*
X101621810Y-81301783D01*
X101600811Y-81268720D01*
X101580620Y-81241634D01*
X101577722Y-81238263D01*
X101560545Y-81221328D01*
X101536404Y-81200859D01*
X101507562Y-81178413D01*
X101476285Y-81155553D01*
X101444836Y-81133837D01*
X101415481Y-81114826D01*
X101390484Y-81100080D01*
X101372109Y-81091158D01*
X101362621Y-81089622D01*
X101362315Y-81089864D01*
X101357963Y-81101442D01*
X101354677Y-81124330D01*
X101352516Y-81155359D01*
X101351536Y-81191362D01*
X101351795Y-81229169D01*
X101353351Y-81265612D01*
X101356259Y-81297522D01*
X101358306Y-81311164D01*
X101368452Y-81367727D01*
X101352076Y-81347449D01*
X101337516Y-81327532D01*
X101317429Y-81297395D01*
X101293320Y-81259517D01*
X101266696Y-81216374D01*
X101239067Y-81170441D01*
X101211938Y-81124195D01*
X101186816Y-81080114D01*
X101165210Y-81040672D01*
X101164195Y-81038765D01*
X101113395Y-80943132D01*
X101042223Y-80911360D01*
X101009938Y-80897333D01*
X100974001Y-80882345D01*
X100936902Y-80867359D01*
X100901133Y-80853340D01*
X100869186Y-80841250D01*
X100843551Y-80832053D01*
X100826721Y-80826712D01*
X100821214Y-80825905D01*
X100822317Y-80834182D01*
X100829400Y-80853445D01*
X100841579Y-80881894D01*
X100857968Y-80917728D01*
X100877682Y-80959146D01*
X100899837Y-81004347D01*
X100923546Y-81051530D01*
X100947926Y-81098894D01*
X100972090Y-81144638D01*
X100995154Y-81186961D01*
X101016232Y-81224062D01*
X101020286Y-81230959D01*
X101071704Y-81315633D01*
X101118872Y-81388219D01*
X101163064Y-81450048D01*
X101205553Y-81502455D01*
X101247613Y-81546773D01*
X101290518Y-81584334D01*
X101335540Y-81616472D01*
X101383954Y-81644520D01*
X101437033Y-81669812D01*
X101441227Y-81671630D01*
X101470687Y-81684572D01*
X101489788Y-81694355D01*
X101501534Y-81703493D01*
X101508925Y-81714497D01*
X101514965Y-81729881D01*
X101516626Y-81734735D01*
X101526230Y-81760667D01*
X101536411Y-81784745D01*
X101540320Y-81792846D01*
X101547360Y-81808570D01*
X101546329Y-81818470D01*
X101536404Y-81829297D01*
X101535809Y-81829846D01*
X101523926Y-81839165D01*
X101502586Y-81854361D01*
X101474571Y-81873507D01*
X101442664Y-81894677D01*
X101434650Y-81899900D01*
X101271839Y-81998700D01*
X101108364Y-82084137D01*
X100944748Y-82156002D01*
X100781514Y-82214086D01*
X100619183Y-82258177D01*
X100474767Y-82285651D01*
X100423872Y-82291557D01*
X100363004Y-82295783D01*
X100296142Y-82298292D01*
X100227264Y-82299045D01*
X100160351Y-82298007D01*
X100099381Y-82295139D01*
X100048333Y-82290404D01*
X100042967Y-82289695D01*
X99880409Y-82260295D01*
X99716863Y-82216745D01*
X99553067Y-82159306D01*
X99389758Y-82088241D01*
X99227673Y-82003810D01*
X99211214Y-81994444D01*
X99120232Y-81939715D01*
X99025281Y-81877946D01*
X98929381Y-81811346D01*
X98835551Y-81742125D01*
X98746809Y-81672494D01*
X98666175Y-81604662D01*
X98613310Y-81556745D01*
X98566138Y-81512318D01*
X98602424Y-81478483D01*
X98635117Y-81449038D01*
X98676278Y-81413547D01*
X98722735Y-81374629D01*
X98771313Y-81334905D01*
X98818838Y-81296994D01*
X98862135Y-81263516D01*
X98870938Y-81256885D01*
X99027477Y-81146308D01*
X99185617Y-81047646D01*
X99344497Y-80961320D01*
X99503255Y-80887750D01*
X99661028Y-80827355D01*
X99816955Y-80780555D01*
X99880182Y-80765388D01*
X99975975Y-80747798D01*
X100079132Y-80735409D01*
X100185295Y-80728429D01*
X100290107Y-80727062D01*
X100389210Y-80731516D01*
X100453243Y-80738260D01*
X100512955Y-80747594D01*
X100578172Y-80759900D01*
X100643974Y-80774113D01*
X100705446Y-80789168D01*
X100757669Y-80803997D01*
X100760313Y-80804829D01*
X100787093Y-80813002D01*
X100802661Y-80816651D01*
X100809516Y-80816016D01*
X100810156Y-80811336D01*
X100809635Y-80809553D01*
X100806061Y-80798954D01*
X100798630Y-80777110D01*
X100788191Y-80746503D01*
X100775590Y-80709620D01*
X100764024Y-80675807D01*
X100749779Y-80633218D01*
X100738813Y-80601370D01*
X100728875Y-80578345D01*
X100717714Y-80562222D01*
X100703082Y-80551082D01*
X100682726Y-80543005D01*
X100654398Y-80536071D01*
X100615848Y-80528361D01*
X100583624Y-80521897D01*
X100412444Y-80493773D01*
X100242309Y-80480068D01*
X100073372Y-80480784D01*
X99905789Y-80495921D01*
X99774453Y-80518077D01*
X99611413Y-80557969D01*
X99446134Y-80611418D01*
X99279641Y-80677837D01*
X99112959Y-80756640D01*
X98947113Y-80847240D01*
X98783128Y-80949051D01*
X98622030Y-81061487D01*
X98464843Y-81183962D01*
X98312593Y-81315889D01*
X98210590Y-81412481D01*
X98108938Y-81512304D01*
X98221663Y-81622938D01*
X98368413Y-81759378D01*
X98522005Y-81887677D01*
X98681063Y-82006966D01*
X98844209Y-82116373D01*
X99010067Y-82215029D01*
X99177261Y-82302064D01*
X99344413Y-82376608D01*
X99510148Y-82437790D01*
X99511769Y-82438324D01*
X99678293Y-82486512D01*
X99843260Y-82520965D01*
X100007246Y-82541642D01*
X100170827Y-82548499D01*
X100334576Y-82541496D01*
X100499070Y-82520592D01*
X100664884Y-82485743D01*
X100832593Y-82436908D01*
X101002772Y-82374047D01*
X101124281Y-82321397D01*
X101199474Y-82285224D01*
X101279117Y-82243922D01*
X101360161Y-82199261D01*
X101439560Y-82153010D01*
X101514265Y-82106940D01*
X101581230Y-82062820D01*
X101632034Y-82026490D01*
X101658696Y-82007055D01*
X101676856Y-81996023D01*
X101689192Y-81992543D01*
X101698384Y-81995766D01*
X101705698Y-82003104D01*
X101715180Y-82011386D01*
X101734259Y-82025761D01*
X101760382Y-82044377D01*
X101790997Y-82065384D01*
X101799115Y-82070834D01*
X101966363Y-82175951D01*
X102134361Y-82268397D01*
X102302578Y-82348012D01*
X102470486Y-82414638D01*
X102637555Y-82468115D01*
X102803258Y-82508284D01*
X102967064Y-82534985D01*
X103128445Y-82548058D01*
X103286872Y-82547346D01*
X103363110Y-82541930D01*
X103532564Y-82519003D01*
X103703546Y-82481861D01*
X103875620Y-82430671D01*
X104048353Y-82365598D01*
X104221311Y-82286810D01*
X104394060Y-82194472D01*
X104566166Y-82088751D01*
X104595085Y-82069622D01*
X104704285Y-81993483D01*
X104814917Y-81910392D01*
X104923724Y-81823018D01*
X105027448Y-81734026D01*
X105122831Y-81646084D01*
X105173767Y-81595881D01*
X105257224Y-81511271D01*
X105148145Y-81404707D01*
X104997112Y-81265002D01*
X104839038Y-81133800D01*
X104675319Y-81011998D01*
X104507353Y-80900496D01*
X104336534Y-80800191D01*
X104164261Y-80711982D01*
X103991929Y-80636768D01*
X103901769Y-80602738D01*
X103895373Y-80599139D01*
X103894157Y-80592480D01*
X103898687Y-80579558D01*
X103909528Y-80557172D01*
X103909988Y-80556257D01*
X103925156Y-80523825D01*
X103943584Y-80480751D01*
X103964045Y-80430198D01*
X103985311Y-80375328D01*
X104006153Y-80319302D01*
X104025346Y-80265283D01*
X104040367Y-80220457D01*
X104089742Y-80050126D01*
X104131270Y-79870622D01*
X104164435Y-79685299D01*
X104188718Y-79497512D01*
X104203601Y-79310617D01*
X104208567Y-79130832D01*
X104208567Y-78986743D01*
X104079753Y-78986773D01*
X103907817Y-78991330D01*
X103732615Y-79004620D01*
X103556445Y-79026190D01*
X103381604Y-79055584D01*
X103210390Y-79092349D01*
X103045101Y-79136030D01*
X102888034Y-79186173D01*
X102741487Y-79242323D01*
X102702591Y-79259087D01*
X102669307Y-79273690D01*
X102640408Y-79286138D01*
X102618695Y-79295243D01*
X102606969Y-79299813D01*
X102606187Y-79300049D01*
X102599260Y-79294583D01*
X102588919Y-79276420D01*
X102575819Y-79246798D01*
X102569120Y-79229857D01*
X102493968Y-79052470D01*
X102405157Y-78875556D01*
X102303521Y-78700376D01*
X102189895Y-78528195D01*
X102065113Y-78360274D01*
X101930008Y-78197876D01*
X101785416Y-78042265D01*
X101782881Y-78039686D01*
X101682927Y-77938086D01*
X101583218Y-78039737D01*
G36*
X99248342Y-79560025D02*
G01*
X99216541Y-79592289D01*
X99188596Y-79621635D01*
X99166052Y-79646358D01*
X99150455Y-79664752D01*
X99143351Y-79675111D01*
X99143081Y-79676175D01*
X99148081Y-79684868D01*
X99161778Y-79701473D01*
X99182222Y-79724042D01*
X99207461Y-79750625D01*
X99235545Y-79779273D01*
X99264522Y-79808036D01*
X99292441Y-79834965D01*
X99317350Y-79858110D01*
X99337300Y-79875522D01*
X99350338Y-79885252D01*
X99353726Y-79886629D01*
X99361944Y-79881691D01*
X99378592Y-79867907D01*
X99401970Y-79846823D01*
X99430374Y-79819984D01*
X99462102Y-79788936D01*
X99469685Y-79781368D01*
X99574758Y-79676107D01*
X99464180Y-79565530D01*
X99353603Y-79454952D01*
X99248342Y-79560025D01*
G37*
X99248342Y-79560025D02*
X99216541Y-79592289D01*
X99188596Y-79621635D01*
X99166052Y-79646358D01*
X99150455Y-79664752D01*
X99143351Y-79675111D01*
X99143081Y-79676175D01*
X99148081Y-79684868D01*
X99161778Y-79701473D01*
X99182222Y-79724042D01*
X99207461Y-79750625D01*
X99235545Y-79779273D01*
X99264522Y-79808036D01*
X99292441Y-79834965D01*
X99317350Y-79858110D01*
X99337300Y-79875522D01*
X99350338Y-79885252D01*
X99353726Y-79886629D01*
X99361944Y-79881691D01*
X99378592Y-79867907D01*
X99401970Y-79846823D01*
X99430374Y-79819984D01*
X99462102Y-79788936D01*
X99469685Y-79781368D01*
X99574758Y-79676107D01*
X99464180Y-79565530D01*
X99353603Y-79454952D01*
X99248342Y-79560025D01*
G36*
X100242596Y-79006254D02*
G01*
X100226661Y-79019799D01*
X100205215Y-79039725D01*
X100180398Y-79063864D01*
X100154350Y-79090048D01*
X100129209Y-79116110D01*
X100107116Y-79139883D01*
X100090209Y-79159197D01*
X100080629Y-79171887D01*
X100079253Y-79175146D01*
X100084165Y-79183635D01*
X100097482Y-79199893D01*
X100117069Y-79221742D01*
X100140796Y-79247004D01*
X100166529Y-79273500D01*
X100192138Y-79299052D01*
X100215488Y-79321481D01*
X100234448Y-79338610D01*
X100246886Y-79348260D01*
X100250022Y-79349600D01*
X100257312Y-79344697D01*
X100272920Y-79331118D01*
X100295011Y-79310562D01*
X100321750Y-79284725D01*
X100343850Y-79262803D01*
X100430421Y-79176006D01*
X100344123Y-79088632D01*
X100315232Y-79059777D01*
X100289617Y-79034940D01*
X100269095Y-79015824D01*
X100255484Y-79004131D01*
X100250882Y-79001257D01*
X100242596Y-79006254D01*
G37*
X100242596Y-79006254D02*
X100226661Y-79019799D01*
X100205215Y-79039725D01*
X100180398Y-79063864D01*
X100154350Y-79090048D01*
X100129209Y-79116110D01*
X100107116Y-79139883D01*
X100090209Y-79159197D01*
X100080629Y-79171887D01*
X100079253Y-79175146D01*
X100084165Y-79183635D01*
X100097482Y-79199893D01*
X100117069Y-79221742D01*
X100140796Y-79247004D01*
X100166529Y-79273500D01*
X100192138Y-79299052D01*
X100215488Y-79321481D01*
X100234448Y-79338610D01*
X100246886Y-79348260D01*
X100250022Y-79349600D01*
X100257312Y-79344697D01*
X100272920Y-79331118D01*
X100295011Y-79310562D01*
X100321750Y-79284725D01*
X100343850Y-79262803D01*
X100430421Y-79176006D01*
X100344123Y-79088632D01*
X100315232Y-79059777D01*
X100289617Y-79034940D01*
X100269095Y-79015824D01*
X100255484Y-79004131D01*
X100250882Y-79001257D01*
X100242596Y-79006254D01*
G36*
X100239962Y-79833629D02*
G01*
X100222147Y-79847599D01*
X100198151Y-79868676D01*
X100169778Y-79895055D01*
X100138831Y-79924931D01*
X100107115Y-79956500D01*
X100076433Y-79987956D01*
X100048589Y-80017495D01*
X100025386Y-80043312D01*
X100008629Y-80063601D01*
X100000120Y-80076558D01*
X99999424Y-80079103D01*
X100004401Y-80088099D01*
X100018166Y-80105274D01*
X100038967Y-80128851D01*
X100065053Y-80157052D01*
X100094674Y-80188099D01*
X100126077Y-80220215D01*
X100157514Y-80251620D01*
X100187231Y-80280538D01*
X100213479Y-80305191D01*
X100234506Y-80323801D01*
X100248562Y-80334590D01*
X100253005Y-80336572D01*
X100260907Y-80331649D01*
X100277420Y-80317845D01*
X100300960Y-80296610D01*
X100329940Y-80269392D01*
X100362775Y-80237640D01*
X100381735Y-80218936D01*
X100415882Y-80184613D01*
X100446562Y-80153008D01*
X100472245Y-80125761D01*
X100491399Y-80104510D01*
X100502496Y-80090896D01*
X100504579Y-80087361D01*
X100503918Y-80080635D01*
X100497992Y-80070045D01*
X100485814Y-80054450D01*
X100466396Y-80032708D01*
X100438751Y-80003674D01*
X100401891Y-79966208D01*
X100386736Y-79950997D01*
X100343561Y-79908399D01*
X100307652Y-79874297D01*
X100279635Y-79849252D01*
X100260136Y-79833824D01*
X100249793Y-79828572D01*
X100239962Y-79833629D01*
G37*
X100239962Y-79833629D02*
X100222147Y-79847599D01*
X100198151Y-79868676D01*
X100169778Y-79895055D01*
X100138831Y-79924931D01*
X100107115Y-79956500D01*
X100076433Y-79987956D01*
X100048589Y-80017495D01*
X100025386Y-80043312D01*
X100008629Y-80063601D01*
X100000120Y-80076558D01*
X99999424Y-80079103D01*
X100004401Y-80088099D01*
X100018166Y-80105274D01*
X100038967Y-80128851D01*
X100065053Y-80157052D01*
X100094674Y-80188099D01*
X100126077Y-80220215D01*
X100157514Y-80251620D01*
X100187231Y-80280538D01*
X100213479Y-80305191D01*
X100234506Y-80323801D01*
X100248562Y-80334590D01*
X100253005Y-80336572D01*
X100260907Y-80331649D01*
X100277420Y-80317845D01*
X100300960Y-80296610D01*
X100329940Y-80269392D01*
X100362775Y-80237640D01*
X100381735Y-80218936D01*
X100415882Y-80184613D01*
X100446562Y-80153008D01*
X100472245Y-80125761D01*
X100491399Y-80104510D01*
X100502496Y-80090896D01*
X100504579Y-80087361D01*
X100503918Y-80080635D01*
X100497992Y-80070045D01*
X100485814Y-80054450D01*
X100466396Y-80032708D01*
X100438751Y-80003674D01*
X100401891Y-79966208D01*
X100386736Y-79950997D01*
X100343561Y-79908399D01*
X100307652Y-79874297D01*
X100279635Y-79849252D01*
X100260136Y-79833824D01*
X100249793Y-79828572D01*
X100239962Y-79833629D01*
G36*
X99748194Y-79870775D02*
G01*
X99738523Y-79878344D01*
X99721352Y-79893996D01*
X99698588Y-79915796D01*
X99672141Y-79941806D01*
X99643920Y-79970093D01*
X99615833Y-79998719D01*
X99589789Y-80025750D01*
X99567697Y-80049250D01*
X99551467Y-80067283D01*
X99543006Y-80077913D01*
X99542224Y-80079639D01*
X99547233Y-80087418D01*
X99560979Y-80103166D01*
X99581540Y-80124998D01*
X99606991Y-80151033D01*
X99635411Y-80179386D01*
X99664877Y-80208176D01*
X99693466Y-80235518D01*
X99719255Y-80259531D01*
X99740321Y-80278332D01*
X99754742Y-80290036D01*
X99760126Y-80293029D01*
X99768426Y-80288094D01*
X99785093Y-80274350D01*
X99808370Y-80253383D01*
X99836499Y-80226783D01*
X99867721Y-80196136D01*
X99870707Y-80193149D01*
X99901589Y-80161670D01*
X99928579Y-80133130D01*
X99950093Y-80109290D01*
X99964546Y-80091911D01*
X99970351Y-80082754D01*
X99970395Y-80082384D01*
X99965458Y-80074152D01*
X99951682Y-80057500D01*
X99930619Y-80034140D01*
X99903823Y-80005784D01*
X99872846Y-79974145D01*
X99866122Y-79967411D01*
X99830191Y-79931787D01*
X99802902Y-79905447D01*
X99782829Y-79887222D01*
X99768546Y-79875943D01*
X99758626Y-79870440D01*
X99751642Y-79869546D01*
X99748194Y-79870775D01*
G37*
X99748194Y-79870775D02*
X99738523Y-79878344D01*
X99721352Y-79893996D01*
X99698588Y-79915796D01*
X99672141Y-79941806D01*
X99643920Y-79970093D01*
X99615833Y-79998719D01*
X99589789Y-80025750D01*
X99567697Y-80049250D01*
X99551467Y-80067283D01*
X99543006Y-80077913D01*
X99542224Y-80079639D01*
X99547233Y-80087418D01*
X99560979Y-80103166D01*
X99581540Y-80124998D01*
X99606991Y-80151033D01*
X99635411Y-80179386D01*
X99664877Y-80208176D01*
X99693466Y-80235518D01*
X99719255Y-80259531D01*
X99740321Y-80278332D01*
X99754742Y-80290036D01*
X99760126Y-80293029D01*
X99768426Y-80288094D01*
X99785093Y-80274350D01*
X99808370Y-80253383D01*
X99836499Y-80226783D01*
X99867721Y-80196136D01*
X99870707Y-80193149D01*
X99901589Y-80161670D01*
X99928579Y-80133130D01*
X99950093Y-80109290D01*
X99964546Y-80091911D01*
X99970351Y-80082754D01*
X99970395Y-80082384D01*
X99965458Y-80074152D01*
X99951682Y-80057500D01*
X99930619Y-80034140D01*
X99903823Y-80005784D01*
X99872846Y-79974145D01*
X99866122Y-79967411D01*
X99830191Y-79931787D01*
X99802902Y-79905447D01*
X99782829Y-79887222D01*
X99768546Y-79875943D01*
X99758626Y-79870440D01*
X99751642Y-79869546D01*
X99748194Y-79870775D01*
G36*
X99345051Y-78933682D02*
G01*
X99328540Y-78947495D01*
X99305606Y-78968368D01*
X99278006Y-78994539D01*
X99247498Y-79024249D01*
X99215839Y-79055739D01*
X99184787Y-79087248D01*
X99156098Y-79117017D01*
X99131532Y-79143287D01*
X99112845Y-79164297D01*
X99101795Y-79178288D01*
X99099538Y-79182844D01*
X99104534Y-79191174D01*
X99118348Y-79207684D01*
X99139220Y-79230618D01*
X99165391Y-79258218D01*
X99195102Y-79288726D01*
X99226591Y-79320385D01*
X99258101Y-79351438D01*
X99287870Y-79380126D01*
X99314139Y-79404692D01*
X99335149Y-79423379D01*
X99349140Y-79434430D01*
X99353696Y-79436686D01*
X99361705Y-79431739D01*
X99378307Y-79417853D01*
X99401940Y-79396462D01*
X99431046Y-79368999D01*
X99464064Y-79336900D01*
X99486061Y-79315051D01*
X99520293Y-79280332D01*
X99550791Y-79248551D01*
X99576123Y-79221272D01*
X99594857Y-79200055D01*
X99605562Y-79186463D01*
X99607538Y-79182528D01*
X99602543Y-79174198D01*
X99588729Y-79157688D01*
X99567856Y-79134754D01*
X99541685Y-79107154D01*
X99511975Y-79076646D01*
X99480485Y-79044987D01*
X99448976Y-79013934D01*
X99419207Y-78985246D01*
X99392938Y-78960680D01*
X99371928Y-78941993D01*
X99357937Y-78930942D01*
X99353380Y-78928686D01*
X99345051Y-78933682D01*
G37*
X99345051Y-78933682D02*
X99328540Y-78947495D01*
X99305606Y-78968368D01*
X99278006Y-78994539D01*
X99247498Y-79024249D01*
X99215839Y-79055739D01*
X99184787Y-79087248D01*
X99156098Y-79117017D01*
X99131532Y-79143287D01*
X99112845Y-79164297D01*
X99101795Y-79178288D01*
X99099538Y-79182844D01*
X99104534Y-79191174D01*
X99118348Y-79207684D01*
X99139220Y-79230618D01*
X99165391Y-79258218D01*
X99195102Y-79288726D01*
X99226591Y-79320385D01*
X99258101Y-79351438D01*
X99287870Y-79380126D01*
X99314139Y-79404692D01*
X99335149Y-79423379D01*
X99349140Y-79434430D01*
X99353696Y-79436686D01*
X99361705Y-79431739D01*
X99378307Y-79417853D01*
X99401940Y-79396462D01*
X99431046Y-79368999D01*
X99464064Y-79336900D01*
X99486061Y-79315051D01*
X99520293Y-79280332D01*
X99550791Y-79248551D01*
X99576123Y-79221272D01*
X99594857Y-79200055D01*
X99605562Y-79186463D01*
X99607538Y-79182528D01*
X99602543Y-79174198D01*
X99588729Y-79157688D01*
X99567856Y-79134754D01*
X99541685Y-79107154D01*
X99511975Y-79076646D01*
X99480485Y-79044987D01*
X99448976Y-79013934D01*
X99419207Y-78985246D01*
X99392938Y-78960680D01*
X99371928Y-78941993D01*
X99357937Y-78930942D01*
X99353380Y-78928686D01*
X99345051Y-78933682D01*
G36*
X99344971Y-79920567D02*
G01*
X99328852Y-79933874D01*
X99307125Y-79953447D01*
X99281963Y-79977154D01*
X99255542Y-80002861D01*
X99230036Y-80028437D01*
X99207620Y-80051750D01*
X99190468Y-80070668D01*
X99180756Y-80083058D01*
X99179367Y-80086205D01*
X99184207Y-80093111D01*
X99197351Y-80108048D01*
X99216735Y-80128911D01*
X99240294Y-80153591D01*
X99265965Y-80179982D01*
X99291684Y-80205977D01*
X99315387Y-80229469D01*
X99335009Y-80248350D01*
X99348486Y-80260515D01*
X99353538Y-80264000D01*
X99359688Y-80259119D01*
X99374263Y-80245611D01*
X99395490Y-80225175D01*
X99421597Y-80199511D01*
X99442552Y-80178620D01*
X99470925Y-80149755D01*
X99495292Y-80124170D01*
X99513945Y-80103722D01*
X99525177Y-80090270D01*
X99527710Y-80085973D01*
X99522691Y-80077773D01*
X99509088Y-80061965D01*
X99489078Y-80040676D01*
X99464842Y-80016033D01*
X99438559Y-79990166D01*
X99412406Y-79965202D01*
X99388564Y-79943268D01*
X99369211Y-79926493D01*
X99356527Y-79917005D01*
X99353306Y-79915657D01*
X99344971Y-79920567D01*
G37*
X99344971Y-79920567D02*
X99328852Y-79933874D01*
X99307125Y-79953447D01*
X99281963Y-79977154D01*
X99255542Y-80002861D01*
X99230036Y-80028437D01*
X99207620Y-80051750D01*
X99190468Y-80070668D01*
X99180756Y-80083058D01*
X99179367Y-80086205D01*
X99184207Y-80093111D01*
X99197351Y-80108048D01*
X99216735Y-80128911D01*
X99240294Y-80153591D01*
X99265965Y-80179982D01*
X99291684Y-80205977D01*
X99315387Y-80229469D01*
X99335009Y-80248350D01*
X99348486Y-80260515D01*
X99353538Y-80264000D01*
X99359688Y-80259119D01*
X99374263Y-80245611D01*
X99395490Y-80225175D01*
X99421597Y-80199511D01*
X99442552Y-80178620D01*
X99470925Y-80149755D01*
X99495292Y-80124170D01*
X99513945Y-80103722D01*
X99525177Y-80090270D01*
X99527710Y-80085973D01*
X99522691Y-80077773D01*
X99509088Y-80061965D01*
X99489078Y-80040676D01*
X99464842Y-80016033D01*
X99438559Y-79990166D01*
X99412406Y-79965202D01*
X99388564Y-79943268D01*
X99369211Y-79926493D01*
X99356527Y-79917005D01*
X99353306Y-79915657D01*
X99344971Y-79920567D01*
G36*
X99838822Y-78977154D02*
G01*
X99822705Y-78990669D01*
X99800403Y-79010884D01*
X99773835Y-79035910D01*
X99744920Y-79063854D01*
X99715577Y-79092829D01*
X99687724Y-79120943D01*
X99663282Y-79146306D01*
X99644168Y-79167028D01*
X99632301Y-79181219D01*
X99629310Y-79186499D01*
X99634249Y-79193816D01*
X99647801Y-79209244D01*
X99668067Y-79230888D01*
X99693145Y-79256850D01*
X99721137Y-79285234D01*
X99750143Y-79314144D01*
X99778264Y-79341684D01*
X99803599Y-79365957D01*
X99824249Y-79385067D01*
X99838315Y-79397117D01*
X99843580Y-79400400D01*
X99850696Y-79395482D01*
X99866330Y-79381761D01*
X99888824Y-79360787D01*
X99916524Y-79334110D01*
X99947775Y-79303279D01*
X99954161Y-79296895D01*
X99985625Y-79264855D01*
X100013228Y-79235754D01*
X100035413Y-79211315D01*
X100050624Y-79193260D01*
X100057304Y-79183313D01*
X100057481Y-79182498D01*
X100052481Y-79173843D01*
X100038783Y-79157274D01*
X100018338Y-79134741D01*
X99993097Y-79108190D01*
X99965012Y-79079570D01*
X99936035Y-79050830D01*
X99908117Y-79023916D01*
X99883209Y-79000778D01*
X99863263Y-78983362D01*
X99850231Y-78973618D01*
X99846836Y-78972229D01*
X99838822Y-78977154D01*
G37*
X99838822Y-78977154D02*
X99822705Y-78990669D01*
X99800403Y-79010884D01*
X99773835Y-79035910D01*
X99744920Y-79063854D01*
X99715577Y-79092829D01*
X99687724Y-79120943D01*
X99663282Y-79146306D01*
X99644168Y-79167028D01*
X99632301Y-79181219D01*
X99629310Y-79186499D01*
X99634249Y-79193816D01*
X99647801Y-79209244D01*
X99668067Y-79230888D01*
X99693145Y-79256850D01*
X99721137Y-79285234D01*
X99750143Y-79314144D01*
X99778264Y-79341684D01*
X99803599Y-79365957D01*
X99824249Y-79385067D01*
X99838315Y-79397117D01*
X99843580Y-79400400D01*
X99850696Y-79395482D01*
X99866330Y-79381761D01*
X99888824Y-79360787D01*
X99916524Y-79334110D01*
X99947775Y-79303279D01*
X99954161Y-79296895D01*
X99985625Y-79264855D01*
X100013228Y-79235754D01*
X100035413Y-79211315D01*
X100050624Y-79193260D01*
X100057304Y-79183313D01*
X100057481Y-79182498D01*
X100052481Y-79173843D01*
X100038783Y-79157274D01*
X100018338Y-79134741D01*
X99993097Y-79108190D01*
X99965012Y-79079570D01*
X99936035Y-79050830D01*
X99908117Y-79023916D01*
X99883209Y-79000778D01*
X99863263Y-78983362D01*
X99850231Y-78973618D01*
X99846836Y-78972229D01*
X99838822Y-78977154D01*
D11*
X153800000Y-68150000D02*
X158850000Y-68104000D01*
X153800000Y-68196000D02*
X153800000Y-72104000D01*
X153800000Y-72104000D02*
X162425000Y-72104000D01*
X164700000Y-70150000D02*
X164700000Y-66205000D01*
X164700000Y-66196000D02*
X161090000Y-66196000D01*
X164689000Y-70220000D02*
G75*
G02*
X162425000Y-72104000I-2074000J190000D01*
G01*
X161084999Y-66220001D02*
G75*
G02*
X158825000Y-68100000I-2069999J190000D01*
G01*
X115700000Y-71950000D02*
X120750000Y-71904000D01*
X115700000Y-71996000D02*
X115700000Y-75904000D01*
X115700000Y-75904000D02*
X124325000Y-75904000D01*
X126600000Y-73950000D02*
X126600000Y-70005000D01*
X126600000Y-69996000D02*
X122990000Y-69996000D01*
X126589000Y-74020000D02*
G75*
G02*
X124325000Y-75904000I-2074000J190000D01*
G01*
X122984999Y-70020001D02*
G75*
G02*
X120725000Y-71900000I-2069999J190000D01*
G01*
X145600000Y-48496000D02*
X141990000Y-48496000D01*
X145600000Y-52450000D02*
X145600000Y-48505000D01*
X134700000Y-54404000D02*
X143325000Y-54404000D01*
X134700000Y-50496000D02*
X134700000Y-54404000D01*
X134700000Y-50450000D02*
X139750000Y-50404000D01*
X141984999Y-48520001D02*
G75*
G02*
X139725000Y-50400000I-2069999J190000D01*
G01*
X145589000Y-52520000D02*
G75*
G02*
X143325000Y-54404000I-2074000J190000D01*
G01*
X172800000Y-50450000D02*
X177850000Y-50404000D01*
X172800000Y-50496000D02*
X172800000Y-54404000D01*
X172800000Y-54404000D02*
X181425000Y-54404000D01*
X183700000Y-52450000D02*
X183700000Y-48505000D01*
X183700000Y-48496000D02*
X180090000Y-48496000D01*
X183689000Y-52520000D02*
G75*
G02*
X181425000Y-54404000I-2074000J190000D01*
G01*
X180084999Y-48520001D02*
G75*
G02*
X177825000Y-50400000I-2069999J190000D01*
G01*
X115700000Y-52850000D02*
X120750000Y-52804000D01*
X115700000Y-52896000D02*
X115700000Y-56804000D01*
X115700000Y-56804000D02*
X124325000Y-56804000D01*
X126600000Y-54850000D02*
X126600000Y-50905000D01*
X126600000Y-50896000D02*
X122990000Y-50896000D01*
X126589000Y-54920000D02*
G75*
G02*
X124325000Y-56804000I-2074000J190000D01*
G01*
X122984999Y-50920001D02*
G75*
G02*
X120725000Y-52800000I-2069999J190000D01*
G01*
X221850000Y-111896000D02*
X218240000Y-111896000D01*
X221850000Y-115850000D02*
X221850000Y-111905000D01*
X210950000Y-117804000D02*
X219575000Y-117804000D01*
X210950000Y-113896000D02*
X210950000Y-117804000D01*
X210950000Y-113850000D02*
X216000000Y-113804000D01*
X218234999Y-111920001D02*
G75*
G02*
X215975000Y-113800000I-2069999J190000D01*
G01*
X221839000Y-115920000D02*
G75*
G02*
X219575000Y-117804000I-2074000J190000D01*
G01*
X134700000Y-107650000D02*
X139750000Y-107604000D01*
X134700000Y-107696000D02*
X134700000Y-111604000D01*
X134700000Y-111604000D02*
X143325000Y-111604000D01*
X145600000Y-109650000D02*
X145600000Y-105705000D01*
X145600000Y-105696000D02*
X141990000Y-105696000D01*
X145589000Y-109720000D02*
G75*
G02*
X143325000Y-111604000I-2074000J190000D01*
G01*
X141984999Y-105720001D02*
G75*
G02*
X139725000Y-107600000I-2069999J190000D01*
G01*
X126600000Y-107996000D02*
X122990000Y-107996000D01*
X126600000Y-111950000D02*
X126600000Y-108005000D01*
X115700000Y-113904000D02*
X124325000Y-113904000D01*
X115700000Y-109996000D02*
X115700000Y-113904000D01*
X115700000Y-109950000D02*
X120750000Y-109904000D01*
X122984999Y-108020001D02*
G75*
G02*
X120725000Y-109900000I-2069999J190000D01*
G01*
X126589000Y-112020000D02*
G75*
G02*
X124325000Y-113904000I-2074000J190000D01*
G01*
X151700000Y-78681000D02*
X153100000Y-78681000D01*
X153100000Y-78681000D02*
X152400000Y-77781000D01*
X152400000Y-77781000D02*
X151700000Y-78681000D01*
X151700000Y-77781000D02*
X153100000Y-77781000D01*
X154113000Y-77781000D02*
X155513000Y-77781000D01*
X154813000Y-77781000D02*
X154113000Y-78681000D01*
X155513000Y-78681000D02*
X154813000Y-77781000D01*
X154113000Y-78681000D02*
X155513000Y-78681000D01*
X156526000Y-78681000D02*
X157926000Y-78681000D01*
X157926000Y-78681000D02*
X157226000Y-77781000D01*
X157226000Y-77781000D02*
X156526000Y-78681000D01*
X156526000Y-77781000D02*
X157926000Y-77781000D01*
X158939000Y-77781000D02*
X160339000Y-77781000D01*
X159639000Y-77781000D02*
X158939000Y-78681000D01*
X160339000Y-78681000D02*
X159639000Y-77781000D01*
X158939000Y-78681000D02*
X160339000Y-78681000D01*
X161352000Y-78681000D02*
X162752000Y-78681000D01*
X162752000Y-78681000D02*
X162052000Y-77781000D01*
X162052000Y-77781000D02*
X161352000Y-78681000D01*
X161352000Y-77781000D02*
X162752000Y-77781000D01*
X163765000Y-77781000D02*
X165165000Y-77781000D01*
X164465000Y-77781000D02*
X163765000Y-78681000D01*
X165165000Y-78681000D02*
X164465000Y-77781000D01*
X163765000Y-78681000D02*
X165165000Y-78681000D01*
X151827000Y-97604000D02*
X153227000Y-97604000D01*
X153227000Y-97604000D02*
X152527000Y-96704000D01*
X152527000Y-96704000D02*
X151827000Y-97604000D01*
X151827000Y-96704000D02*
X153227000Y-96704000D01*
X154240000Y-96704000D02*
X155640000Y-96704000D01*
X154940000Y-96704000D02*
X154240000Y-97604000D01*
X155640000Y-97604000D02*
X154940000Y-96704000D01*
X154240000Y-97604000D02*
X155640000Y-97604000D01*
X156653000Y-97604000D02*
X158053000Y-97604000D01*
X158053000Y-97604000D02*
X157353000Y-96704000D01*
X157353000Y-96704000D02*
X156653000Y-97604000D01*
X156653000Y-96704000D02*
X158053000Y-96704000D01*
X159066000Y-96704000D02*
X160466000Y-96704000D01*
X159766000Y-96704000D02*
X159066000Y-97604000D01*
X160466000Y-97604000D02*
X159766000Y-96704000D01*
X159066000Y-97604000D02*
X160466000Y-97604000D01*
X161479000Y-97604000D02*
X162879000Y-97604000D01*
X162879000Y-97604000D02*
X162179000Y-96704000D01*
X162179000Y-96704000D02*
X161479000Y-97604000D01*
X161479000Y-96704000D02*
X162879000Y-96704000D01*
X164019000Y-96704000D02*
X165419000Y-96704000D01*
X164719000Y-96704000D02*
X164019000Y-97604000D01*
X165419000Y-97604000D02*
X164719000Y-96704000D01*
X164019000Y-97604000D02*
X165419000Y-97604000D01*
X172800000Y-107650000D02*
X177850000Y-107604000D01*
X172800000Y-107696000D02*
X172800000Y-111604000D01*
X172800000Y-111604000D02*
X181425000Y-111604000D01*
X183700000Y-109650000D02*
X183700000Y-105705000D01*
X183700000Y-105696000D02*
X180090000Y-105696000D01*
X183689000Y-109720000D02*
G75*
G02*
X181425000Y-111604000I-2074000J190000D01*
G01*
X180084999Y-105720001D02*
G75*
G02*
X177825000Y-107600000I-2069999J190000D01*
G01*
X151700000Y-57363000D02*
X153100000Y-57363000D01*
X152400000Y-57363000D02*
X151700000Y-58263000D01*
X153100000Y-58263000D02*
X152400000Y-57363000D01*
X151700000Y-58263000D02*
X153100000Y-58263000D01*
X154113000Y-58263000D02*
X155513000Y-58263000D01*
X155513000Y-58263000D02*
X154813000Y-57363000D01*
X154813000Y-57363000D02*
X154113000Y-58263000D01*
X154113000Y-57363000D02*
X155513000Y-57363000D01*
X156526000Y-57363000D02*
X157926000Y-57363000D01*
X157226000Y-57363000D02*
X156526000Y-58263000D01*
X157926000Y-58263000D02*
X157226000Y-57363000D01*
X156526000Y-58263000D02*
X157926000Y-58263000D01*
X158939000Y-58263000D02*
X160339000Y-58263000D01*
X160339000Y-58263000D02*
X159639000Y-57363000D01*
X159639000Y-57363000D02*
X158939000Y-58263000D01*
X158939000Y-57363000D02*
X160339000Y-57363000D01*
X161352000Y-57363000D02*
X162752000Y-57363000D01*
X162052000Y-57363000D02*
X161352000Y-58263000D01*
X162752000Y-58263000D02*
X162052000Y-57363000D01*
X161352000Y-58263000D02*
X162752000Y-58263000D01*
X163765000Y-58263000D02*
X165165000Y-58263000D01*
X165165000Y-58263000D02*
X164465000Y-57363000D01*
X164465000Y-57363000D02*
X163765000Y-58263000D01*
X163765000Y-57363000D02*
X165165000Y-57363000D01*
X221800000Y-73696000D02*
X218190000Y-73696000D01*
X221800000Y-77650000D02*
X221800000Y-73705000D01*
X210900000Y-79604000D02*
X219525000Y-79604000D01*
X210900000Y-75696000D02*
X210900000Y-79604000D01*
X210900000Y-75650000D02*
X215950000Y-75604000D01*
X218184999Y-73720001D02*
G75*
G02*
X215925000Y-75600000I-2069999J190000D01*
G01*
X221789000Y-77720000D02*
G75*
G02*
X219525000Y-79604000I-2074000J190000D01*
G01*
X183700000Y-67496000D02*
X180090000Y-67496000D01*
X183700000Y-71450000D02*
X183700000Y-67505000D01*
X172800000Y-73404000D02*
X181425000Y-73404000D01*
X172800000Y-69496000D02*
X172800000Y-73404000D01*
X172800000Y-69450000D02*
X177850000Y-69404000D01*
X180084999Y-67520001D02*
G75*
G02*
X177825000Y-69400000I-2069999J190000D01*
G01*
X183689000Y-71520000D02*
G75*
G02*
X181425000Y-73404000I-2074000J190000D01*
G01*
X202800000Y-53296000D02*
X199190000Y-53296000D01*
X202800000Y-57250000D02*
X202800000Y-53305000D01*
X191900000Y-59204000D02*
X200525000Y-59204000D01*
X191900000Y-55296000D02*
X191900000Y-59204000D01*
X191900000Y-55250000D02*
X196950000Y-55204000D01*
X199184999Y-53320001D02*
G75*
G02*
X196925000Y-55200000I-2069999J190000D01*
G01*
X202789000Y-57320000D02*
G75*
G02*
X200525000Y-59204000I-2074000J190000D01*
G01*
X90910000Y-70440000D02*
X90910000Y-39960000D01*
X93450000Y-70440000D02*
X90910000Y-70440000D01*
X93450000Y-39960000D02*
X93450000Y-70440000D01*
X90910000Y-39960000D02*
X93450000Y-39960000D01*
X106150000Y-70440000D02*
X106150000Y-39960000D01*
X108690000Y-70440000D02*
X106150000Y-70440000D01*
X108690000Y-39960000D02*
X108690000Y-70440000D01*
X106150000Y-39960000D02*
X108690000Y-39960000D01*
X90910000Y-70440000D02*
X90910000Y-37420000D01*
X108690000Y-37420000D02*
X108690000Y-70440000D01*
X90910000Y-37420000D02*
X108690000Y-37420000D01*
X151827000Y-40599000D02*
X153227000Y-40599000D01*
X152527000Y-40599000D02*
X151827000Y-41499000D01*
X153227000Y-41499000D02*
X152527000Y-40599000D01*
X151827000Y-41499000D02*
X153227000Y-41499000D01*
X154240000Y-41499000D02*
X155640000Y-41499000D01*
X155640000Y-41499000D02*
X154940000Y-40599000D01*
X154940000Y-40599000D02*
X154240000Y-41499000D01*
X154240000Y-40599000D02*
X155640000Y-40599000D01*
X159066000Y-41499000D02*
X160466000Y-41499000D01*
X160466000Y-41499000D02*
X159766000Y-40599000D01*
X159766000Y-40599000D02*
X159066000Y-41499000D01*
X159066000Y-40599000D02*
X160466000Y-40599000D01*
X161479000Y-40599000D02*
X162879000Y-40599000D01*
X162179000Y-40599000D02*
X161479000Y-41499000D01*
X162879000Y-41499000D02*
X162179000Y-40599000D01*
X161479000Y-41499000D02*
X162879000Y-41499000D01*
X163892000Y-41499000D02*
X165292000Y-41499000D01*
X165292000Y-41499000D02*
X164592000Y-40599000D01*
X164592000Y-40599000D02*
X163892000Y-41499000D01*
X163892000Y-40599000D02*
X165292000Y-40599000D01*
X156653000Y-40599000D02*
X158053000Y-40599000D01*
X157353000Y-40599000D02*
X156653000Y-41499000D01*
X158053000Y-41499000D02*
X157353000Y-40599000D01*
X156653000Y-41499000D02*
X158053000Y-41499000D01*
X164700000Y-47106000D02*
X161090000Y-47106000D01*
X164700000Y-51060000D02*
X164700000Y-47115000D01*
X153800000Y-53014000D02*
X162425000Y-53014000D01*
X153800000Y-49106000D02*
X153800000Y-53014000D01*
X153800000Y-49060000D02*
X158850000Y-49014000D01*
X161084999Y-47130001D02*
G75*
G02*
X158825000Y-49010000I-2069999J190000D01*
G01*
X164689000Y-51130000D02*
G75*
G02*
X162425000Y-53014000I-2074000J190000D01*
G01*
D12*
X84683800Y-80328500D02*
X84683800Y-77878500D01*
X84683800Y-77878500D02*
X86133800Y-77878500D01*
X86133800Y-77878500D02*
X86133800Y-80298500D01*
X86133800Y-80328500D02*
X84683800Y-80328500D01*
D11*
X174200000Y-124646000D02*
X170590000Y-124646000D01*
X174200000Y-128600000D02*
X174200000Y-124655000D01*
X163300000Y-130554000D02*
X171925000Y-130554000D01*
X163300000Y-126646000D02*
X163300000Y-130554000D01*
X163300000Y-126600000D02*
X168350000Y-126554000D01*
X170584999Y-124670001D02*
G75*
G02*
X168325000Y-126550000I-2069999J190000D01*
G01*
X174189000Y-128670000D02*
G75*
G02*
X171925000Y-130554000I-2074000J190000D01*
G01*
X107500000Y-98396000D02*
X103890000Y-98396000D01*
X107500000Y-102350000D02*
X107500000Y-98405000D01*
X96600000Y-104304000D02*
X105225000Y-104304000D01*
X96600000Y-100396000D02*
X96600000Y-104304000D01*
X96600000Y-100350000D02*
X101650000Y-100304000D01*
X103884999Y-98420001D02*
G75*
G02*
X101625000Y-100300000I-2069999J190000D01*
G01*
X107489000Y-102420000D02*
G75*
G02*
X105225000Y-104304000I-2074000J190000D01*
G01*
X221800000Y-54796000D02*
X218190000Y-54796000D01*
X221800000Y-58750000D02*
X221800000Y-54805000D01*
X210900000Y-60704000D02*
X219525000Y-60704000D01*
X210900000Y-56796000D02*
X210900000Y-60704000D01*
X210900000Y-56750000D02*
X215950000Y-56704000D01*
X218184999Y-54820001D02*
G75*
G02*
X215925000Y-56700000I-2069999J190000D01*
G01*
X221789000Y-58820000D02*
G75*
G02*
X219525000Y-60704000I-2074000J190000D01*
G01*
X115700000Y-90950000D02*
X120750000Y-90904000D01*
X115700000Y-90996000D02*
X115700000Y-94904000D01*
X115700000Y-94904000D02*
X124325000Y-94904000D01*
X126600000Y-92950000D02*
X126600000Y-89005000D01*
X126600000Y-88996000D02*
X122990000Y-88996000D01*
X126589000Y-93020000D02*
G75*
G02*
X124325000Y-94904000I-2074000J190000D01*
G01*
X122984999Y-89020001D02*
G75*
G02*
X120725000Y-90900000I-2069999J190000D01*
G01*
X145600000Y-67596000D02*
X141990000Y-67596000D01*
X145600000Y-71550000D02*
X145600000Y-67605000D01*
X134700000Y-73504000D02*
X143325000Y-73504000D01*
X134700000Y-69596000D02*
X134700000Y-73504000D01*
X134700000Y-69550000D02*
X139750000Y-69504000D01*
X141984999Y-67620001D02*
G75*
G02*
X139725000Y-69500000I-2069999J190000D01*
G01*
X145589000Y-71620000D02*
G75*
G02*
X143325000Y-73504000I-2074000J190000D01*
G01*
X191900000Y-74150000D02*
X196950000Y-74104000D01*
X191900000Y-74196000D02*
X191900000Y-78104000D01*
X191900000Y-78104000D02*
X200525000Y-78104000D01*
X202800000Y-76150000D02*
X202800000Y-72205000D01*
X202800000Y-72196000D02*
X199190000Y-72196000D01*
X202789000Y-76220000D02*
G75*
G02*
X200525000Y-78104000I-2074000J190000D01*
G01*
X199184999Y-72220001D02*
G75*
G02*
X196925000Y-74100000I-2069999J190000D01*
G01*
X107274041Y-132730755D02*
X105469041Y-129604403D01*
X103849777Y-134707755D02*
X107266247Y-132735255D01*
X96707563Y-126245078D02*
X101020063Y-133714547D01*
X100091990Y-124291078D02*
X96707563Y-126245078D01*
X100131828Y-124268078D02*
X102696665Y-128618506D01*
X105445756Y-129612073D02*
G75*
G02*
X102687629Y-128594856I-870455J1887672D01*
G01*
X103783655Y-134733229D02*
G75*
G02*
X101020063Y-133714547I-872455J1891137D01*
G01*
X125200000Y-128850000D02*
X130250000Y-128804000D01*
X125200000Y-128896000D02*
X125200000Y-132804000D01*
X125200000Y-132804000D02*
X133825000Y-132804000D01*
X136100000Y-130850000D02*
X136100000Y-126905000D01*
X136100000Y-126896000D02*
X132490000Y-126896000D01*
X136089000Y-130920000D02*
G75*
G02*
X133825000Y-132804000I-2074000J190000D01*
G01*
X132484999Y-126920001D02*
G75*
G02*
X130225000Y-128800000I-2069999J190000D01*
G01*
X172800000Y-88550000D02*
X177850000Y-88504000D01*
X172800000Y-88596000D02*
X172800000Y-92504000D01*
X172800000Y-92504000D02*
X181425000Y-92504000D01*
X183700000Y-90550000D02*
X183700000Y-86605000D01*
X183700000Y-86596000D02*
X180090000Y-86596000D01*
X183689000Y-90620000D02*
G75*
G02*
X181425000Y-92504000I-2074000J190000D01*
G01*
X180084999Y-86620001D02*
G75*
G02*
X177825000Y-88500000I-2069999J190000D01*
G01*
X164700000Y-85296000D02*
X161090000Y-85296000D01*
X164700000Y-89250000D02*
X164700000Y-85305000D01*
X153800000Y-91204000D02*
X162425000Y-91204000D01*
X153800000Y-87296000D02*
X153800000Y-91204000D01*
X153800000Y-87250000D02*
X158850000Y-87204000D01*
X161084999Y-85320001D02*
G75*
G02*
X158825000Y-87200000I-2069999J190000D01*
G01*
X164689000Y-89320000D02*
G75*
G02*
X162425000Y-91204000I-2074000J190000D01*
G01*
X202800000Y-91396000D02*
X199190000Y-91396000D01*
X202800000Y-95350000D02*
X202800000Y-91405000D01*
X191900000Y-97304000D02*
X200525000Y-97304000D01*
X191900000Y-93396000D02*
X191900000Y-97304000D01*
X191900000Y-93350000D02*
X196950000Y-93304000D01*
X199184999Y-91420001D02*
G75*
G02*
X196925000Y-93300000I-2069999J190000D01*
G01*
X202789000Y-95420000D02*
G75*
G02*
X200525000Y-97304000I-2074000J190000D01*
G01*
X210900000Y-94850000D02*
X215950000Y-94804000D01*
X210900000Y-94896000D02*
X210900000Y-98804000D01*
X210900000Y-98804000D02*
X219525000Y-98804000D01*
X221800000Y-96850000D02*
X221800000Y-92905000D01*
X221800000Y-92896000D02*
X218190000Y-92896000D01*
X221789000Y-96920000D02*
G75*
G02*
X219525000Y-98804000I-2074000J190000D01*
G01*
X218184999Y-92920001D02*
G75*
G02*
X215925000Y-94800000I-2069999J190000D01*
G01*
X112406000Y-76316000D02*
X112406000Y-78116000D01*
X110606000Y-76316000D02*
X112406000Y-76316000D01*
X110606000Y-78116000D02*
X110606000Y-76316000D01*
X112406000Y-78116000D02*
X110606000Y-78116000D01*
X112406000Y-81416000D02*
X112406000Y-83216000D01*
X110606000Y-81416000D02*
X112406000Y-81416000D01*
X110606000Y-83216000D02*
X110606000Y-81416000D01*
X112406000Y-83216000D02*
X110606000Y-83216000D01*
X112406000Y-78916000D02*
X112406000Y-80716000D01*
X110606000Y-78916000D02*
X112406000Y-78916000D01*
X110606000Y-80716000D02*
X110606000Y-78916000D01*
X112406000Y-80716000D02*
X110606000Y-80716000D01*
X88650000Y-39300000D02*
X88650000Y-37400000D01*
X89150000Y-39300000D02*
X88650000Y-39300000D01*
X83700000Y-37400000D02*
X88650000Y-37400000D01*
X83650000Y-39300000D02*
X83650000Y-37400000D01*
X83150000Y-51300000D02*
X83150000Y-39300000D01*
X89150000Y-51300000D02*
X83150000Y-51300000D01*
X89150000Y-39300000D02*
X89150000Y-51300000D01*
X83150000Y-39300000D02*
X83650000Y-39300000D01*
X95430000Y-73330000D02*
X105590000Y-73330000D01*
X105590000Y-73330000D02*
X105590000Y-75870000D01*
X105590000Y-75870000D02*
X95430000Y-75870000D01*
X95430000Y-75870000D02*
X95430000Y-73330000D01*
X105189000Y-70443000D02*
X105189000Y-68157000D01*
X105189000Y-68157000D02*
X103411000Y-68157000D01*
X103411000Y-68157000D02*
X103411000Y-70443000D01*
X103411000Y-70443000D02*
X105189000Y-70443000D01*
X102589000Y-70443000D02*
X102589000Y-68157000D01*
X102589000Y-68157000D02*
X100811000Y-68157000D01*
X100811000Y-68157000D02*
X100811000Y-70443000D01*
X100811000Y-70443000D02*
X102589000Y-70443000D01*
X100089000Y-70443000D02*
X100089000Y-68157000D01*
X100089000Y-68157000D02*
X98311000Y-68157000D01*
X98311000Y-68157000D02*
X98311000Y-70443000D01*
X98311000Y-70443000D02*
X100089000Y-70443000D01*
X97589000Y-70443000D02*
X97589000Y-68157000D01*
X97589000Y-68157000D02*
X95811000Y-68157000D01*
X95811000Y-68157000D02*
X95811000Y-70443000D01*
X95811000Y-70443000D02*
X97589000Y-70443000D01*
X85700000Y-61700000D02*
X83700000Y-61700000D01*
X83700000Y-61700000D02*
X83700000Y-59700000D01*
X83700000Y-59700000D02*
X85700000Y-59700000D01*
X85700000Y-59700000D02*
X85700000Y-61700000D01*
X87900000Y-59700000D02*
X87900000Y-61700000D01*
X85900000Y-59700000D02*
X87900000Y-59700000D01*
X85900000Y-61700000D02*
X85900000Y-59700000D01*
X87900000Y-61700000D02*
X85900000Y-61700000D01*
X83688035Y-54539272D02*
X85688035Y-54539272D01*
X83688035Y-57539272D02*
X83688035Y-54539272D01*
X85688035Y-57539272D02*
X83688035Y-57539272D01*
X85688035Y-54539272D02*
X85688035Y-57539272D01*
X87938035Y-54539272D02*
X87938035Y-57539272D01*
X87938035Y-57539272D02*
X85938035Y-57539272D01*
X85938035Y-57539272D02*
X85938035Y-54539272D01*
X85938035Y-54539272D02*
X87938035Y-54539272D01*
X83200000Y-70700000D02*
X83200000Y-64800000D01*
X83200000Y-70700000D02*
X83200000Y-64700000D01*
X86700000Y-64700000D02*
X86700000Y-70700000D01*
X83200000Y-64700000D02*
X83900000Y-64700000D01*
X86700000Y-64700000D02*
X86100000Y-64700000D01*
X86700000Y-70700000D02*
X86100000Y-70700000D01*
X83200000Y-70700000D02*
X83900000Y-70700000D01*
X134700000Y-88550000D02*
X139750000Y-88504000D01*
X134700000Y-88596000D02*
X134700000Y-92504000D01*
X134700000Y-92504000D02*
X143325000Y-92504000D01*
X145600000Y-90550000D02*
X145600000Y-86605000D01*
X145600000Y-86596000D02*
X141990000Y-86596000D01*
X145589000Y-90620000D02*
G75*
G02*
X143325000Y-92504000I-2074000J190000D01*
G01*
X141984999Y-86620001D02*
G75*
G02*
X139725000Y-88500000I-2069999J190000D01*
G01*
X164700000Y-104296000D02*
X161090000Y-104296000D01*
X164700000Y-108250000D02*
X164700000Y-104305000D01*
X153800000Y-110204000D02*
X162425000Y-110204000D01*
X153800000Y-106296000D02*
X153800000Y-110204000D01*
X153800000Y-106250000D02*
X158850000Y-106204000D01*
X161084999Y-104320001D02*
G75*
G02*
X158825000Y-106200000I-2069999J190000D01*
G01*
X164689000Y-108320000D02*
G75*
G02*
X162425000Y-110204000I-2074000J190000D01*
G01*
X202800000Y-110396000D02*
X199190000Y-110396000D01*
X202800000Y-114350000D02*
X202800000Y-110405000D01*
X191900000Y-116304000D02*
X200525000Y-116304000D01*
X191900000Y-112396000D02*
X191900000Y-116304000D01*
X191900000Y-112350000D02*
X196950000Y-112304000D01*
X199184999Y-110420001D02*
G75*
G02*
X196925000Y-112300000I-2069999J190000D01*
G01*
X202789000Y-114420000D02*
G75*
G02*
X200525000Y-116304000I-2074000J190000D01*
G01*
X155100000Y-124646000D02*
X151490000Y-124646000D01*
X155100000Y-128600000D02*
X155100000Y-124655000D01*
X144200000Y-130554000D02*
X152825000Y-130554000D01*
X144200000Y-126646000D02*
X144200000Y-130554000D01*
X144200000Y-126600000D02*
X149250000Y-126554000D01*
X151484999Y-124670001D02*
G75*
G02*
X149225000Y-126550000I-2069999J190000D01*
G01*
X155089000Y-128670000D02*
G75*
G02*
X152825000Y-130554000I-2074000J190000D01*
G01*
D13*
X107300000Y-100000000D02*
X107300000Y-91900000D01*
X107300000Y-91900000D02*
X95500000Y-91900000D01*
X95500000Y-100000000D02*
X95500000Y-91900000D01*
X95500000Y-104100000D02*
X95500000Y-100000000D01*
X97900000Y-104100000D02*
X95500000Y-104100000D01*
X102700000Y-104100000D02*
X100100000Y-104100000D01*
X107300000Y-104100000D02*
X104900000Y-104100000D01*
X107300000Y-100000000D02*
X107300000Y-104100000D01*
X104400000Y-98000000D02*
G75*
G03*
X104400000Y-98000000I-3000000J0D01*
G01*
X101900000Y-98000000D02*
X100900000Y-98000000D01*
X101400000Y-97500000D02*
X101400000Y-98500000D01*
D11*
X152843000Y-116135000D02*
X154243000Y-116135000D01*
X153543000Y-116135000D02*
X152843000Y-117035000D01*
X154243000Y-117035000D02*
X153543000Y-116135000D01*
X152843000Y-117035000D02*
X154243000Y-117035000D01*
X155383000Y-117064000D02*
X156783000Y-117064000D01*
X156783000Y-117064000D02*
X156083000Y-116164000D01*
X156083000Y-116164000D02*
X155383000Y-117064000D01*
X155383000Y-116164000D02*
X156783000Y-116164000D01*
X157796000Y-116164000D02*
X159196000Y-116164000D01*
X158496000Y-116164000D02*
X157796000Y-117064000D01*
X159196000Y-117064000D02*
X158496000Y-116164000D01*
X157796000Y-117064000D02*
X159196000Y-117064000D01*
X160209000Y-117064000D02*
X161609000Y-117064000D01*
X161609000Y-117064000D02*
X160909000Y-116164000D01*
X160909000Y-116164000D02*
X160209000Y-117064000D01*
X160209000Y-116164000D02*
X161609000Y-116164000D01*
X162622000Y-117064000D02*
X164022000Y-117064000D01*
X164022000Y-117064000D02*
X163322000Y-116164000D01*
X163322000Y-116164000D02*
X162622000Y-117064000D01*
X162622000Y-116164000D02*
X164022000Y-116164000D01*
D13*
X174000000Y-126250000D02*
X174000000Y-118150000D01*
X174000000Y-118150000D02*
X162200000Y-118150000D01*
X162200000Y-126250000D02*
X162200000Y-118150000D01*
X162200000Y-130350000D02*
X162200000Y-126250000D01*
X164600000Y-130350000D02*
X162200000Y-130350000D01*
X169400000Y-130350000D02*
X166800000Y-130350000D01*
X174000000Y-130350000D02*
X171600000Y-130350000D01*
X174000000Y-126250000D02*
X174000000Y-130350000D01*
X171100000Y-124250000D02*
G75*
G03*
X171100000Y-124250000I-3000000J0D01*
G01*
X168600000Y-124250000D02*
X167600000Y-124250000D01*
X168100000Y-123750000D02*
X168100000Y-124750000D01*
X221600000Y-56400000D02*
X221600000Y-48300000D01*
X221600000Y-48300000D02*
X209800000Y-48300000D01*
X209800000Y-56400000D02*
X209800000Y-48300000D01*
X209800000Y-60500000D02*
X209800000Y-56400000D01*
X212200000Y-60500000D02*
X209800000Y-60500000D01*
X217000000Y-60500000D02*
X214400000Y-60500000D01*
X221600000Y-60500000D02*
X219200000Y-60500000D01*
X221600000Y-56400000D02*
X221600000Y-60500000D01*
X218700000Y-54400000D02*
G75*
G03*
X218700000Y-54400000I-3000000J0D01*
G01*
X216200000Y-54400000D02*
X215200000Y-54400000D01*
X215700000Y-53900000D02*
X215700000Y-54900000D01*
D14*
X109430815Y-52585745D02*
G75*
G03*
X109430815Y-52585745I-712000J0D01*
G01*
X109430815Y-57665745D02*
G75*
G03*
X109430815Y-57665745I-712000J0D01*
G01*
X94190815Y-42425745D02*
G75*
G03*
X94190815Y-42425745I-712000J0D01*
G01*
X109430815Y-44965745D02*
G75*
G03*
X109430815Y-44965745I-712000J0D01*
G01*
X109430815Y-67825745D02*
G75*
G03*
X109430815Y-67825745I-712000J0D01*
G01*
X94190815Y-70365745D02*
G75*
G03*
X94190815Y-70365745I-712000J0D01*
G01*
X109430815Y-60205745D02*
G75*
G03*
X109430815Y-60205745I-712000J0D01*
G01*
X109430815Y-62745745D02*
G75*
G03*
X109430815Y-62745745I-712000J0D01*
G01*
X94190815Y-60205745D02*
G75*
G03*
X94190815Y-60205745I-712000J0D01*
G01*
X94190815Y-65285745D02*
G75*
G03*
X94190815Y-65285745I-712000J0D01*
G01*
X94190815Y-52585745D02*
G75*
G03*
X94190815Y-52585745I-712000J0D01*
G01*
X94190815Y-50045745D02*
G75*
G03*
X94190815Y-50045745I-712000J0D01*
G01*
X94190815Y-44965745D02*
G75*
G03*
X94190815Y-44965745I-712000J0D01*
G01*
X94190815Y-55125745D02*
G75*
G03*
X94190815Y-55125745I-712000J0D01*
G01*
X109430815Y-70365745D02*
G75*
G03*
X109430815Y-70365745I-712000J0D01*
G01*
X94190815Y-62745745D02*
G75*
G03*
X94190815Y-62745745I-712000J0D01*
G01*
X109430815Y-42425745D02*
G75*
G03*
X109430815Y-42425745I-712000J0D01*
G01*
X109430815Y-47505745D02*
G75*
G03*
X109430815Y-47505745I-712000J0D01*
G01*
X94190815Y-67825745D02*
G75*
G03*
X94190815Y-67825745I-712000J0D01*
G01*
X109430815Y-50045745D02*
G75*
G03*
X109430815Y-50045745I-712000J0D01*
G01*
X109430815Y-55125745D02*
G75*
G03*
X109430815Y-55125745I-712000J0D01*
G01*
X94190815Y-57665745D02*
G75*
G03*
X94190815Y-57665745I-712000J0D01*
G01*
X109430815Y-65285745D02*
G75*
G03*
X109430815Y-65285745I-712000J0D01*
G01*
X94190815Y-47505745D02*
G75*
G03*
X94190815Y-47505745I-712000J0D01*
G01*
X102776077Y-85197904D02*
X102709410Y-84664571D01*
X102718934Y-84740761D02*
X102676077Y-84702666D01*
X102595125Y-84664571D01*
X102480839Y-84664571D01*
X102409410Y-84702666D01*
X102380839Y-84778857D01*
X102433220Y-85197904D01*
X102380839Y-84778857D02*
X102333220Y-84702666D01*
X102252267Y-84664571D01*
X102137982Y-84664571D01*
X102066553Y-84702666D01*
X102037982Y-84778857D01*
X102090363Y-85197904D01*
X101595125Y-85197904D02*
X101666553Y-85159809D01*
X101699886Y-85121714D01*
X101728458Y-85045523D01*
X101699886Y-84816952D01*
X101652267Y-84740761D01*
X101609410Y-84702666D01*
X101528458Y-84664571D01*
X101414172Y-84664571D01*
X101342744Y-84702666D01*
X101309410Y-84740761D01*
X101280839Y-84816952D01*
X101309410Y-85045523D01*
X101357029Y-85121714D01*
X101399886Y-85159809D01*
X101480839Y-85197904D01*
X101595125Y-85197904D01*
X100642744Y-85197904D02*
X100542744Y-84397904D01*
X100637982Y-85159809D02*
X100718934Y-85197904D01*
X100871315Y-85197904D01*
X100942744Y-85159809D01*
X100976077Y-85121714D01*
X101004648Y-85045523D01*
X100976077Y-84816952D01*
X100928458Y-84740761D01*
X100885601Y-84702666D01*
X100804648Y-84664571D01*
X100652267Y-84664571D01*
X100580839Y-84702666D01*
X100261791Y-85197904D02*
X100195125Y-84664571D01*
X100161791Y-84397904D02*
X100204648Y-84436000D01*
X100171315Y-84474095D01*
X100128458Y-84436000D01*
X100161791Y-84397904D01*
X100171315Y-84474095D01*
X99928458Y-84664571D02*
X99623696Y-84664571D01*
X99880839Y-85197904D02*
X99795125Y-84512190D01*
X99747505Y-84436000D01*
X99666553Y-84397904D01*
X99590363Y-84397904D01*
X99423696Y-85197904D02*
X99357029Y-84664571D01*
X99323696Y-84397904D02*
X99366553Y-84436000D01*
X99333220Y-84474095D01*
X99290363Y-84436000D01*
X99323696Y-84397904D01*
X99333220Y-84474095D01*
X98733220Y-85159809D02*
X98814172Y-85197904D01*
X98966553Y-85197904D01*
X99037982Y-85159809D01*
X99066553Y-85083619D01*
X99028458Y-84778857D01*
X98980839Y-84702666D01*
X98899886Y-84664571D01*
X98747505Y-84664571D01*
X98676077Y-84702666D01*
X98647505Y-84778857D01*
X98657029Y-84855047D01*
X99047505Y-84931238D01*
X98014172Y-85197904D02*
X97914172Y-84397904D01*
X98009410Y-85159809D02*
X98090363Y-85197904D01*
X98242744Y-85197904D01*
X98314172Y-85159809D01*
X98347505Y-85121714D01*
X98376077Y-85045523D01*
X98347505Y-84816952D01*
X98299886Y-84740761D01*
X98257029Y-84702666D01*
X98176077Y-84664571D01*
X98023696Y-84664571D01*
X97952267Y-84702666D01*
X97023696Y-85197904D02*
X96923696Y-84397904D01*
X96961791Y-84702666D02*
X96880839Y-84664571D01*
X96728458Y-84664571D01*
X96657029Y-84702666D01*
X96623696Y-84740761D01*
X96595125Y-84816952D01*
X96623696Y-85045523D01*
X96671315Y-85121714D01*
X96714172Y-85159809D01*
X96795125Y-85197904D01*
X96947505Y-85197904D01*
X97018934Y-85159809D01*
X96309410Y-84664571D02*
X96185601Y-85197904D01*
X95928458Y-84664571D02*
X96185601Y-85197904D01*
X96285601Y-85388380D01*
X96328458Y-85426476D01*
X96409410Y-85464571D01*
X95080839Y-85197904D02*
X95014172Y-84664571D01*
X95033220Y-84816952D02*
X94985601Y-84740761D01*
X94942744Y-84702666D01*
X94861791Y-84664571D01*
X94785601Y-84664571D01*
X94242744Y-85197904D02*
X94190363Y-84778857D01*
X94218934Y-84702666D01*
X94290363Y-84664571D01*
X94442744Y-84664571D01*
X94523696Y-84702666D01*
X94237982Y-85159809D02*
X94318934Y-85197904D01*
X94509410Y-85197904D01*
X94580839Y-85159809D01*
X94609410Y-85083619D01*
X94599886Y-85007428D01*
X94552267Y-84931238D01*
X94471315Y-84893142D01*
X94280839Y-84893142D01*
X94199886Y-84855047D01*
X93861791Y-85197904D02*
X93795125Y-84664571D01*
X93804648Y-84740761D02*
X93761791Y-84702666D01*
X93680839Y-84664571D01*
X93566553Y-84664571D01*
X93495125Y-84702666D01*
X93466553Y-84778857D01*
X93518934Y-85197904D01*
X93466553Y-84778857D02*
X93418934Y-84702666D01*
X93337982Y-84664571D01*
X93223696Y-84664571D01*
X93152267Y-84702666D01*
X93123696Y-84778857D01*
X93176077Y-85197904D01*
X92485601Y-85159809D02*
X92566553Y-85197904D01*
X92718934Y-85197904D01*
X92790363Y-85159809D01*
X92818934Y-85083619D01*
X92780839Y-84778857D01*
X92733220Y-84702666D01*
X92652267Y-84664571D01*
X92499886Y-84664571D01*
X92428458Y-84702666D01*
X92399886Y-84778857D01*
X92409410Y-84855047D01*
X92799886Y-84931238D01*
X92142744Y-85159809D02*
X92071315Y-85197904D01*
X91918934Y-85197904D01*
X91837982Y-85159809D01*
X91790363Y-85083619D01*
X91785601Y-85045523D01*
X91814172Y-84969333D01*
X91885601Y-84931238D01*
X91999886Y-84931238D01*
X92071315Y-84893142D01*
X92099886Y-84816952D01*
X92095125Y-84778857D01*
X92047505Y-84702666D01*
X91966553Y-84664571D01*
X91852267Y-84664571D01*
X91780839Y-84702666D01*
X91152267Y-85159809D02*
X91233220Y-85197904D01*
X91385601Y-85197904D01*
X91457029Y-85159809D01*
X91485601Y-85083619D01*
X91447505Y-84778857D01*
X91399886Y-84702666D01*
X91318934Y-84664571D01*
X91166553Y-84664571D01*
X91095125Y-84702666D01*
X91066553Y-84778857D01*
X91076077Y-84855047D01*
X91466553Y-84931238D01*
X90809410Y-85159809D02*
X90737982Y-85197904D01*
X90585601Y-85197904D01*
X90504648Y-85159809D01*
X90457029Y-85083619D01*
X90452267Y-85045523D01*
X90480839Y-84969333D01*
X90552267Y-84931238D01*
X90666553Y-84931238D01*
X90737982Y-84893142D01*
X90766553Y-84816952D01*
X90761791Y-84778857D01*
X90714172Y-84702666D01*
X90633220Y-84664571D01*
X90518934Y-84664571D01*
X90447505Y-84702666D01*
X90061791Y-84664571D02*
X90147505Y-85350285D01*
X90195125Y-85426476D01*
X90276077Y-85464571D01*
X90314172Y-85464571D01*
X90028458Y-84397904D02*
X90071315Y-84436000D01*
X90037982Y-84474095D01*
X89995125Y-84436000D01*
X90028458Y-84397904D01*
X90037982Y-84474095D01*
X89404648Y-85197904D02*
X89304648Y-84397904D01*
X89399886Y-85159809D02*
X89480839Y-85197904D01*
X89633220Y-85197904D01*
X89704648Y-85159809D01*
X89737982Y-85121714D01*
X89766553Y-85045523D01*
X89737982Y-84816952D01*
X89690363Y-84740761D01*
X89647505Y-84702666D01*
X89566553Y-84664571D01*
X89414172Y-84664571D01*
X89342744Y-84702666D01*
X105068505Y-83927904D02*
X105139934Y-83889809D01*
X105173267Y-83851714D01*
X105201839Y-83775523D01*
X105173267Y-83546952D01*
X105125648Y-83470761D01*
X105082791Y-83432666D01*
X105001839Y-83394571D01*
X104887553Y-83394571D01*
X104816125Y-83432666D01*
X104782791Y-83470761D01*
X104754220Y-83546952D01*
X104782791Y-83775523D01*
X104830410Y-83851714D01*
X104873267Y-83889809D01*
X104954220Y-83927904D01*
X105068505Y-83927904D01*
X104458982Y-83927904D02*
X104392315Y-83394571D01*
X104411363Y-83546952D02*
X104363744Y-83470761D01*
X104320886Y-83432666D01*
X104239934Y-83394571D01*
X104163744Y-83394571D01*
X103963744Y-83927904D02*
X103897077Y-83394571D01*
X103863744Y-83127904D02*
X103906601Y-83166000D01*
X103873267Y-83204095D01*
X103830410Y-83166000D01*
X103863744Y-83127904D01*
X103873267Y-83204095D01*
X103173267Y-83394571D02*
X103254220Y-84042190D01*
X103301839Y-84118380D01*
X103344696Y-84156476D01*
X103425648Y-84194571D01*
X103539934Y-84194571D01*
X103611363Y-84156476D01*
X103235172Y-83889809D02*
X103316125Y-83927904D01*
X103468505Y-83927904D01*
X103539934Y-83889809D01*
X103573267Y-83851714D01*
X103601839Y-83775523D01*
X103573267Y-83546952D01*
X103525648Y-83470761D01*
X103482791Y-83432666D01*
X103401839Y-83394571D01*
X103249458Y-83394571D01*
X103178029Y-83432666D01*
X102858982Y-83927904D02*
X102792315Y-83394571D01*
X102758982Y-83127904D02*
X102801839Y-83166000D01*
X102768505Y-83204095D01*
X102725648Y-83166000D01*
X102758982Y-83127904D01*
X102768505Y-83204095D01*
X102411363Y-83394571D02*
X102478029Y-83927904D01*
X102420886Y-83470761D02*
X102378029Y-83432666D01*
X102297077Y-83394571D01*
X102182791Y-83394571D01*
X102111363Y-83432666D01*
X102082791Y-83508857D01*
X102135172Y-83927904D01*
X101411363Y-83927904D02*
X101358982Y-83508857D01*
X101387553Y-83432666D01*
X101458982Y-83394571D01*
X101611363Y-83394571D01*
X101692315Y-83432666D01*
X101406601Y-83889809D02*
X101487553Y-83927904D01*
X101678029Y-83927904D01*
X101749458Y-83889809D01*
X101778029Y-83813619D01*
X101768505Y-83737428D01*
X101720886Y-83661238D01*
X101639934Y-83623142D01*
X101449458Y-83623142D01*
X101368505Y-83585047D01*
X100916125Y-83927904D02*
X100987553Y-83889809D01*
X101016125Y-83813619D01*
X100930410Y-83127904D01*
X100001839Y-83927904D02*
X99901839Y-83127904D01*
X99939934Y-83432666D02*
X99858982Y-83394571D01*
X99706601Y-83394571D01*
X99635172Y-83432666D01*
X99601839Y-83470761D01*
X99573267Y-83546952D01*
X99601839Y-83775523D01*
X99649458Y-83851714D01*
X99692315Y-83889809D01*
X99773267Y-83927904D01*
X99925648Y-83927904D01*
X99997077Y-83889809D01*
X99287553Y-83394571D02*
X99163744Y-83927904D01*
X98906601Y-83394571D02*
X99163744Y-83927904D01*
X99263744Y-84118380D01*
X99306601Y-84156476D01*
X99387553Y-84194571D01*
X98058982Y-83927904D02*
X97958982Y-83127904D01*
X97944696Y-83623142D02*
X97754220Y-83927904D01*
X97687553Y-83394571D02*
X98030410Y-83699333D01*
X97068505Y-83927904D02*
X97016125Y-83508857D01*
X97044696Y-83432666D01*
X97116125Y-83394571D01*
X97268505Y-83394571D01*
X97349458Y-83432666D01*
X97063744Y-83889809D02*
X97144696Y-83927904D01*
X97335172Y-83927904D01*
X97406601Y-83889809D01*
X97435172Y-83813619D01*
X97425648Y-83737428D01*
X97378029Y-83661238D01*
X97297077Y-83623142D01*
X97106601Y-83623142D01*
X97025648Y-83585047D01*
X96735172Y-83394571D02*
X96430410Y-83394571D01*
X96587553Y-83127904D02*
X96673267Y-83813619D01*
X96644696Y-83889809D01*
X96573267Y-83927904D01*
X96497077Y-83927904D01*
X95887553Y-83927904D02*
X95835172Y-83508857D01*
X95863744Y-83432666D01*
X95935172Y-83394571D01*
X96087553Y-83394571D01*
X96168505Y-83432666D01*
X95882791Y-83889809D02*
X95963744Y-83927904D01*
X96154220Y-83927904D01*
X96225648Y-83889809D01*
X96254220Y-83813619D01*
X96244696Y-83737428D01*
X96197077Y-83661238D01*
X96116125Y-83623142D01*
X95925648Y-83623142D01*
X95844696Y-83585047D01*
X95254220Y-83127904D02*
X95178029Y-83127904D01*
X95106601Y-83166000D01*
X95073267Y-83204095D01*
X95044696Y-83280285D01*
X95025648Y-83432666D01*
X95049458Y-83623142D01*
X95106601Y-83775523D01*
X95154220Y-83851714D01*
X95197077Y-83889809D01*
X95278029Y-83927904D01*
X95354220Y-83927904D01*
X95425648Y-83889809D01*
X95458982Y-83851714D01*
X95487553Y-83775523D01*
X95506601Y-83623142D01*
X95482791Y-83432666D01*
X95425648Y-83280285D01*
X95378029Y-83204095D01*
X95335172Y-83166000D01*
X95254220Y-83127904D01*
X94263744Y-83127904D02*
X94644696Y-83127904D01*
X94730410Y-83508857D01*
X94687553Y-83470761D01*
X94606601Y-83432666D01*
X94416125Y-83432666D01*
X94344696Y-83470761D01*
X94311363Y-83508857D01*
X94282791Y-83585047D01*
X94306601Y-83775523D01*
X94354220Y-83851714D01*
X94397077Y-83889809D01*
X94478029Y-83927904D01*
X94668505Y-83927904D01*
X94739934Y-83889809D01*
X94773267Y-83851714D01*
X93563744Y-83927904D02*
X94020886Y-83927904D01*
X93792315Y-83927904D02*
X93692315Y-83127904D01*
X93782791Y-83242190D01*
X93868505Y-83318380D01*
X93949458Y-83356476D01*
X92968505Y-83127904D02*
X92892315Y-83127904D01*
X92820886Y-83166000D01*
X92787553Y-83204095D01*
X92758982Y-83280285D01*
X92739934Y-83432666D01*
X92763744Y-83623142D01*
X92820886Y-83775523D01*
X92868505Y-83851714D01*
X92911363Y-83889809D01*
X92992315Y-83927904D01*
X93068505Y-83927904D01*
X93139934Y-83889809D01*
X93173267Y-83851714D01*
X93201839Y-83775523D01*
X93220886Y-83623142D01*
X93197077Y-83432666D01*
X93139934Y-83280285D01*
X93092315Y-83204095D01*
X93049458Y-83166000D01*
X92968505Y-83127904D01*
D11*
X97491940Y-82494380D02*
X97491940Y-81494380D01*
X97110988Y-81494380D01*
X97015750Y-81542000D01*
X96968130Y-81589619D01*
X96920511Y-81684857D01*
X96920511Y-81827714D01*
X96968130Y-81922952D01*
X97015750Y-81970571D01*
X97110988Y-82018190D01*
X97491940Y-82018190D01*
X96491940Y-82494380D02*
X96491940Y-81827714D01*
X96491940Y-82018190D02*
X96444321Y-81922952D01*
X96396702Y-81875333D01*
X96301464Y-81827714D01*
X96206226Y-81827714D01*
X95730035Y-82494380D02*
X95825273Y-82446761D01*
X95872892Y-82399142D01*
X95920511Y-82303904D01*
X95920511Y-82018190D01*
X95872892Y-81922952D01*
X95825273Y-81875333D01*
X95730035Y-81827714D01*
X95587178Y-81827714D01*
X95491940Y-81875333D01*
X95444321Y-81922952D01*
X95396702Y-82018190D01*
X95396702Y-82303904D01*
X95444321Y-82399142D01*
X95491940Y-82446761D01*
X95587178Y-82494380D01*
X95730035Y-82494380D01*
X94968130Y-82399142D02*
X94920511Y-82446761D01*
X94968130Y-82494380D01*
X95015750Y-82446761D01*
X94968130Y-82399142D01*
X94968130Y-82494380D01*
X94587178Y-81494380D02*
X93968130Y-81494380D01*
X94301464Y-81875333D01*
X94158607Y-81875333D01*
X94063369Y-81922952D01*
X94015750Y-81970571D01*
X93968130Y-82065809D01*
X93968130Y-82303904D01*
X94015750Y-82399142D01*
X94063369Y-82446761D01*
X94158607Y-82494380D01*
X94444321Y-82494380D01*
X94539559Y-82446761D01*
X94587178Y-82399142D01*
X92968130Y-82494380D02*
X93301464Y-82018190D01*
X93539559Y-82494380D02*
X93539559Y-81494380D01*
X93158607Y-81494380D01*
X93063369Y-81542000D01*
X93015750Y-81589619D01*
X92968130Y-81684857D01*
X92968130Y-81827714D01*
X93015750Y-81922952D01*
X93063369Y-81970571D01*
X93158607Y-82018190D01*
X93539559Y-82018190D01*
X92539559Y-81970571D02*
X92206226Y-81970571D01*
X92063369Y-82494380D02*
X92539559Y-82494380D01*
X92539559Y-81494380D01*
X92063369Y-81494380D01*
X91634797Y-82399142D02*
X91587178Y-82446761D01*
X91634797Y-82494380D01*
X91682416Y-82446761D01*
X91634797Y-82399142D01*
X91634797Y-82494380D01*
X91158607Y-82494380D02*
X91158607Y-81494380D01*
X90825273Y-82208666D01*
X90491940Y-81494380D01*
X90491940Y-82494380D01*
X90110988Y-81494380D02*
X89444321Y-82494380D01*
X89444321Y-81494380D02*
X90110988Y-82494380D01*
D12*
X96563369Y-80279761D02*
X97515750Y-80279761D01*
X97515750Y-78279761D01*
X95896702Y-80279761D02*
X95896702Y-78946428D01*
X95896702Y-78279761D02*
X95991940Y-78375000D01*
X95896702Y-78470238D01*
X95801464Y-78375000D01*
X95896702Y-78279761D01*
X95896702Y-78470238D01*
X94658607Y-80279761D02*
X94849083Y-80184523D01*
X94944321Y-79994047D01*
X94944321Y-78279761D01*
X94087178Y-78946428D02*
X93610988Y-80279761D01*
X93134797Y-78946428D02*
X93610988Y-80279761D01*
X93801464Y-80755952D01*
X93896702Y-80851190D01*
X94087178Y-80946428D01*
X91420511Y-78279761D02*
X92372892Y-78279761D01*
X92468130Y-79232142D01*
X92372892Y-79136904D01*
X92182416Y-79041666D01*
X91706226Y-79041666D01*
X91515750Y-79136904D01*
X91420511Y-79232142D01*
X91325273Y-79422619D01*
X91325273Y-79898809D01*
X91420511Y-80089285D01*
X91515750Y-80184523D01*
X91706226Y-80279761D01*
X92182416Y-80279761D01*
X92372892Y-80184523D01*
X92468130Y-80089285D01*
X90182416Y-79136904D02*
X90372892Y-79041666D01*
X90468130Y-78946428D01*
X90563369Y-78755952D01*
X90563369Y-78660714D01*
X90468130Y-78470238D01*
X90372892Y-78375000D01*
X90182416Y-78279761D01*
X89801464Y-78279761D01*
X89610988Y-78375000D01*
X89515750Y-78470238D01*
X89420511Y-78660714D01*
X89420511Y-78755952D01*
X89515750Y-78946428D01*
X89610988Y-79041666D01*
X89801464Y-79136904D01*
X90182416Y-79136904D01*
X90372892Y-79232142D01*
X90468130Y-79327380D01*
X90563369Y-79517857D01*
X90563369Y-79898809D01*
X90468130Y-80089285D01*
X90372892Y-80184523D01*
X90182416Y-80279761D01*
X89801464Y-80279761D01*
X89610988Y-80184523D01*
X89515750Y-80089285D01*
X89420511Y-79898809D01*
X89420511Y-79517857D01*
X89515750Y-79327380D01*
X89610988Y-79232142D01*
X89801464Y-79136904D01*
D11*
X114715524Y-81803904D02*
X114448858Y-82603904D01*
X114182191Y-81803904D01*
X113458381Y-82527714D02*
X113496477Y-82565809D01*
X113610762Y-82603904D01*
X113686953Y-82603904D01*
X113801238Y-82565809D01*
X113877429Y-82489619D01*
X113915524Y-82413428D01*
X113953619Y-82261047D01*
X113953619Y-82146761D01*
X113915524Y-81994380D01*
X113877429Y-81918190D01*
X113801238Y-81842000D01*
X113686953Y-81803904D01*
X113610762Y-81803904D01*
X113496477Y-81842000D01*
X113458381Y-81880095D01*
X112658381Y-82527714D02*
X112696477Y-82565809D01*
X112810762Y-82603904D01*
X112886953Y-82603904D01*
X113001238Y-82565809D01*
X113077429Y-82489619D01*
X113115524Y-82413428D01*
X113153619Y-82261047D01*
X113153619Y-82146761D01*
X113115524Y-81994380D01*
X113077429Y-81918190D01*
X113001238Y-81842000D01*
X112886953Y-81803904D01*
X112810762Y-81803904D01*
X112696477Y-81842000D01*
X112658381Y-81880095D01*
X114220285Y-80177904D02*
X114601238Y-80177904D01*
X114601238Y-79377904D01*
X113953619Y-79758857D02*
X113686952Y-79758857D01*
X113572666Y-80177904D02*
X113953619Y-80177904D01*
X113953619Y-79377904D01*
X113572666Y-79377904D01*
X113229809Y-80177904D02*
X113229809Y-79377904D01*
X113039333Y-79377904D01*
X112925047Y-79416000D01*
X112848857Y-79492190D01*
X112810761Y-79568380D01*
X112772666Y-79720761D01*
X112772666Y-79835047D01*
X112810761Y-79987428D01*
X112848857Y-80063619D01*
X112925047Y-80139809D01*
X113039333Y-80177904D01*
X113229809Y-80177904D01*
X114315523Y-77016000D02*
X114391714Y-76977904D01*
X114506000Y-76977904D01*
X114620285Y-77016000D01*
X114696476Y-77092190D01*
X114734571Y-77168380D01*
X114772666Y-77320761D01*
X114772666Y-77435047D01*
X114734571Y-77587428D01*
X114696476Y-77663619D01*
X114620285Y-77739809D01*
X114506000Y-77777904D01*
X114429809Y-77777904D01*
X114315523Y-77739809D01*
X114277428Y-77701714D01*
X114277428Y-77435047D01*
X114429809Y-77435047D01*
X113934571Y-77777904D02*
X113934571Y-76977904D01*
X113477428Y-77777904D01*
X113477428Y-76977904D01*
X113096476Y-77777904D02*
X113096476Y-76977904D01*
X112906000Y-76977904D01*
X112791714Y-77016000D01*
X112715523Y-77092190D01*
X112677428Y-77168380D01*
X112639333Y-77320761D01*
X112639333Y-77435047D01*
X112677428Y-77587428D01*
X112715523Y-77663619D01*
X112791714Y-77739809D01*
X112906000Y-77777904D01*
X113096476Y-77777904D01*
X83499923Y-60967695D02*
X83499923Y-60154895D01*
X83190285Y-60154895D01*
X83112876Y-60193600D01*
X83074171Y-60232304D01*
X83035466Y-60309714D01*
X83035466Y-60425828D01*
X83074171Y-60503238D01*
X83112876Y-60541942D01*
X83190285Y-60580647D01*
X83499923Y-60580647D01*
X82261371Y-60967695D02*
X82725828Y-60967695D01*
X82493600Y-60967695D02*
X82493600Y-60154895D01*
X82571009Y-60271009D01*
X82648419Y-60348419D01*
X82725828Y-60387123D01*
X85699923Y-60967695D02*
X85699923Y-60154895D01*
X85390285Y-60154895D01*
X85312876Y-60193600D01*
X85274171Y-60232304D01*
X85235466Y-60309714D01*
X85235466Y-60425828D01*
X85274171Y-60503238D01*
X85312876Y-60541942D01*
X85390285Y-60580647D01*
X85699923Y-60580647D01*
X84461371Y-60967695D02*
X84925828Y-60967695D01*
X84693600Y-60967695D02*
X84693600Y-60154895D01*
X84771009Y-60271009D01*
X84848419Y-60348419D01*
X84925828Y-60387123D01*
X85049939Y-55905938D02*
X84668987Y-55639272D01*
X85049939Y-55448795D02*
X84249939Y-55448795D01*
X84249939Y-55753557D01*
X84288035Y-55829748D01*
X84326130Y-55867843D01*
X84402320Y-55905938D01*
X84516606Y-55905938D01*
X84592796Y-55867843D01*
X84630892Y-55829748D01*
X84668987Y-55753557D01*
X84668987Y-55448795D01*
X85049939Y-56667843D02*
X85049939Y-56210700D01*
X85049939Y-56439272D02*
X84249939Y-56439272D01*
X84364225Y-56363081D01*
X84440415Y-56286891D01*
X84478511Y-56210700D01*
X87299939Y-55905938D02*
X86918987Y-55639272D01*
X87299939Y-55448795D02*
X86499939Y-55448795D01*
X86499939Y-55753557D01*
X86538035Y-55829748D01*
X86576130Y-55867843D01*
X86652320Y-55905938D01*
X86766606Y-55905938D01*
X86842796Y-55867843D01*
X86880892Y-55829748D01*
X86918987Y-55753557D01*
X86918987Y-55448795D01*
X87299939Y-56667843D02*
X87299939Y-56210700D01*
X87299939Y-56439272D02*
X86499939Y-56439272D01*
X86614225Y-56363081D01*
X86690415Y-56286891D01*
X86728511Y-56210700D01*
X85361904Y-66538095D02*
X84980952Y-66271428D01*
X85361904Y-66080952D02*
X84561904Y-66080952D01*
X84561904Y-66385714D01*
X84600000Y-66461904D01*
X84638095Y-66500000D01*
X84714285Y-66538095D01*
X84828571Y-66538095D01*
X84904761Y-66500000D01*
X84942857Y-66461904D01*
X84980952Y-66385714D01*
X84980952Y-66080952D01*
X84942857Y-66880952D02*
X84942857Y-67147619D01*
X85361904Y-67261904D02*
X85361904Y-66880952D01*
X84561904Y-66880952D01*
X84561904Y-67261904D01*
X85323809Y-67566666D02*
X85361904Y-67680952D01*
X85361904Y-67871428D01*
X85323809Y-67947619D01*
X85285714Y-67985714D01*
X85209523Y-68023809D01*
X85133333Y-68023809D01*
X85057142Y-67985714D01*
X85019047Y-67947619D01*
X84980952Y-67871428D01*
X84942857Y-67719047D01*
X84904761Y-67642857D01*
X84866666Y-67604761D01*
X84790476Y-67566666D01*
X84714285Y-67566666D01*
X84638095Y-67604761D01*
X84600000Y-67642857D01*
X84561904Y-67719047D01*
X84561904Y-67909523D01*
X84600000Y-68023809D01*
X84942857Y-68366666D02*
X84942857Y-68633333D01*
X85361904Y-68747619D02*
X85361904Y-68366666D01*
X84561904Y-68366666D01*
X84561904Y-68747619D01*
X84561904Y-68976190D02*
X84561904Y-69433333D01*
X85361904Y-69204761D02*
X84561904Y-69204761D01*
M02*
