M48
; DRILL file {KiCad 5.1.9} date Sun Jan 24 14:33:30 2021
; FORMAT={-:-/ absolute / inch / decimal}
; #@! TF.CreationDate,2021-01-24T14:33:30-08:00
; #@! TF.GenerationSoftware,Kicad,Pcbnew,5.1.9
; #@! TF.FileFunction,Plated,1,2,PTH
FMAT,2
INCH
T1C0.0118
T2C0.0157
T3C0.0320
T4C0.0394
T5C0.0512
%
G90
G05
T1
X3.395Y-2.88
X3.3958Y-3.0012
X3.397Y-3.0475
X3.397Y-3.1925
X3.42Y-1.775
X3.4731Y-2.4531
X3.6575Y-4.0375
X3.73Y-2.45
X3.73Y-2.52
X3.73Y-2.6232
X3.74Y-1.66
X3.74Y-1.76
X3.74Y-2.06
X3.74Y-2.16
X3.74Y-2.26
X3.74Y-2.36
X3.785Y-4.8
X3.805Y-2.785
X3.86Y-2.59
X3.8632Y-1.9232
X3.865Y-1.56
X3.905Y-2.785
X3.9055Y-2.62
X3.9497Y-2.0703
X3.9503Y-2.1703
X3.98Y-2.68
X3.9952Y-2.6552
X4.005Y-2.785
X4.005Y-4.355
X4.0168Y-2.2232
X4.0418Y-2.3232
X4.0668Y-2.4232
X4.09Y-2.475
X4.105Y-2.785
X4.1125Y-2.5325
X4.125Y-5.39
X4.1339Y-2.6411
X4.245Y-4.22
X4.275Y-3.145
X4.3236Y-4.0386
X4.4094Y-2.1694
X4.4094Y-2.9244
X4.4094Y-3.6694
X4.4094Y-4.4194
X4.435Y-3.435
X4.44Y-2.45
X4.535Y-3.0
X4.545Y-3.845
X4.74Y-2.19
X4.74Y-4.375
X4.745Y-3.625
X4.75Y-2.315
X4.75Y-2.86
X4.7835Y-5.1565
X4.81Y-1.775
X4.87Y-4.05
X5.0785Y-4.4165
X5.0785Y-3.6685
X5.0787Y-2.1687
X5.0795Y-2.9205
X5.1575Y-2.0725
X5.1575Y-2.8275
X5.1575Y-3.5725
X5.1575Y-4.3275
X5.365Y-1.8
X5.425Y-1.635
X5.4494Y-5.1606
X5.5315Y-5.0735
X5.635Y-2.54
X5.745Y-4.81
X5.805Y-1.84
X5.824Y-2.074
X5.824Y-2.826
X5.824Y-3.574
X5.829Y-4.326
X5.865Y-1.62
X5.9094Y-2.0194
X5.9094Y-2.7744
X5.9094Y-3.5244
X5.9094Y-4.2694
X6.12Y-4.025
X6.125Y-3.27
X6.197Y-5.072
X6.235Y-1.96
X6.24Y-4.21
X6.2835Y-5.0735
X6.5772Y-3.5228
X6.5791Y-2.7709
X6.5791Y-4.2709
X6.5793Y-2.0193
X6.6575Y-2.075
X6.6575Y-2.8225
X6.6575Y-3.5725
X6.6575Y-4.3275
X6.755Y-4.81
X6.8Y-1.785
X6.855Y-3.29
X6.865Y-4.65
X6.952Y-5.072
X7.13Y-3.28
X7.324Y-3.574
X7.328Y-2.822
X7.329Y-2.074
X7.329Y-4.326
X7.4094Y-2.2644
X7.4094Y-3.0094
X7.4094Y-3.7644
X7.4094Y-4.5144
X7.485Y-1.65
X7.74Y-2.63
X7.745Y-2.215
X8.075Y-3.0071
X8.077Y-2.263
X8.078Y-3.763
X8.084Y-4.511
X8.1575Y-2.2855
X8.1575Y-3.0675
X8.1575Y-3.7975
X8.1594Y-4.5694
X8.165Y-2.09
X8.165Y-4.285
X8.29Y-4.205
X8.335Y-1.945
X8.36Y-2.07
X8.39Y-3.405
X8.51Y-4.5
X8.6Y-2.135
X8.68Y-2.71
X8.685Y-3.47
X8.69Y-4.2
X8.823Y-2.322
X8.8239Y-3.0661
X8.828Y-3.822
X8.8349Y-4.5701
T2
X6.0Y-2.2111
X6.0Y-2.345
X6.0Y-3.015
X6.0Y-3.1489
X6.005Y-1.5511
X6.005Y-1.685
X6.005Y-3.76
X6.005Y-3.8939
X6.045Y-4.525
X6.045Y-4.6589
X6.095Y-2.2111
X6.095Y-2.345
X6.095Y-3.015
X6.095Y-3.1489
X6.1Y-1.5511
X6.1Y-1.685
X6.1Y-3.76
X6.1Y-3.8939
X6.145Y-4.5261
X6.145Y-4.66
X6.19Y-2.2111
X6.19Y-2.345
X6.19Y-3.015
X6.19Y-3.1489
X6.195Y-1.5511
X6.195Y-1.685
X6.195Y-3.76
X6.195Y-3.8939
X6.24Y-4.5261
X6.24Y-4.66
X6.285Y-2.2111
X6.285Y-2.345
X6.285Y-3.015
X6.285Y-3.1489
X6.29Y-1.5511
X6.29Y-1.685
X6.29Y-3.76
X6.29Y-3.8939
X6.335Y-4.5261
X6.335Y-4.66
X6.38Y-2.2111
X6.38Y-2.345
X6.38Y-3.015
X6.38Y-3.1489
X6.385Y-1.5511
X6.385Y-1.685
X6.385Y-3.76
X6.385Y-3.8939
X6.43Y-4.5261
X6.43Y-4.66
X6.475Y-2.2111
X6.475Y-2.345
X6.475Y-3.015
X6.475Y-3.1489
X6.48Y-1.5511
X6.48Y-1.685
X6.485Y-3.76
X6.485Y-3.8939
T3
X3.3342Y-2.1063
X3.3342Y-2.3063
X3.3346Y-2.3898
X3.4213Y-2.3898
X3.4228Y-2.1063
X3.4228Y-2.3063
X3.6291Y-1.6232
X3.6291Y-1.7232
X3.6291Y-1.8232
X3.6291Y-1.9232
X3.6291Y-2.0232
X3.6291Y-2.1232
X3.6291Y-2.2232
X3.6291Y-2.3232
X3.6291Y-2.4232
X3.6291Y-2.5232
X3.6291Y-2.6232
X3.6291Y-2.7232
X3.6803Y-1.6703
X3.6803Y-1.7703
X3.6803Y-1.8703
X3.6803Y-1.9703
X3.6803Y-2.0703
X3.6803Y-2.1703
X3.6803Y-2.2703
X3.6803Y-2.3703
X3.6803Y-2.4703
X3.6803Y-2.5703
X3.6803Y-2.6703
X3.6803Y-2.7703
X3.8071Y-2.937
X3.9071Y-2.937
X4.0071Y-2.937
X4.1071Y-2.937
X4.2291Y-1.6232
X4.2291Y-1.7232
X4.2291Y-1.8232
X4.2291Y-1.9232
X4.2291Y-2.0232
X4.2291Y-2.1232
X4.2291Y-2.2232
X4.2291Y-2.3232
X4.2291Y-2.4232
X4.2291Y-2.5232
X4.2291Y-2.6232
X4.2291Y-2.7232
X4.2803Y-1.6703
X4.2803Y-1.7703
X4.2803Y-1.8703
X4.2803Y-1.9703
X4.2803Y-2.0703
X4.2803Y-2.1703
X4.2803Y-2.2703
X4.2803Y-2.3703
X4.2803Y-2.4703
X4.2803Y-2.5703
X4.2803Y-2.6703
X4.2803Y-2.7703
T4
X3.8937Y-3.563
X3.8937Y-4.1339
X3.9921Y-3.563
X4.0906Y-3.563
X4.0906Y-4.1339
X4.39Y-3.04
X4.39Y-3.1424
X4.39Y-3.2408
X6.5197Y-4.5965
X6.5197Y-5.1673
X6.6181Y-4.5965
X6.7165Y-4.5965
X6.7165Y-5.1673
X8.3937Y-1.8465
X8.3937Y-2.4173
X8.4921Y-1.8465
X8.5906Y-1.8465
X8.5906Y-2.4173
T5
X3.3465Y-2.5374
X3.3465Y-2.7933
T1
G00X3.3091Y-1.6516
M15
G01X3.3091Y-1.7028
M16
G05
G00X3.3091Y-1.7697
M15
G01X3.3091Y-1.8209
M16
G05
G00X3.3091Y-1.9272
M15
G01X3.3091Y-1.9783
M16
G05
G00X3.378Y-1.9862
M15
G01X3.378Y-2.0374
M16
G05
G00X3.4744Y-1.9862
M15
G01X3.4744Y-2.0374
M16
G05
G00X3.5433Y-1.6516
M15
G01X3.5433Y-1.7028
M16
G05
G00X3.5433Y-1.7697
M15
G01X3.5433Y-1.8209
M16
G05
G00X3.5433Y-1.9272
M15
G01X3.5433Y-1.9783
M16
G05
T0
M30
