M48
; DRILL file {KiCad 5.1.9} date Sun Jan 24 14:33:30 2021
; FORMAT={-:-/ absolute / inch / decimal}
; #@! TF.CreationDate,2021-01-24T14:33:30-08:00
; #@! TF.GenerationSoftware,Kicad,Pcbnew,5.1.9
; #@! TF.FileFunction,NonPlated,1,2,NPTH
FMAT,2
INCH
T1C0.0039
T2C0.0472
T3C0.0669
T4C0.0866
T5C0.1181
T6C0.1575
T7C0.1851
%
G90
G05
T1
X3.8415Y-3.9402
X3.9706Y-4.9204
X4.1212Y-5.1812
X4.1427Y-3.9402
X4.5935Y-2.0701
X4.5935Y-2.822
X4.5935Y-3.5701
X4.5935Y-4.3181
X4.8947Y-2.0701
X4.8947Y-2.822
X4.8947Y-3.5701
X4.8947Y-4.3181
X4.9675Y-5.0622
X5.2687Y-5.0622
X5.3415Y-1.9756
X5.3415Y-2.7276
X5.3415Y-3.4756
X5.3415Y-4.2276
X5.6427Y-1.9756
X5.6427Y-2.7276
X5.6427Y-3.4756
X5.6427Y-4.2276
X5.7156Y-4.9736
X6.0167Y-4.9736
X6.0935Y-1.9209
X6.0935Y-2.6724
X6.0935Y-3.4244
X6.0935Y-4.1724
X6.3947Y-1.9209
X6.3947Y-2.6724
X6.3947Y-3.4244
X6.3947Y-4.1724
X6.4675Y-4.9736
X6.7687Y-4.9736
X6.8415Y-1.9756
X6.8415Y-2.7236
X6.8415Y-3.4756
X6.8415Y-4.2276
X7.1427Y-1.9756
X7.1427Y-2.7236
X7.1427Y-3.4756
X7.1427Y-4.2276
X7.5935Y-2.1646
X7.5935Y-2.9087
X7.5935Y-3.6646
X7.5935Y-4.4126
X7.8947Y-2.1646
X7.8947Y-2.9087
X7.8947Y-3.6646
X7.8947Y-4.4126
X8.3415Y-2.2236
X8.3415Y-2.9677
X8.3415Y-3.7236
X8.3435Y-4.4717
X8.6427Y-2.2236
X8.6427Y-2.9677
X8.6427Y-3.7236
X8.6447Y-4.4717
T2
X3.3917Y-1.6063
X3.3917Y-1.8819
X3.4606Y-1.6063
X3.4606Y-1.8819
T3
X3.7921Y-3.8386
X4.0339Y-4.8268
X4.1921Y-3.8386
X4.2339Y-5.1732
X4.5441Y-1.9685
X4.5441Y-2.7205
X4.5441Y-3.4685
X4.5441Y-4.2165
X4.9181Y-4.9606
X4.9441Y-1.9685
X4.9441Y-2.7205
X4.9441Y-3.4685
X4.9441Y-4.2165
X5.2921Y-1.874
X5.2921Y-2.626
X5.2921Y-3.374
X5.2921Y-4.126
X5.3181Y-4.9606
X5.6661Y-4.872
X5.6921Y-1.874
X5.6921Y-2.626
X5.6921Y-3.374
X5.6921Y-4.126
X6.0441Y-1.8193
X6.0441Y-2.5709
X6.0441Y-3.3228
X6.0441Y-4.0709
X6.0661Y-4.872
X6.4181Y-4.872
X6.4441Y-1.8193
X6.4441Y-2.5709
X6.4441Y-3.3228
X6.4441Y-4.0709
X6.7921Y-1.874
X6.7921Y-2.622
X6.7921Y-3.374
X6.7921Y-4.126
X6.8181Y-4.872
X7.1921Y-1.874
X7.1921Y-2.622
X7.1921Y-3.374
X7.1921Y-4.126
X7.5441Y-2.063
X7.5441Y-2.8071
X7.5441Y-3.563
X7.5441Y-4.311
X7.9441Y-2.063
X7.9441Y-2.8071
X7.9441Y-3.563
X7.9441Y-4.311
X8.2921Y-2.122
X8.2921Y-2.8661
X8.2921Y-3.622
X8.2941Y-4.3701
X8.6921Y-2.122
X8.6921Y-2.8661
X8.6921Y-3.622
X8.6941Y-4.3701
T4
X3.3858Y-3.3465
X4.252Y-3.3465
T5
X3.8421Y-3.9386
X3.8421Y-3.9386
X3.8921Y-4.0386
X3.9107Y-5.0134
X3.9723Y-4.9201
X3.9723Y-4.9201
X4.0107Y-5.1866
X4.0921Y-4.0386
X4.1223Y-5.1799
X4.1421Y-3.9386
X4.5941Y-2.0685
X4.5941Y-2.0685
X4.5941Y-2.8205
X4.5941Y-2.8205
X4.5941Y-3.5685
X4.5941Y-3.5685
X4.5941Y-4.3165
X4.5941Y-4.3165
X4.6441Y-2.1685
X4.6441Y-2.9205
X4.6441Y-3.6685
X4.6441Y-4.4165
X4.8441Y-2.1685
X4.8441Y-2.9205
X4.8441Y-3.6685
X4.8441Y-4.4165
X4.8941Y-2.0685
X4.8941Y-2.8205
X4.8941Y-3.5685
X4.8941Y-4.3165
X4.9681Y-5.0606
X4.9681Y-5.0606
X5.0181Y-5.1606
X5.2181Y-5.1606
X5.2681Y-5.0606
X5.3421Y-1.974
X5.3421Y-1.974
X5.3421Y-2.726
X5.3421Y-2.726
X5.3421Y-3.474
X5.3421Y-3.474
X5.3421Y-4.226
X5.3421Y-4.226
X5.3921Y-2.074
X5.3921Y-2.826
X5.3921Y-3.574
X5.3921Y-4.326
X5.5921Y-2.074
X5.5921Y-2.826
X5.5921Y-3.574
X5.5921Y-4.326
X5.6421Y-1.974
X5.6421Y-2.726
X5.6421Y-3.474
X5.6421Y-4.226
X5.7161Y-4.972
X5.7161Y-4.972
X5.7661Y-5.072
X5.9661Y-5.072
X6.0161Y-4.972
X6.0941Y-1.9193
X6.0941Y-1.9193
X6.0941Y-2.6709
X6.0941Y-2.6709
X6.0941Y-3.4228
X6.0941Y-3.4228
X6.0941Y-4.1709
X6.0941Y-4.1709
X6.1441Y-2.0193
X6.1441Y-2.7709
X6.1441Y-3.5228
X6.1441Y-4.2709
X6.3441Y-2.0193
X6.3441Y-2.7709
X6.3441Y-3.5228
X6.3441Y-4.2709
X6.3941Y-1.9193
X6.3941Y-2.6709
X6.3941Y-3.4228
X6.3941Y-4.1709
X6.4681Y-4.972
X6.4681Y-4.972
X6.5181Y-5.072
X6.7181Y-5.072
X6.7681Y-4.972
X6.8421Y-1.974
X6.8421Y-1.974
X6.8421Y-2.722
X6.8421Y-2.722
X6.8421Y-3.474
X6.8421Y-3.474
X6.8421Y-4.226
X6.8421Y-4.226
X6.8921Y-2.074
X6.8921Y-2.822
X6.8921Y-3.574
X6.8921Y-4.326
X7.0921Y-2.074
X7.0921Y-2.822
X7.0921Y-3.574
X7.0921Y-4.326
X7.1421Y-1.974
X7.1421Y-2.722
X7.1421Y-3.474
X7.1421Y-4.226
X7.5941Y-2.163
X7.5941Y-2.163
X7.5941Y-2.9071
X7.5941Y-2.9071
X7.5941Y-3.663
X7.5941Y-3.663
X7.5941Y-4.411
X7.5941Y-4.411
X7.6441Y-2.263
X7.6441Y-3.0071
X7.6441Y-3.763
X7.6441Y-4.511
X7.8441Y-2.263
X7.8441Y-3.0071
X7.8441Y-3.763
X7.8441Y-4.511
X7.8941Y-2.163
X7.8941Y-2.9071
X7.8941Y-3.663
X7.8941Y-4.411
X8.3421Y-2.222
X8.3421Y-2.222
X8.3421Y-2.9661
X8.3421Y-2.9661
X8.3421Y-3.722
X8.3421Y-3.722
X8.3441Y-4.4701
X8.3441Y-4.4701
X8.3921Y-2.322
X8.3921Y-3.0661
X8.3921Y-3.822
X8.3941Y-4.5701
X8.5921Y-2.322
X8.5921Y-3.0661
X8.5921Y-3.822
X8.5941Y-4.5701
X8.6421Y-2.222
X8.6421Y-2.9661
X8.6421Y-3.722
X8.6441Y-4.4701
T6
X3.9921Y-3.8386
X4.1339Y-5.0
X4.7441Y-1.9685
X4.7441Y-2.7205
X4.7441Y-3.4685
X4.7441Y-4.2165
X5.1181Y-4.9606
X5.4921Y-1.874
X5.4921Y-2.626
X5.4921Y-3.374
X5.4921Y-4.126
X5.8661Y-4.872
X6.2441Y-1.8193
X6.2441Y-2.5709
X6.2441Y-3.3228
X6.2441Y-4.0709
X6.6181Y-4.872
X6.9921Y-1.874
X6.9921Y-2.622
X6.9921Y-3.374
X6.9921Y-4.126
X7.7441Y-2.063
X7.7441Y-2.8071
X7.7441Y-3.563
X7.7441Y-4.311
X8.4921Y-2.122
X8.4921Y-2.8661
X8.4921Y-3.622
X8.4941Y-4.3701
T7
X4.1339Y-4.5197
X5.1024Y-2.3465
X5.1024Y-3.8425
X8.1024Y-2.4331
X8.1024Y-3.937
T0
M30
